{"glyphs":{"0":{"ha":961,"x_min":-20,"x_max":875,"o":"m 193 -20 l 193 86 l 86 86 l 86 193 l -20 193 l -20 875 l 86 875 l 86 981 l 193 981 l 193 1088 l 661 1088 l 661 981 l 768 981 l 768 875 l 875 875 l 875 193 l 768 193 l 768 86 l 661 86 l 661 -20 l 193 -20 m 513 127 l 513 234 l 621 234 l 621 834 l 513 834 l 513 941 l 340 941 l 340 834 l 234 834 l 234 234 l 340 234 l 340 127 l 513 127 m 300 407 l 300 661 l 554 661 l 554 407 l 300 407 m 534 427 l 534 641 l 320 641 l 320 427 l 534 427 m 320 106 l 320 214 l 214 214 l 214 854 l 320 854 l 320 961 l 534 961 l 534 854 l 641 854 l 641 214 l 534 214 l 534 106 l 320 106 m 641 0 l 641 106 l 747 106 l 747 214 l 854 214 l 854 854 l 747 854 l 747 961 l 641 961 l 641 1068 l 214 1068 l 214 961 l 106 961 l 106 854 l 0 854 l 0 214 l 106 214 l 106 106 l 214 106 l 214 0 l 641 0 z "},"1":{"ha":961,"x_min":86,"x_max":768,"o":"m 86 -20 l 86 127 l 300 127 l 300 727 l 86 727 l 86 875 l 193 875 l 193 981 l 300 981 l 300 1088 l 554 1088 l 554 127 l 768 127 l 768 -20 l 86 -20 m 747 0 l 747 106 l 534 106 l 534 1068 l 320 1068 l 320 961 l 214 961 l 214 854 l 106 854 l 106 747 l 320 747 l 320 106 l 106 106 l 106 0 l 747 0 z "},"2":{"ha":961,"x_min":-20,"x_max":768,"o":"m -20 -20 l -20 340 l 86 340 l 86 448 l 193 448 l 193 554 l 300 554 l 300 661 l 407 661 l 407 768 l 513 768 l 513 941 l 234 941 l 234 834 l -20 834 l -20 981 l 86 981 l 86 1088 l 661 1088 l 661 981 l 768 981 l 768 727 l 661 727 l 661 621 l 554 621 l 554 513 l 448 513 l 448 407 l 340 407 l 340 300 l 234 300 l 234 127 l 513 127 l 513 234 l 768 234 l 768 -20 l -20 -20 m 747 0 l 747 214 l 534 214 l 534 106 l 214 106 l 214 320 l 320 320 l 320 427 l 427 427 l 427 534 l 534 534 l 534 641 l 641 641 l 641 747 l 747 747 l 747 961 l 641 961 l 641 1068 l 106 1068 l 106 961 l 0 961 l 0 854 l 214 854 l 214 961 l 534 961 l 534 747 l 427 747 l 427 641 l 320 641 l 320 534 l 214 534 l 214 427 l 106 427 l 106 320 l 0 320 l 0 0 l 747 0 z "},"3":{"ha":961,"x_min":-20,"x_max":768,"o":"m 86 -20 l 86 86 l -20 86 l -20 234 l 234 234 l 234 127 l 513 127 l 513 513 l 193 513 l 193 661 l 513 661 l 513 941 l 234 941 l 234 834 l -20 834 l -20 981 l 86 981 l 86 1088 l 661 1088 l 661 981 l 768 981 l 768 621 l 661 621 l 661 554 l 768 554 l 768 86 l 661 86 l 661 -20 l 86 -20 m 641 0 l 641 106 l 747 106 l 747 534 l 641 534 l 641 641 l 747 641 l 747 961 l 641 961 l 641 1068 l 106 1068 l 106 961 l 0 961 l 0 854 l 214 854 l 214 961 l 534 961 l 534 641 l 214 641 l 214 534 l 534 534 l 534 106 l 214 106 l 214 214 l 0 214 l 0 106 l 106 106 l 106 0 l 641 0 z "},"4":{"ha":961,"x_min":-20,"x_max":768,"o":"m 300 -20 l 300 127 l 407 127 l 407 407 l -20 407 l -20 661 l 86 661 l 86 768 l 193 768 l 193 875 l 300 875 l 300 981 l 407 981 l 407 1088 l 661 1088 l 661 554 l 768 554 l 768 407 l 661 407 l 661 127 l 768 127 l 768 -20 l 300 -20 m 407 554 l 407 727 l 340 727 l 340 621 l 234 621 l 234 554 l 407 554 m 214 534 l 214 641 l 320 641 l 320 747 l 427 747 l 427 534 l 214 534 m 747 0 l 747 106 l 641 106 l 641 427 l 747 427 l 747 534 l 641 534 l 641 1068 l 427 1068 l 427 961 l 320 961 l 320 854 l 214 854 l 214 747 l 106 747 l 106 641 l 0 641 l 0 427 l 427 427 l 427 106 l 320 106 l 320 0 l 747 0 z "},"5":{"ha":961,"x_min":-20,"x_max":768,"o":"m 86 -20 l 86 86 l -20 86 l -20 234 l 234 234 l 234 127 l 513 127 l 513 513 l -20 513 l -20 1088 l 768 1088 l 768 941 l 234 941 l 234 661 l 661 661 l 661 554 l 768 554 l 768 86 l 661 86 l 661 -20 l 86 -20 m 641 0 l 641 106 l 747 106 l 747 534 l 641 534 l 641 641 l 214 641 l 214 961 l 747 961 l 747 1068 l 0 1068 l 0 534 l 534 534 l 534 106 l 214 106 l 214 214 l 0 214 l 0 106 l 106 106 l 106 0 l 641 0 z "},"6":{"ha":961,"x_min":-20,"x_max":768,"o":"m 86 -20 l 86 86 l -20 86 l -20 875 l 86 875 l 86 981 l 193 981 l 193 1088 l 554 1088 l 554 941 l 340 941 l 340 834 l 234 834 l 234 661 l 661 661 l 661 554 l 768 554 l 768 86 l 661 86 l 661 -20 l 86 -20 m 513 127 l 513 513 l 234 513 l 234 127 l 513 127 m 214 106 l 214 534 l 534 534 l 534 106 l 214 106 m 641 0 l 641 106 l 747 106 l 747 534 l 641 534 l 641 641 l 214 641 l 214 854 l 320 854 l 320 961 l 534 961 l 534 1068 l 214 1068 l 214 961 l 106 961 l 106 854 l 0 854 l 0 106 l 106 106 l 106 0 l 641 0 z "},"7":{"ha":961,"x_min":-20,"x_max":768,"o":"m 193 -20 l 193 448 l 300 448 l 300 554 l 407 554 l 407 661 l 513 661 l 513 941 l 234 941 l 234 834 l -20 834 l -20 1088 l 768 1088 l 768 621 l 661 621 l 661 513 l 554 513 l 554 407 l 448 407 l 448 -20 l 193 -20 m 427 0 l 427 427 l 534 427 l 534 534 l 641 534 l 641 641 l 747 641 l 747 1068 l 0 1068 l 0 854 l 214 854 l 214 961 l 534 961 l 534 641 l 427 641 l 427 534 l 320 534 l 320 427 l 214 427 l 214 0 l 427 0 z "},"8":{"ha":961,"x_min":-20,"x_max":768,"o":"m 86 -20 l 86 86 l -20 86 l -20 554 l 86 554 l 86 621 l -20 621 l -20 981 l 86 981 l 86 1088 l 661 1088 l 661 981 l 768 981 l 768 621 l 661 621 l 661 554 l 768 554 l 768 86 l 661 86 l 661 -20 l 86 -20 m 513 661 l 513 941 l 234 941 l 234 661 l 513 661 m 513 127 l 513 513 l 234 513 l 234 127 l 513 127 m 214 106 l 214 534 l 534 534 l 534 106 l 214 106 m 214 641 l 214 961 l 534 961 l 534 641 l 214 641 m 641 0 l 641 106 l 747 106 l 747 534 l 641 534 l 641 641 l 747 641 l 747 961 l 641 961 l 641 1068 l 106 1068 l 106 961 l 0 961 l 0 641 l 106 641 l 106 534 l 0 534 l 0 106 l 106 106 l 106 0 l 641 0 z "},"9":{"ha":961,"x_min":-20,"x_max":768,"o":"m 86 -20 l 86 127 l 407 127 l 407 234 l 513 234 l 513 513 l 86 513 l 86 621 l -20 621 l -20 981 l 86 981 l 86 1088 l 661 1088 l 661 981 l 768 981 l 768 193 l 661 193 l 661 86 l 554 86 l 554 -20 l 86 -20 m 513 661 l 513 941 l 234 941 l 234 661 l 513 661 m 214 641 l 214 961 l 534 961 l 534 641 l 214 641 m 534 0 l 534 106 l 641 106 l 641 214 l 747 214 l 747 961 l 641 961 l 641 1068 l 106 1068 l 106 961 l 0 961 l 0 641 l 106 641 l 106 534 l 534 534 l 534 214 l 427 214 l 427 106 l 106 106 l 106 0 l 534 0 z "},"\u0000":{"ha":0,"x_min":0,"x_max":0,"o":""},"\r":{"ha":347,"x_min":0,"x_max":0,"o":""}," ":{"ha":374,"x_min":0,"x_max":0,"o":""},"!":{"ha":961,"x_min":193,"x_max":661,"o":"m 300 300 l 300 621 l 193 621 l 193 981 l 300 981 l 300 1088 l 554 1088 l 554 981 l 661 981 l 661 621 l 554 621 l 554 300 l 300 300 m 300 -20 l 300 234 l 554 234 l 554 -20 l 300 -20 m 534 0 l 534 214 l 320 214 l 320 0 l 534 0 m 534 320 l 534 641 l 641 641 l 641 961 l 534 961 l 534 1068 l 320 1068 l 320 961 l 214 961 l 214 641 l 320 641 l 320 320 l 534 320 z "},"\"":{"ha":961,"x_min":86,"x_max":768,"o":"m 513 727 l 513 1195 l 768 1195 l 768 834 l 661 834 l 661 727 l 513 727 m 193 727 l 193 834 l 86 834 l 86 1195 l 340 1195 l 340 727 l 193 727 m 320 747 l 320 1175 l 106 1175 l 106 854 l 214 854 l 214 747 l 320 747 m 641 747 l 641 854 l 747 854 l 747 1175 l 534 1175 l 534 747 l 641 747 z "},"#":{"ha":961,"x_min":-20,"x_max":768,"o":"m 86 -20 l 86 193 l -20 193 l -20 340 l 86 340 l 86 621 l -20 621 l -20 768 l 86 768 l 86 981 l 340 981 l 340 768 l 407 768 l 407 981 l 661 981 l 661 768 l 768 768 l 768 621 l 661 621 l 661 340 l 768 340 l 768 193 l 661 193 l 661 -20 l 407 -20 l 407 193 l 340 193 l 340 -20 l 86 -20 m 407 340 l 407 621 l 340 621 l 340 340 l 407 340 m 320 320 l 320 641 l 427 641 l 427 320 l 320 320 m 320 0 l 320 214 l 427 214 l 427 0 l 641 0 l 641 214 l 747 214 l 747 320 l 641 320 l 641 641 l 747 641 l 747 747 l 641 747 l 641 961 l 427 961 l 427 747 l 320 747 l 320 961 l 106 961 l 106 747 l 0 747 l 0 641 l 106 641 l 106 320 l 0 320 l 0 214 l 106 214 l 106 0 l 320 0 z "},"$":{"ha":961,"x_min":-20,"x_max":768,"o":"m 300 -234 l 300 -20 l 86 -20 l 86 86 l -20 86 l -20 340 l 127 340 l 127 234 l 234 234 l 234 127 l 513 127 l 513 513 l 86 513 l 86 621 l -20 621 l -20 981 l 86 981 l 86 1088 l 300 1088 l 300 1302 l 554 1302 l 554 1088 l 661 1088 l 661 981 l 768 981 l 768 727 l 621 727 l 621 834 l 513 834 l 513 941 l 234 941 l 234 661 l 661 661 l 661 554 l 768 554 l 768 86 l 661 86 l 661 -20 l 554 -20 l 554 -234 l 300 -234 m 534 -214 l 534 0 l 641 0 l 641 106 l 747 106 l 747 534 l 641 534 l 641 641 l 214 641 l 214 961 l 534 961 l 534 854 l 641 854 l 641 747 l 747 747 l 747 961 l 641 961 l 641 1068 l 534 1068 l 534 1282 l 320 1282 l 320 1068 l 106 1068 l 106 961 l 0 961 l 0 641 l 106 641 l 106 534 l 534 534 l 534 106 l 214 106 l 214 214 l 106 214 l 106 320 l 0 320 l 0 106 l 106 106 l 106 0 l 320 0 l 320 -214 l 534 -214 z "},"%":{"ha":961,"x_min":-20,"x_max":768,"o":"m -20 -20 l -20 234 l 86 234 l 86 340 l 193 340 l 193 448 l 300 448 l 300 554 l 407 554 l 407 661 l 513 661 l 513 768 l 621 768 l 621 875 l 768 875 l 768 621 l 661 621 l 661 513 l 554 513 l 554 407 l 448 407 l 448 300 l 340 300 l 340 193 l 234 193 l 234 86 l 127 86 l 127 -20 l -20 -20 m -20 621 l -20 875 l 234 875 l 234 621 l -20 621 m 513 -20 l 513 234 l 768 234 l 768 -20 l 513 -20 m 747 0 l 747 214 l 534 214 l 534 0 l 747 0 m 214 641 l 214 854 l 0 854 l 0 641 l 214 641 m 106 0 l 106 106 l 214 106 l 214 214 l 320 214 l 320 320 l 427 320 l 427 427 l 534 427 l 534 534 l 641 534 l 641 641 l 747 641 l 747 854 l 641 854 l 641 747 l 534 747 l 534 641 l 427 641 l 427 534 l 320 534 l 320 427 l 214 427 l 214 320 l 106 320 l 106 214 l 0 214 l 0 0 l 106 0 z "},"&":{"ha":961,"x_min":-20,"x_max":768,"o":"m 86 -20 l 86 86 l -20 86 l -20 554 l 86 554 l 86 661 l 193 661 l 193 727 l 86 727 l 86 981 l 193 981 l 193 1088 l 554 1088 l 554 981 l 661 981 l 661 727 l 554 727 l 554 661 l 768 661 l 768 513 l 661 513 l 661 127 l 768 127 l 768 -20 l 513 -20 l 513 86 l 448 86 l 448 -20 l 86 -20 m 407 768 l 407 941 l 340 941 l 340 768 l 407 768 m 513 621 l 448 621 l 448 554 l 513 554 l 513 621 m 407 127 l 407 407 l 300 407 l 300 513 l 234 513 l 234 127 l 407 127 m 214 106 l 214 534 l 320 534 l 320 427 l 427 427 l 427 106 l 214 106 m 534 534 l 427 534 l 427 641 l 534 641 l 534 534 m 320 747 l 320 961 l 427 961 l 427 747 l 320 747 m 427 0 l 427 106 l 534 106 l 534 0 l 747 0 l 747 106 l 641 106 l 641 534 l 747 534 l 747 641 l 534 641 l 534 747 l 641 747 l 641 961 l 534 961 l 534 1068 l 214 1068 l 214 961 l 106 961 l 106 747 l 214 747 l 214 641 l 106 641 l 106 534 l 0 534 l 0 106 l 106 106 l 106 0 l 427 0 z "},"'":{"ha":961,"x_min":86,"x_max":448,"o":"m 86 727 l 86 875 l 193 875 l 193 1195 l 448 1195 l 448 834 l 340 834 l 340 727 l 86 727 m 320 747 l 320 854 l 427 854 l 427 1175 l 214 1175 l 214 854 l 106 854 l 106 747 l 320 747 z "},"(":{"ha":961,"x_min":193,"x_max":661,"o":"m 407 -20 l 407 86 l 300 86 l 300 193 l 193 193 l 193 875 l 300 875 l 300 981 l 407 981 l 407 1088 l 661 1088 l 661 941 l 554 941 l 554 834 l 448 834 l 448 234 l 554 234 l 554 127 l 661 127 l 661 -20 l 407 -20 m 641 0 l 641 106 l 534 106 l 534 214 l 427 214 l 427 854 l 534 854 l 534 961 l 641 961 l 641 1068 l 427 1068 l 427 961 l 320 961 l 320 854 l 214 854 l 214 214 l 320 214 l 320 106 l 427 106 l 427 0 l 641 0 z "},")":{"ha":961,"x_min":193,"x_max":661,"o":"m 193 -20 l 193 127 l 300 127 l 300 234 l 407 234 l 407 834 l 300 834 l 300 941 l 193 941 l 193 1088 l 448 1088 l 448 981 l 554 981 l 554 875 l 661 875 l 661 193 l 554 193 l 554 86 l 448 86 l 448 -20 l 193 -20 m 427 0 l 427 106 l 534 106 l 534 214 l 641 214 l 641 854 l 534 854 l 534 961 l 427 961 l 427 1068 l 214 1068 l 214 961 l 320 961 l 320 854 l 427 854 l 427 214 l 320 214 l 320 106 l 214 106 l 214 0 l 427 0 z "},"*":{"ha":961,"x_min":-20,"x_max":875,"o":"m 86 193 l 86 340 l 193 340 l 193 407 l -20 407 l -20 554 l 193 554 l 193 621 l 86 621 l 86 768 l 340 768 l 340 661 l 513 661 l 513 768 l 768 768 l 768 621 l 661 621 l 661 554 l 875 554 l 875 407 l 661 407 l 661 340 l 768 340 l 768 193 l 513 193 l 513 300 l 340 300 l 340 193 l 86 193 m 320 214 l 320 320 l 534 320 l 534 214 l 747 214 l 747 320 l 641 320 l 641 427 l 854 427 l 854 534 l 641 534 l 641 641 l 747 641 l 747 747 l 534 747 l 534 641 l 320 641 l 320 747 l 106 747 l 106 641 l 214 641 l 214 534 l 0 534 l 0 427 l 214 427 l 214 320 l 106 320 l 106 214 l 320 214 z "},"+":{"ha":961,"x_min":86,"x_max":768,"o":"m 300 193 l 300 407 l 86 407 l 86 554 l 300 554 l 300 768 l 554 768 l 554 554 l 768 554 l 768 407 l 554 407 l 554 193 l 300 193 m 534 214 l 534 427 l 747 427 l 747 534 l 534 534 l 534 747 l 320 747 l 320 534 l 106 534 l 106 427 l 320 427 l 320 214 l 534 214 z "},",":{"ha":961,"x_min":193,"x_max":554,"o":"m 193 -127 l 193 20 l 300 20 l 300 340 l 554 340 l 554 -20 l 448 -20 l 448 -127 l 193 -127 m 427 -106 l 427 0 l 534 0 l 534 320 l 320 320 l 320 0 l 214 0 l 214 -106 l 427 -106 z "},"-":{"ha":961,"x_min":-20,"x_max":768,"o":"m -20 407 l -20 554 l 768 554 l 768 407 l -20 407 m 747 427 l 747 534 l 0 534 l 0 427 l 747 427 z "},".":{"ha":961,"x_min":300,"x_max":554,"o":"m 300 -20 l 300 234 l 554 234 l 554 -20 l 300 -20 m 534 0 l 534 214 l 320 214 l 320 0 l 534 0 z "},"/":{"ha":961,"x_min":-20,"x_max":768,"o":"m -20 -20 l -20 234 l 86 234 l 86 340 l 193 340 l 193 448 l 300 448 l 300 554 l 407 554 l 407 661 l 513 661 l 513 768 l 621 768 l 621 875 l 768 875 l 768 621 l 661 621 l 661 513 l 554 513 l 554 407 l 448 407 l 448 300 l 340 300 l 340 193 l 234 193 l 234 86 l 127 86 l 127 -20 l -20 -20 m 106 0 l 106 106 l 214 106 l 214 214 l 320 214 l 320 320 l 427 320 l 427 427 l 534 427 l 534 534 l 641 534 l 641 641 l 747 641 l 747 854 l 641 854 l 641 747 l 534 747 l 534 641 l 427 641 l 427 534 l 320 534 l 320 427 l 214 427 l 214 320 l 106 320 l 106 214 l 0 214 l 0 0 l 106 0 z "},":":{"ha":961,"x_min":300,"x_max":554,"o":"m 300 621 l 300 875 l 554 875 l 554 621 l 300 621 m 300 86 l 300 340 l 554 340 l 554 86 l 300 86 m 534 106 l 534 320 l 320 320 l 320 106 l 534 106 m 534 641 l 534 854 l 320 854 l 320 641 l 534 641 z "},";":{"ha":961,"x_min":193,"x_max":554,"o":"m 300 621 l 300 875 l 554 875 l 554 621 l 300 621 m 193 -20 l 193 127 l 300 127 l 300 340 l 554 340 l 554 86 l 448 86 l 448 -20 l 193 -20 m 427 0 l 427 106 l 534 106 l 534 320 l 320 320 l 320 106 l 214 106 l 214 0 l 427 0 m 534 641 l 534 854 l 320 854 l 320 641 l 534 641 z "},"<":{"ha":961,"x_min":86,"x_max":768,"o":"m 513 -20 l 513 86 l 407 86 l 407 193 l 300 193 l 300 300 l 193 300 l 193 407 l 86 407 l 86 554 l 193 554 l 193 661 l 300 661 l 300 768 l 407 768 l 407 875 l 513 875 l 513 981 l 768 981 l 768 834 l 661 834 l 661 727 l 554 727 l 554 621 l 448 621 l 448 513 l 340 513 l 340 448 l 448 448 l 448 340 l 554 340 l 554 234 l 661 234 l 661 127 l 768 127 l 768 -20 l 513 -20 m 747 0 l 747 106 l 641 106 l 641 214 l 534 214 l 534 320 l 427 320 l 427 427 l 320 427 l 320 534 l 427 534 l 427 641 l 534 641 l 534 747 l 641 747 l 641 854 l 747 854 l 747 961 l 534 961 l 534 854 l 427 854 l 427 747 l 320 747 l 320 641 l 214 641 l 214 534 l 106 534 l 106 427 l 214 427 l 214 320 l 320 320 l 320 214 l 427 214 l 427 106 l 534 106 l 534 0 l 747 0 z "},"=":{"ha":961,"x_min":86,"x_max":768,"o":"m 86 621 l 86 768 l 768 768 l 768 621 l 86 621 m 86 300 l 86 448 l 768 448 l 768 300 l 86 300 m 747 320 l 747 427 l 106 427 l 106 320 l 747 320 m 747 641 l 747 747 l 106 747 l 106 641 l 747 641 z "},">":{"ha":961,"x_min":86,"x_max":768,"o":"m 86 -20 l 86 127 l 193 127 l 193 234 l 300 234 l 300 340 l 407 340 l 407 448 l 513 448 l 513 513 l 407 513 l 407 621 l 300 621 l 300 727 l 193 727 l 193 834 l 86 834 l 86 981 l 340 981 l 340 875 l 448 875 l 448 768 l 554 768 l 554 661 l 661 661 l 661 554 l 768 554 l 768 407 l 661 407 l 661 300 l 554 300 l 554 193 l 448 193 l 448 86 l 340 86 l 340 -20 l 86 -20 m 320 0 l 320 106 l 427 106 l 427 214 l 534 214 l 534 320 l 641 320 l 641 427 l 747 427 l 747 534 l 641 534 l 641 641 l 534 641 l 534 747 l 427 747 l 427 854 l 320 854 l 320 961 l 106 961 l 106 854 l 214 854 l 214 747 l 320 747 l 320 641 l 427 641 l 427 534 l 534 534 l 534 427 l 427 427 l 427 320 l 320 320 l 320 214 l 214 214 l 214 106 l 106 106 l 106 0 l 320 0 z "},"?":{"ha":961,"x_min":-20,"x_max":768,"o":"m 300 300 l 300 661 l 407 661 l 407 768 l 513 768 l 513 941 l 234 941 l 234 727 l -20 727 l -20 981 l 86 981 l 86 1088 l 661 1088 l 661 981 l 768 981 l 768 727 l 661 727 l 661 621 l 554 621 l 554 300 l 300 300 m 300 -20 l 300 234 l 554 234 l 554 -20 l 300 -20 m 534 0 l 534 214 l 320 214 l 320 0 l 534 0 m 534 320 l 534 641 l 641 641 l 641 747 l 747 747 l 747 961 l 641 961 l 641 1068 l 106 1068 l 106 961 l 0 961 l 0 747 l 214 747 l 214 961 l 534 961 l 534 747 l 427 747 l 427 641 l 320 641 l 320 320 l 534 320 z "},"@":{"ha":961,"x_min":-20,"x_max":768,"o":"m 86 -20 l 86 86 l -20 86 l -20 875 l 86 875 l 86 981 l 661 981 l 661 875 l 768 875 l 768 300 l 661 300 l 661 193 l 300 193 l 300 661 l 513 661 l 513 834 l 234 834 l 234 127 l 661 127 l 661 -20 l 86 -20 m 641 0 l 641 106 l 214 106 l 214 854 l 534 854 l 534 641 l 320 641 l 320 214 l 641 214 l 641 320 l 747 320 l 747 854 l 641 854 l 641 961 l 106 961 l 106 854 l 0 854 l 0 106 l 106 106 l 106 0 l 641 0 z "},"A":{"ha":961,"x_min":-20,"x_max":768,"o":"m -20 -20 l -20 768 l 86 768 l 86 875 l 193 875 l 193 981 l 300 981 l 300 1088 l 448 1088 l 448 981 l 554 981 l 554 875 l 661 875 l 661 768 l 768 768 l 768 -20 l 513 -20 l 513 407 l 234 407 l 234 -20 l -20 -20 m 513 554 l 513 727 l 407 727 l 407 834 l 340 834 l 340 727 l 234 727 l 234 554 l 513 554 m 214 534 l 214 747 l 320 747 l 320 854 l 427 854 l 427 747 l 534 747 l 534 534 l 214 534 m 214 0 l 214 427 l 534 427 l 534 0 l 747 0 l 747 747 l 641 747 l 641 854 l 534 854 l 534 961 l 427 961 l 427 1068 l 320 1068 l 320 961 l 214 961 l 214 854 l 106 854 l 106 747 l 0 747 l 0 0 l 214 0 z "},"B":{"ha":961,"x_min":-20,"x_max":768,"o":"m -20 -20 l -20 127 l 86 127 l 86 941 l -20 941 l -20 1088 l 661 1088 l 661 981 l 768 981 l 768 621 l 661 621 l 661 554 l 768 554 l 768 86 l 661 86 l 661 -20 l -20 -20 m 513 661 l 513 941 l 340 941 l 340 661 l 513 661 m 513 127 l 513 513 l 340 513 l 340 127 l 513 127 m 320 106 l 320 534 l 534 534 l 534 106 l 320 106 m 320 641 l 320 961 l 534 961 l 534 641 l 320 641 m 641 0 l 641 106 l 747 106 l 747 534 l 641 534 l 641 641 l 747 641 l 747 961 l 641 961 l 641 1068 l 0 1068 l 0 961 l 106 961 l 106 106 l 0 106 l 0 0 l 641 0 z "},"C":{"ha":961,"x_min":-20,"x_max":768,"o":"m 193 -20 l 193 86 l 86 86 l 86 193 l -20 193 l -20 875 l 86 875 l 86 981 l 193 981 l 193 1088 l 661 1088 l 661 981 l 768 981 l 768 727 l 621 727 l 621 834 l 513 834 l 513 941 l 340 941 l 340 834 l 234 834 l 234 234 l 340 234 l 340 127 l 513 127 l 513 234 l 621 234 l 621 340 l 768 340 l 768 86 l 661 86 l 661 -20 l 193 -20 m 641 0 l 641 106 l 747 106 l 747 320 l 641 320 l 641 214 l 534 214 l 534 106 l 320 106 l 320 214 l 214 214 l 214 854 l 320 854 l 320 961 l 534 961 l 534 854 l 641 854 l 641 747 l 747 747 l 747 961 l 641 961 l 641 1068 l 214 1068 l 214 961 l 106 961 l 106 854 l 0 854 l 0 214 l 106 214 l 106 106 l 214 106 l 214 0 l 641 0 z "},"D":{"ha":961,"x_min":-20,"x_max":768,"o":"m -20 -20 l -20 127 l 86 127 l 86 941 l -20 941 l -20 1088 l 554 1088 l 554 981 l 661 981 l 661 875 l 768 875 l 768 193 l 661 193 l 661 86 l 554 86 l 554 -20 l -20 -20 m 407 127 l 407 234 l 513 234 l 513 834 l 407 834 l 407 941 l 340 941 l 340 127 l 407 127 m 320 106 l 320 961 l 427 961 l 427 854 l 534 854 l 534 214 l 427 214 l 427 106 l 320 106 m 534 0 l 534 106 l 641 106 l 641 214 l 747 214 l 747 854 l 641 854 l 641 961 l 534 961 l 534 1068 l 0 1068 l 0 961 l 106 961 l 106 106 l 0 106 l 0 0 l 534 0 z "},"E":{"ha":961,"x_min":-20,"x_max":768,"o":"m -20 -20 l -20 127 l 86 127 l 86 941 l -20 941 l -20 1088 l 768 1088 l 768 727 l 621 727 l 621 834 l 513 834 l 513 941 l 340 941 l 340 661 l 407 661 l 407 768 l 554 768 l 554 407 l 407 407 l 407 513 l 340 513 l 340 127 l 513 127 l 513 234 l 621 234 l 621 340 l 768 340 l 768 -20 l -20 -20 m 747 0 l 747 320 l 641 320 l 641 214 l 534 214 l 534 106 l 320 106 l 320 534 l 427 534 l 427 427 l 534 427 l 534 747 l 427 747 l 427 641 l 320 641 l 320 961 l 534 961 l 534 854 l 641 854 l 641 747 l 747 747 l 747 1068 l 0 1068 l 0 961 l 106 961 l 106 106 l 0 106 l 0 0 l 747 0 z "},"F":{"ha":961,"x_min":-20,"x_max":768,"o":"m -20 -20 l -20 127 l 86 127 l 86 941 l -20 941 l -20 1088 l 768 1088 l 768 727 l 621 727 l 621 834 l 513 834 l 513 941 l 340 941 l 340 661 l 407 661 l 407 768 l 554 768 l 554 407 l 407 407 l 407 513 l 340 513 l 340 127 l 448 127 l 448 -20 l -20 -20 m 427 0 l 427 106 l 320 106 l 320 534 l 427 534 l 427 427 l 534 427 l 534 747 l 427 747 l 427 641 l 320 641 l 320 961 l 534 961 l 534 854 l 641 854 l 641 747 l 747 747 l 747 1068 l 0 1068 l 0 961 l 106 961 l 106 106 l 0 106 l 0 0 l 427 0 z "},"G":{"ha":961,"x_min":-20,"x_max":768,"o":"m 193 -20 l 193 86 l 86 86 l 86 193 l -20 193 l -20 875 l 86 875 l 86 981 l 193 981 l 193 1088 l 661 1088 l 661 981 l 768 981 l 768 727 l 621 727 l 621 834 l 513 834 l 513 941 l 340 941 l 340 834 l 234 834 l 234 234 l 340 234 l 340 127 l 513 127 l 513 407 l 300 407 l 300 554 l 768 554 l 768 -20 l 621 -20 l 621 86 l 554 86 l 554 -20 l 193 -20 m 534 0 l 534 106 l 641 106 l 641 0 l 747 0 l 747 534 l 320 534 l 320 427 l 534 427 l 534 106 l 320 106 l 320 214 l 214 214 l 214 854 l 320 854 l 320 961 l 534 961 l 534 854 l 641 854 l 641 747 l 747 747 l 747 961 l 641 961 l 641 1068 l 214 1068 l 214 961 l 106 961 l 106 854 l 0 854 l 0 214 l 106 214 l 106 106 l 214 106 l 214 0 l 534 0 z "},"H":{"ha":961,"x_min":-20,"x_max":768,"o":"m -20 -20 l -20 1088 l 234 1088 l 234 661 l 513 661 l 513 1088 l 768 1088 l 768 -20 l 513 -20 l 513 513 l 234 513 l 234 -20 l -20 -20 m 214 0 l 214 534 l 534 534 l 534 0 l 747 0 l 747 1068 l 534 1068 l 534 641 l 214 641 l 214 1068 l 0 1068 l 0 0 l 214 0 z "},"I":{"ha":961,"x_min":193,"x_max":661,"o":"m 193 -20 l 193 127 l 300 127 l 300 941 l 193 941 l 193 1088 l 661 1088 l 661 941 l 554 941 l 554 127 l 661 127 l 661 -20 l 193 -20 m 641 0 l 641 106 l 534 106 l 534 961 l 641 961 l 641 1068 l 214 1068 l 214 961 l 320 961 l 320 106 l 214 106 l 214 0 l 641 0 z "},"J":{"ha":961,"x_min":-20,"x_max":768,"o":"m 86 -20 l 86 86 l -20 86 l -20 448 l 234 448 l 234 127 l 407 127 l 407 941 l 300 941 l 300 1088 l 768 1088 l 768 941 l 661 941 l 661 86 l 554 86 l 554 -20 l 86 -20 m 534 0 l 534 106 l 641 106 l 641 961 l 747 961 l 747 1068 l 320 1068 l 320 961 l 427 961 l 427 106 l 214 106 l 214 427 l 0 427 l 0 106 l 106 106 l 106 0 l 534 0 z "},"K":{"ha":961,"x_min":-20,"x_max":768,"o":"m -20 -20 l -20 127 l 86 127 l 86 941 l -20 941 l -20 1088 l 340 1088 l 340 661 l 407 661 l 407 768 l 513 768 l 513 1088 l 768 1088 l 768 727 l 661 727 l 661 621 l 554 621 l 554 448 l 661 448 l 661 340 l 768 340 l 768 -20 l 513 -20 l 513 300 l 407 300 l 407 407 l 340 407 l 340 -20 l -20 -20 m 320 0 l 320 427 l 427 427 l 427 320 l 534 320 l 534 0 l 747 0 l 747 320 l 641 320 l 641 427 l 534 427 l 534 641 l 641 641 l 641 747 l 747 747 l 747 1068 l 534 1068 l 534 747 l 427 747 l 427 641 l 320 641 l 320 1068 l 0 1068 l 0 961 l 106 961 l 106 106 l 0 106 l 0 0 l 320 0 z "},"L":{"ha":961,"x_min":-20,"x_max":768,"o":"m -20 -20 l -20 127 l 86 127 l 86 941 l -20 941 l -20 1088 l 448 1088 l 448 941 l 340 941 l 340 127 l 513 127 l 513 234 l 621 234 l 621 340 l 768 340 l 768 -20 l -20 -20 m 747 0 l 747 320 l 641 320 l 641 214 l 534 214 l 534 106 l 320 106 l 320 961 l 427 961 l 427 1068 l 0 1068 l 0 961 l 106 961 l 106 106 l 0 106 l 0 0 l 747 0 z "},"M":{"ha":961,"x_min":-20,"x_max":875,"o":"m -20 -20 l -20 1088 l 234 1088 l 234 981 l 340 981 l 340 875 l 513 875 l 513 981 l 621 981 l 621 1088 l 875 1088 l 875 -20 l 621 -20 l 621 621 l 554 621 l 554 513 l 300 513 l 300 621 l 234 621 l 234 -20 l -20 -20 m 214 0 l 214 641 l 320 641 l 320 534 l 534 534 l 534 641 l 641 641 l 641 0 l 854 0 l 854 1068 l 641 1068 l 641 961 l 534 961 l 534 854 l 320 854 l 320 961 l 214 961 l 214 1068 l 0 1068 l 0 0 l 214 0 z "},"N":{"ha":961,"x_min":-20,"x_max":768,"o":"m -20 -20 l -20 1088 l 234 1088 l 234 981 l 340 981 l 340 875 l 448 875 l 448 768 l 513 768 l 513 1088 l 768 1088 l 768 -20 l 513 -20 l 513 407 l 407 407 l 407 513 l 300 513 l 300 621 l 234 621 l 234 -20 l -20 -20 m 214 0 l 214 641 l 320 641 l 320 534 l 427 534 l 427 427 l 534 427 l 534 0 l 747 0 l 747 1068 l 534 1068 l 534 747 l 427 747 l 427 854 l 320 854 l 320 961 l 214 961 l 214 1068 l 0 1068 l 0 0 l 214 0 z "},"O":{"ha":961,"x_min":-20,"x_max":768,"o":"m 86 -20 l 86 86 l -20 86 l -20 981 l 86 981 l 86 1088 l 661 1088 l 661 981 l 768 981 l 768 86 l 661 86 l 661 -20 l 86 -20 m 513 127 l 513 941 l 234 941 l 234 127 l 513 127 m 214 106 l 214 961 l 534 961 l 534 106 l 214 106 m 641 0 l 641 106 l 747 106 l 747 961 l 641 961 l 641 1068 l 106 1068 l 106 961 l 0 961 l 0 106 l 106 106 l 106 0 l 641 0 z "},"P":{"ha":961,"x_min":-20,"x_max":768,"o":"m -20 -20 l -20 127 l 86 127 l 86 941 l -20 941 l -20 1088 l 661 1088 l 661 981 l 768 981 l 768 621 l 661 621 l 661 513 l 340 513 l 340 127 l 448 127 l 448 -20 l -20 -20 m 513 661 l 513 941 l 340 941 l 340 661 l 513 661 m 320 641 l 320 961 l 534 961 l 534 641 l 320 641 m 427 0 l 427 106 l 320 106 l 320 534 l 641 534 l 641 641 l 747 641 l 747 961 l 641 961 l 641 1068 l 0 1068 l 0 961 l 106 961 l 106 106 l 0 106 l 0 0 l 427 0 z "},"Q":{"ha":961,"x_min":-20,"x_max":768,"o":"m 407 -234 l 407 -20 l 86 -20 l 86 86 l -20 86 l -20 981 l 86 981 l 86 1088 l 661 1088 l 661 981 l 768 981 l 768 86 l 661 86 l 661 -86 l 768 -86 l 768 -234 l 407 -234 m 300 127 l 300 340 l 448 340 l 448 234 l 513 234 l 513 941 l 234 941 l 234 127 l 300 127 m 214 106 l 214 961 l 534 961 l 534 214 l 427 214 l 427 320 l 320 320 l 320 106 l 214 106 m 747 -214 l 747 -106 l 641 -106 l 641 106 l 747 106 l 747 961 l 641 961 l 641 1068 l 106 1068 l 106 961 l 0 961 l 0 106 l 106 106 l 106 0 l 427 0 l 427 -214 l 747 -214 z "},"R":{"ha":961,"x_min":-20,"x_max":768,"o":"m -20 -20 l -20 127 l 86 127 l 86 941 l -20 941 l -20 1088 l 661 1088 l 661 981 l 768 981 l 768 621 l 661 621 l 661 448 l 768 448 l 768 -20 l 513 -20 l 513 407 l 407 407 l 407 513 l 340 513 l 340 -20 l -20 -20 m 513 661 l 513 941 l 340 941 l 340 661 l 513 661 m 320 641 l 320 961 l 534 961 l 534 641 l 320 641 m 320 0 l 320 534 l 427 534 l 427 427 l 534 427 l 534 0 l 747 0 l 747 427 l 641 427 l 641 641 l 747 641 l 747 961 l 641 961 l 641 1068 l 0 1068 l 0 961 l 106 961 l 106 106 l 0 106 l 0 0 l 320 0 z "},"S":{"ha":961,"x_min":-20,"x_max":768,"o":"m 86 -20 l 86 86 l -20 86 l -20 340 l 234 340 l 234 127 l 513 127 l 513 407 l 407 407 l 407 513 l 193 513 l 193 621 l 86 621 l 86 727 l -20 727 l -20 981 l 86 981 l 86 1088 l 661 1088 l 661 981 l 768 981 l 768 727 l 513 727 l 513 941 l 234 941 l 234 768 l 340 768 l 340 661 l 554 661 l 554 554 l 661 554 l 661 448 l 768 448 l 768 86 l 661 86 l 661 -20 l 86 -20 m 641 0 l 641 106 l 747 106 l 747 427 l 641 427 l 641 534 l 534 534 l 534 641 l 320 641 l 320 747 l 214 747 l 214 961 l 534 961 l 534 747 l 747 747 l 747 961 l 641 961 l 641 1068 l 106 1068 l 106 961 l 0 961 l 0 747 l 106 747 l 106 641 l 214 641 l 214 534 l 427 534 l 427 427 l 534 427 l 534 106 l 214 106 l 214 320 l 0 320 l 0 106 l 106 106 l 106 0 l 641 0 z "},"T":{"ha":961,"x_min":-20,"x_max":875,"o":"m 193 -20 l 193 127 l 300 127 l 300 941 l 234 941 l 234 834 l 127 834 l 127 727 l -20 727 l -20 1088 l 875 1088 l 875 727 l 727 727 l 727 834 l 621 834 l 621 941 l 554 941 l 554 127 l 661 127 l 661 -20 l 193 -20 m 641 0 l 641 106 l 534 106 l 534 961 l 641 961 l 641 854 l 747 854 l 747 747 l 854 747 l 854 1068 l 0 1068 l 0 747 l 106 747 l 106 854 l 214 854 l 214 961 l 320 961 l 320 106 l 214 106 l 214 0 l 641 0 z "},"U":{"ha":961,"x_min":-20,"x_max":768,"o":"m 86 -20 l 86 86 l -20 86 l -20 1088 l 234 1088 l 234 127 l 513 127 l 513 1088 l 768 1088 l 768 86 l 661 86 l 661 -20 l 86 -20 m 641 0 l 641 106 l 747 106 l 747 1068 l 534 1068 l 534 106 l 214 106 l 214 1068 l 0 1068 l 0 106 l 106 106 l 106 0 l 641 0 z "},"V":{"ha":961,"x_min":-20,"x_max":875,"o":"m 300 -20 l 300 86 l 193 86 l 193 193 l 86 193 l 86 300 l -20 300 l -20 1088 l 234 1088 l 234 340 l 340 340 l 340 234 l 513 234 l 513 340 l 621 340 l 621 1088 l 875 1088 l 875 300 l 768 300 l 768 193 l 661 193 l 661 86 l 554 86 l 554 -20 l 300 -20 m 534 0 l 534 106 l 641 106 l 641 214 l 747 214 l 747 320 l 854 320 l 854 1068 l 641 1068 l 641 320 l 534 320 l 534 214 l 320 214 l 320 320 l 214 320 l 214 1068 l 0 1068 l 0 320 l 106 320 l 106 214 l 214 214 l 214 106 l 320 106 l 320 0 l 534 0 z "},"W":{"ha":961,"x_min":-20,"x_max":875,"o":"m 86 -20 l 86 193 l -20 193 l -20 1088 l 234 1088 l 234 340 l 300 340 l 300 554 l 554 554 l 554 340 l 621 340 l 621 1088 l 875 1088 l 875 193 l 768 193 l 768 -20 l 513 -20 l 513 193 l 340 193 l 340 -20 l 86 -20 m 320 0 l 320 214 l 534 214 l 534 0 l 747 0 l 747 214 l 854 214 l 854 1068 l 641 1068 l 641 320 l 534 320 l 534 534 l 320 534 l 320 320 l 214 320 l 214 1068 l 0 1068 l 0 214 l 106 214 l 106 0 l 320 0 z "},"X":{"ha":961,"x_min":-20,"x_max":875,"o":"m -20 -20 l -20 234 l 86 234 l 86 340 l 193 340 l 193 448 l 300 448 l 300 621 l 193 621 l 193 727 l 86 727 l 86 834 l -20 834 l -20 1088 l 234 1088 l 234 875 l 340 875 l 340 768 l 513 768 l 513 875 l 621 875 l 621 1088 l 875 1088 l 875 834 l 768 834 l 768 727 l 661 727 l 661 621 l 554 621 l 554 448 l 661 448 l 661 340 l 768 340 l 768 234 l 875 234 l 875 -20 l 621 -20 l 621 193 l 513 193 l 513 300 l 340 300 l 340 193 l 234 193 l 234 -20 l -20 -20 m 214 0 l 214 214 l 320 214 l 320 320 l 534 320 l 534 214 l 641 214 l 641 0 l 854 0 l 854 214 l 747 214 l 747 320 l 641 320 l 641 427 l 534 427 l 534 641 l 641 641 l 641 747 l 747 747 l 747 854 l 854 854 l 854 1068 l 641 1068 l 641 854 l 534 854 l 534 747 l 320 747 l 320 854 l 214 854 l 214 1068 l 0 1068 l 0 854 l 106 854 l 106 747 l 214 747 l 214 641 l 320 641 l 320 427 l 214 427 l 214 320 l 106 320 l 106 214 l 0 214 l 0 0 l 214 0 z "},"Y":{"ha":961,"x_min":-20,"x_max":875,"o":"m 193 -20 l 193 127 l 300 127 l 300 513 l 193 513 l 193 621 l 86 621 l 86 727 l -20 727 l -20 1088 l 234 1088 l 234 768 l 340 768 l 340 661 l 513 661 l 513 768 l 621 768 l 621 1088 l 875 1088 l 875 727 l 768 727 l 768 621 l 661 621 l 661 513 l 554 513 l 554 127 l 661 127 l 661 -20 l 193 -20 m 641 0 l 641 106 l 534 106 l 534 534 l 641 534 l 641 641 l 747 641 l 747 747 l 854 747 l 854 1068 l 641 1068 l 641 747 l 534 747 l 534 641 l 320 641 l 320 747 l 214 747 l 214 1068 l 0 1068 l 0 747 l 106 747 l 106 641 l 214 641 l 214 534 l 320 534 l 320 106 l 214 106 l 214 0 l 641 0 z "},"Z":{"ha":961,"x_min":-20,"x_max":875,"o":"m -20 -20 l -20 340 l 86 340 l 86 448 l 193 448 l 193 554 l 300 554 l 300 661 l 407 661 l 407 768 l 513 768 l 513 875 l 621 875 l 621 941 l 234 941 l 234 834 l 127 834 l 127 727 l -20 727 l -20 1088 l 875 1088 l 875 834 l 768 834 l 768 727 l 661 727 l 661 621 l 554 621 l 554 513 l 448 513 l 448 407 l 340 407 l 340 300 l 234 300 l 234 127 l 621 127 l 621 234 l 727 234 l 727 340 l 875 340 l 875 -20 l -20 -20 m 854 0 l 854 320 l 747 320 l 747 214 l 641 214 l 641 106 l 214 106 l 214 320 l 320 320 l 320 427 l 427 427 l 427 534 l 534 534 l 534 641 l 641 641 l 641 747 l 747 747 l 747 854 l 854 854 l 854 1068 l 0 1068 l 0 747 l 106 747 l 106 854 l 214 854 l 214 961 l 641 961 l 641 854 l 534 854 l 534 747 l 427 747 l 427 641 l 320 641 l 320 534 l 214 534 l 214 427 l 106 427 l 106 320 l 0 320 l 0 0 l 854 0 z "},"[":{"ha":961,"x_min":193,"x_max":661,"o":"m 193 -20 l 193 1088 l 661 1088 l 661 941 l 448 941 l 448 127 l 661 127 l 661 -20 l 193 -20 m 641 0 l 641 106 l 427 106 l 427 961 l 641 961 l 641 1068 l 214 1068 l 214 0 l 641 0 z "},"\\":{"ha":961,"x_min":-20,"x_max":768,"o":"m 621 -20 l 621 86 l 513 86 l 513 193 l 407 193 l 407 300 l 300 300 l 300 407 l 193 407 l 193 513 l 86 513 l 86 621 l -20 621 l -20 981 l 127 981 l 127 875 l 234 875 l 234 768 l 340 768 l 340 661 l 448 661 l 448 554 l 554 554 l 554 448 l 661 448 l 661 340 l 768 340 l 768 -20 l 621 -20 m 747 0 l 747 320 l 641 320 l 641 427 l 534 427 l 534 534 l 427 534 l 427 641 l 320 641 l 320 747 l 214 747 l 214 854 l 106 854 l 106 961 l 0 961 l 0 641 l 106 641 l 106 534 l 214 534 l 214 427 l 320 427 l 320 320 l 427 320 l 427 214 l 534 214 l 534 106 l 641 106 l 641 0 l 747 0 z "},"]":{"ha":961,"x_min":193,"x_max":661,"o":"m 193 -20 l 193 127 l 407 127 l 407 941 l 193 941 l 193 1088 l 661 1088 l 661 -20 l 193 -20 m 641 0 l 641 1068 l 214 1068 l 214 961 l 427 961 l 427 106 l 214 106 l 214 0 l 641 0 z "},"^":{"ha":961,"x_min":-20,"x_max":768,"o":"m -20 834 l -20 981 l 86 981 l 86 1088 l 193 1088 l 193 1195 l 300 1195 l 300 1302 l 448 1302 l 448 1195 l 554 1195 l 554 1088 l 661 1088 l 661 981 l 768 981 l 768 834 l 513 834 l 513 941 l 407 941 l 407 1048 l 340 1048 l 340 941 l 234 941 l 234 834 l -20 834 m 214 854 l 214 961 l 320 961 l 320 1068 l 427 1068 l 427 961 l 534 961 l 534 854 l 747 854 l 747 961 l 641 961 l 641 1068 l 534 1068 l 534 1175 l 427 1175 l 427 1282 l 320 1282 l 320 1175 l 214 1175 l 214 1068 l 106 1068 l 106 961 l 0 961 l 0 854 l 214 854 z "},"_":{"ha":961,"x_min":-20,"x_max":875,"o":"m -20 -234 l -20 -86 l 875 -86 l 875 -234 l -20 -234 m 854 -214 l 854 -106 l 0 -106 l 0 -214 l 854 -214 z "},"`":{"ha":961,"x_min":193,"x_max":554,"o":"m 300 941 l 300 1048 l 193 1048 l 193 1302 l 448 1302 l 448 1088 l 554 1088 l 554 941 l 300 941 m 534 961 l 534 1068 l 427 1068 l 427 1282 l 214 1282 l 214 1068 l 320 1068 l 320 961 l 534 961 z "},"a":{"ha":961,"x_min":-20,"x_max":768,"o":"m 86 -20 l 86 86 l -20 86 l -20 448 l 86 448 l 86 554 l 407 554 l 407 621 l 86 621 l 86 768 l 554 768 l 554 661 l 661 661 l 661 127 l 768 127 l 768 -20 l 513 -20 l 513 86 l 448 86 l 448 -20 l 86 -20 m 407 127 l 407 407 l 234 407 l 234 127 l 407 127 m 214 106 l 214 427 l 427 427 l 427 106 l 214 106 m 427 0 l 427 106 l 534 106 l 534 0 l 747 0 l 747 106 l 641 106 l 641 641 l 534 641 l 534 747 l 106 747 l 106 641 l 427 641 l 427 534 l 106 534 l 106 427 l 0 427 l 0 106 l 106 106 l 106 0 l 427 0 z "},"b":{"ha":961,"x_min":-20,"x_max":768,"o":"m 86 -20 l 86 941 l -20 941 l -20 1088 l 340 1088 l 340 768 l 554 768 l 554 661 l 661 661 l 661 554 l 768 554 l 768 86 l 661 86 l 661 -20 l 86 -20 m 513 127 l 513 513 l 407 513 l 407 621 l 340 621 l 340 127 l 513 127 m 320 106 l 320 641 l 427 641 l 427 534 l 534 534 l 534 106 l 320 106 m 641 0 l 641 106 l 747 106 l 747 534 l 641 534 l 641 641 l 534 641 l 534 747 l 320 747 l 320 1068 l 0 1068 l 0 961 l 106 961 l 106 0 l 641 0 z "},"c":{"ha":961,"x_min":-20,"x_max":768,"o":"m 86 -20 l 86 86 l -20 86 l -20 661 l 86 661 l 86 768 l 661 768 l 661 661 l 768 661 l 768 513 l 513 513 l 513 621 l 234 621 l 234 127 l 513 127 l 513 234 l 768 234 l 768 86 l 661 86 l 661 -20 l 86 -20 m 641 0 l 641 106 l 747 106 l 747 214 l 534 214 l 534 106 l 214 106 l 214 641 l 534 641 l 534 534 l 747 534 l 747 641 l 641 641 l 641 747 l 106 747 l 106 641 l 0 641 l 0 106 l 106 106 l 106 0 l 641 0 z "},"d":{"ha":961,"x_min":-20,"x_max":768,"o":"m 86 -20 l 86 86 l -20 86 l -20 554 l 86 554 l 86 661 l 193 661 l 193 768 l 407 768 l 407 941 l 300 941 l 300 1088 l 661 1088 l 661 127 l 768 127 l 768 -20 l 513 -20 l 513 86 l 448 86 l 448 -20 l 86 -20 m 407 127 l 407 621 l 340 621 l 340 513 l 234 513 l 234 127 l 407 127 m 214 106 l 214 534 l 320 534 l 320 641 l 427 641 l 427 106 l 214 106 m 427 0 l 427 106 l 534 106 l 534 0 l 747 0 l 747 106 l 641 106 l 641 1068 l 320 1068 l 320 961 l 427 961 l 427 747 l 214 747 l 214 641 l 106 641 l 106 534 l 0 534 l 0 106 l 106 106 l 106 0 l 427 0 z "},"e":{"ha":961,"x_min":-20,"x_max":768,"o":"m 86 -20 l 86 86 l -20 86 l -20 661 l 86 661 l 86 768 l 661 768 l 661 661 l 768 661 l 768 407 l 234 407 l 234 127 l 513 127 l 513 234 l 768 234 l 768 86 l 661 86 l 661 -20 l 86 -20 m 513 554 l 513 621 l 234 621 l 234 554 l 513 554 m 214 534 l 214 641 l 534 641 l 534 534 l 214 534 m 641 0 l 641 106 l 747 106 l 747 214 l 534 214 l 534 106 l 214 106 l 214 427 l 747 427 l 747 641 l 641 641 l 641 747 l 106 747 l 106 641 l 0 641 l 0 106 l 106 106 l 106 0 l 641 0 z "},"f":{"ha":961,"x_min":-20,"x_max":661,"o":"m -20 -20 l -20 127 l 86 127 l 86 513 l -20 513 l -20 661 l 86 661 l 86 981 l 193 981 l 193 1088 l 554 1088 l 554 981 l 661 981 l 661 727 l 513 727 l 513 834 l 407 834 l 407 941 l 340 941 l 340 661 l 448 661 l 448 513 l 340 513 l 340 127 l 448 127 l 448 -20 l -20 -20 m 427 0 l 427 106 l 320 106 l 320 534 l 427 534 l 427 641 l 320 641 l 320 961 l 427 961 l 427 854 l 534 854 l 534 747 l 641 747 l 641 961 l 534 961 l 534 1068 l 214 1068 l 214 961 l 106 961 l 106 641 l 0 641 l 0 534 l 106 534 l 106 106 l 0 106 l 0 0 l 427 0 z "},"g":{"ha":961,"x_min":-20,"x_max":768,"o":"m 86 -340 l 86 -234 l -20 -234 l -20 -86 l 234 -86 l 234 -193 l 407 -193 l 407 -20 l 86 -20 l 86 86 l -20 86 l -20 661 l 86 661 l 86 768 l 448 768 l 448 661 l 513 661 l 513 768 l 768 768 l 768 621 l 661 621 l 661 -234 l 554 -234 l 554 -340 l 86 -340 m 407 621 l 234 621 l 234 127 l 407 127 l 407 621 m 427 106 l 214 106 l 214 641 l 427 641 l 427 106 m 534 -320 l 534 -214 l 641 -214 l 641 641 l 747 641 l 747 747 l 534 747 l 534 641 l 427 641 l 427 747 l 106 747 l 106 641 l 0 641 l 0 106 l 106 106 l 106 0 l 427 0 l 427 -214 l 214 -214 l 214 -106 l 0 -106 l 0 -214 l 106 -214 l 106 -320 l 534 -320 z "},"h":{"ha":961,"x_min":-20,"x_max":768,"o":"m -20 -20 l -20 127 l 86 127 l 86 941 l -20 941 l -20 1088 l 340 1088 l 340 661 l 407 661 l 407 768 l 661 768 l 661 661 l 768 661 l 768 -20 l 513 -20 l 513 621 l 448 621 l 448 513 l 340 513 l 340 -20 l -20 -20 m 320 0 l 320 534 l 427 534 l 427 641 l 534 641 l 534 0 l 747 0 l 747 641 l 641 641 l 641 747 l 427 747 l 427 641 l 320 641 l 320 1068 l 0 1068 l 0 961 l 106 961 l 106 106 l 0 106 l 0 0 l 320 0 z "},"i":{"ha":961,"x_min":193,"x_max":661,"o":"m 300 834 l 300 1088 l 554 1088 l 554 834 l 300 834 m 193 -20 l 193 127 l 300 127 l 300 621 l 193 621 l 193 768 l 554 768 l 554 127 l 661 127 l 661 -20 l 193 -20 m 641 0 l 641 106 l 534 106 l 534 747 l 214 747 l 214 641 l 320 641 l 320 106 l 214 106 l 214 0 l 641 0 m 534 854 l 534 1068 l 320 1068 l 320 854 l 534 854 z "},"j":{"ha":961,"x_min":86,"x_max":768,"o":"m 513 834 l 513 1088 l 768 1088 l 768 834 l 513 834 m 193 -340 l 193 -234 l 86 -234 l 86 20 l 340 20 l 340 -193 l 513 -193 l 513 621 l 407 621 l 407 768 l 768 768 l 768 -234 l 661 -234 l 661 -340 l 193 -340 m 641 -320 l 641 -214 l 747 -214 l 747 747 l 427 747 l 427 641 l 534 641 l 534 -214 l 320 -214 l 320 0 l 106 0 l 106 -214 l 214 -214 l 214 -320 l 641 -320 m 747 854 l 747 1068 l 534 1068 l 534 854 l 747 854 z "},"k":{"ha":961,"x_min":-20,"x_max":768,"o":"m -20 -20 l -20 127 l 86 127 l 86 941 l -20 941 l -20 1088 l 340 1088 l 340 554 l 407 554 l 407 661 l 513 661 l 513 768 l 768 768 l 768 621 l 661 621 l 661 513 l 554 513 l 554 340 l 661 340 l 661 234 l 768 234 l 768 -20 l 513 -20 l 513 193 l 407 193 l 407 300 l 340 300 l 340 -20 l -20 -20 m 320 0 l 320 320 l 427 320 l 427 214 l 534 214 l 534 0 l 747 0 l 747 214 l 641 214 l 641 320 l 534 320 l 534 534 l 641 534 l 641 641 l 747 641 l 747 747 l 534 747 l 534 641 l 427 641 l 427 534 l 320 534 l 320 1068 l 0 1068 l 0 961 l 106 961 l 106 106 l 0 106 l 0 0 l 320 0 z "},"l":{"ha":961,"x_min":193,"x_max":661,"o":"m 193 -20 l 193 127 l 300 127 l 300 941 l 193 941 l 193 1088 l 554 1088 l 554 127 l 661 127 l 661 -20 l 193 -20 m 641 0 l 641 106 l 534 106 l 534 1068 l 214 1068 l 214 961 l 320 961 l 320 106 l 214 106 l 214 0 l 641 0 z "},"m":{"ha":961,"x_min":-20,"x_max":875,"o":"m -20 -20 l -20 768 l 340 768 l 340 661 l 513 661 l 513 768 l 768 768 l 768 661 l 875 661 l 875 -20 l 621 -20 l 621 513 l 554 513 l 554 -20 l 300 -20 l 300 513 l 234 513 l 234 -20 l -20 -20 m 214 0 l 214 534 l 320 534 l 320 0 l 534 0 l 534 534 l 641 534 l 641 0 l 854 0 l 854 641 l 747 641 l 747 747 l 534 747 l 534 641 l 320 641 l 320 747 l 0 747 l 0 0 l 214 0 z "},"n":{"ha":961,"x_min":-20,"x_max":768,"o":"m 513 -20 l 513 621 l 340 621 l 340 -20 l 86 -20 l 86 621 l -20 621 l -20 768 l 234 768 l 234 661 l 300 661 l 300 768 l 661 768 l 661 661 l 768 661 l 768 -20 l 513 -20 m 747 0 l 747 641 l 641 641 l 641 747 l 320 747 l 320 641 l 214 641 l 214 747 l 0 747 l 0 641 l 106 641 l 106 0 l 320 0 l 320 641 l 534 641 l 534 0 l 747 0 z "},"o":{"ha":961,"x_min":-20,"x_max":768,"o":"m 86 -20 l 86 86 l -20 86 l -20 661 l 86 661 l 86 768 l 661 768 l 661 661 l 768 661 l 768 86 l 661 86 l 661 -20 l 86 -20 m 513 127 l 513 621 l 234 621 l 234 127 l 513 127 m 214 106 l 214 641 l 534 641 l 534 106 l 214 106 m 641 0 l 641 106 l 747 106 l 747 641 l 641 641 l 641 747 l 106 747 l 106 641 l 0 641 l 0 106 l 106 106 l 106 0 l 641 0 z "},"p":{"ha":961,"x_min":-20,"x_max":768,"o":"m -20 -340 l -20 -193 l 86 -193 l 86 621 l -20 621 l -20 768 l 234 768 l 234 661 l 300 661 l 300 768 l 661 768 l 661 661 l 768 661 l 768 86 l 661 86 l 661 -20 l 340 -20 l 340 -193 l 448 -193 l 448 -340 l -20 -340 m 340 621 l 340 127 l 513 127 l 513 621 l 340 621 m 534 641 l 534 106 l 320 106 l 320 641 l 534 641 m 427 -320 l 427 -214 l 320 -214 l 320 0 l 641 0 l 641 106 l 747 106 l 747 641 l 641 641 l 641 747 l 320 747 l 320 641 l 214 641 l 214 747 l 0 747 l 0 641 l 106 641 l 106 -214 l 0 -214 l 0 -320 l 427 -320 z "},"q":{"ha":961,"x_min":-20,"x_max":768,"o":"m 300 -340 l 300 -193 l 407 -193 l 407 -20 l 86 -20 l 86 86 l -20 86 l -20 661 l 86 661 l 86 768 l 448 768 l 448 661 l 513 661 l 513 768 l 768 768 l 768 621 l 661 621 l 661 -193 l 768 -193 l 768 -340 l 300 -340 m 407 621 l 234 621 l 234 127 l 407 127 l 407 621 m 427 106 l 214 106 l 214 641 l 427 641 l 427 106 m 747 -320 l 747 -214 l 641 -214 l 641 641 l 747 641 l 747 747 l 534 747 l 534 641 l 427 641 l 427 747 l 106 747 l 106 641 l 0 641 l 0 106 l 106 106 l 106 0 l 427 0 l 427 -214 l 320 -214 l 320 -320 l 747 -320 z "},"r":{"ha":961,"x_min":-20,"x_max":768,"o":"m -20 -20 l -20 127 l 86 127 l 86 621 l -20 621 l -20 768 l 234 768 l 234 661 l 300 661 l 300 768 l 661 768 l 661 661 l 768 661 l 768 407 l 513 407 l 513 621 l 448 621 l 448 513 l 340 513 l 340 127 l 448 127 l 448 -20 l -20 -20 m 427 0 l 427 106 l 320 106 l 320 534 l 427 534 l 427 641 l 534 641 l 534 427 l 747 427 l 747 641 l 641 641 l 641 747 l 320 747 l 320 641 l 214 641 l 214 747 l 0 747 l 0 641 l 106 641 l 106 106 l 0 106 l 0 0 l 427 0 z "},"s":{"ha":961,"x_min":-20,"x_max":768,"o":"m 86 -20 l 86 86 l -20 86 l -20 234 l 234 234 l 234 127 l 513 127 l 513 193 l 407 193 l 407 300 l 193 300 l 193 407 l 86 407 l 86 513 l -20 513 l -20 661 l 86 661 l 86 768 l 661 768 l 661 661 l 768 661 l 768 513 l 513 513 l 513 621 l 234 621 l 234 554 l 340 554 l 340 448 l 554 448 l 554 340 l 661 340 l 661 234 l 768 234 l 768 86 l 661 86 l 661 -20 l 86 -20 m 641 0 l 641 106 l 747 106 l 747 214 l 641 214 l 641 320 l 534 320 l 534 427 l 320 427 l 320 534 l 214 534 l 214 641 l 534 641 l 534 534 l 747 534 l 747 641 l 641 641 l 641 747 l 106 747 l 106 641 l 0 641 l 0 534 l 106 534 l 106 427 l 214 427 l 214 320 l 427 320 l 427 214 l 534 214 l 534 106 l 214 106 l 214 214 l 0 214 l 0 106 l 106 106 l 106 0 l 641 0 z "},"t":{"ha":961,"x_min":-20,"x_max":768,"o":"m 300 -20 l 300 86 l 193 86 l 193 621 l -20 621 l -20 768 l 193 768 l 193 981 l 300 981 l 300 1088 l 448 1088 l 448 768 l 661 768 l 661 621 l 448 621 l 448 127 l 513 127 l 513 234 l 768 234 l 768 86 l 661 86 l 661 -20 l 300 -20 m 641 0 l 641 106 l 747 106 l 747 214 l 534 214 l 534 106 l 427 106 l 427 641 l 641 641 l 641 747 l 427 747 l 427 1068 l 320 1068 l 320 961 l 214 961 l 214 747 l 0 747 l 0 641 l 214 641 l 214 106 l 320 106 l 320 0 l 641 0 z "},"u":{"ha":961,"x_min":-20,"x_max":768,"o":"m 513 -20 l 513 86 l 448 86 l 448 -20 l 86 -20 l 86 86 l -20 86 l -20 768 l 234 768 l 234 127 l 407 127 l 407 768 l 661 768 l 661 127 l 768 127 l 768 -20 l 513 -20 m 747 0 l 747 106 l 641 106 l 641 747 l 427 747 l 427 106 l 214 106 l 214 747 l 0 747 l 0 106 l 106 106 l 106 0 l 427 0 l 427 106 l 534 106 l 534 0 l 747 0 z "},"v":{"ha":961,"x_min":-20,"x_max":875,"o":"m 300 -20 l 300 86 l 193 86 l 193 193 l 86 193 l 86 300 l -20 300 l -20 768 l 234 768 l 234 340 l 340 340 l 340 234 l 513 234 l 513 340 l 621 340 l 621 768 l 875 768 l 875 300 l 768 300 l 768 193 l 661 193 l 661 86 l 554 86 l 554 -20 l 300 -20 m 534 0 l 534 106 l 641 106 l 641 214 l 747 214 l 747 320 l 854 320 l 854 747 l 641 747 l 641 320 l 534 320 l 534 214 l 320 214 l 320 320 l 214 320 l 214 747 l 0 747 l 0 320 l 106 320 l 106 214 l 214 214 l 214 106 l 320 106 l 320 0 l 534 0 z "},"w":{"ha":961,"x_min":-20,"x_max":875,"o":"m 86 -20 l 86 86 l -20 86 l -20 768 l 234 768 l 234 234 l 300 234 l 300 448 l 554 448 l 554 234 l 621 234 l 621 768 l 875 768 l 875 86 l 768 86 l 768 -20 l 513 -20 l 513 86 l 340 86 l 340 -20 l 86 -20 m 320 0 l 320 106 l 534 106 l 534 0 l 747 0 l 747 106 l 854 106 l 854 747 l 641 747 l 641 214 l 534 214 l 534 427 l 320 427 l 320 214 l 214 214 l 214 747 l 0 747 l 0 106 l 106 106 l 106 0 l 320 0 z "},"x":{"ha":961,"x_min":-20,"x_max":875,"o":"m -20 -20 l -20 127 l 86 127 l 86 234 l 193 234 l 193 340 l 300 340 l 300 407 l 193 407 l 193 513 l 86 513 l 86 621 l -20 621 l -20 768 l 234 768 l 234 661 l 340 661 l 340 554 l 513 554 l 513 661 l 621 661 l 621 768 l 875 768 l 875 621 l 768 621 l 768 513 l 661 513 l 661 407 l 554 407 l 554 340 l 661 340 l 661 234 l 768 234 l 768 127 l 875 127 l 875 -20 l 621 -20 l 621 86 l 513 86 l 513 193 l 340 193 l 340 86 l 234 86 l 234 -20 l -20 -20 m 214 0 l 214 106 l 320 106 l 320 214 l 534 214 l 534 106 l 641 106 l 641 0 l 854 0 l 854 106 l 747 106 l 747 214 l 641 214 l 641 320 l 534 320 l 534 427 l 641 427 l 641 534 l 747 534 l 747 641 l 854 641 l 854 747 l 641 747 l 641 641 l 534 641 l 534 534 l 320 534 l 320 641 l 214 641 l 214 747 l 0 747 l 0 641 l 106 641 l 106 534 l 214 534 l 214 427 l 320 427 l 320 320 l 214 320 l 214 214 l 106 214 l 106 106 l 0 106 l 0 0 l 214 0 z "},"y":{"ha":961,"x_min":-20,"x_max":768,"o":"m -20 -340 l -20 -193 l 407 -193 l 407 -86 l 513 -86 l 513 -20 l 86 -20 l 86 86 l -20 86 l -20 768 l 234 768 l 234 127 l 513 127 l 513 768 l 768 768 l 768 -127 l 661 -127 l 661 -234 l 554 -234 l 554 -340 l -20 -340 m 534 -320 l 534 -214 l 641 -214 l 641 -106 l 747 -106 l 747 747 l 534 747 l 534 106 l 214 106 l 214 747 l 0 747 l 0 106 l 106 106 l 106 0 l 534 0 l 534 -106 l 427 -106 l 427 -214 l 0 -214 l 0 -320 l 534 -320 z "},"z":{"ha":961,"x_min":-20,"x_max":768,"o":"m -20 -20 l -20 234 l 86 234 l 86 340 l 193 340 l 193 448 l 300 448 l 300 554 l 407 554 l 407 621 l 234 621 l 234 513 l -20 513 l -20 768 l 768 768 l 768 621 l 661 621 l 661 513 l 554 513 l 554 407 l 448 407 l 448 300 l 340 300 l 340 193 l 234 193 l 234 127 l 513 127 l 513 234 l 768 234 l 768 -20 l -20 -20 m 747 0 l 747 214 l 534 214 l 534 106 l 214 106 l 214 214 l 320 214 l 320 320 l 427 320 l 427 427 l 534 427 l 534 534 l 641 534 l 641 641 l 747 641 l 747 747 l 0 747 l 0 534 l 214 534 l 214 641 l 427 641 l 427 534 l 320 534 l 320 427 l 214 427 l 214 320 l 106 320 l 106 214 l 0 214 l 0 0 l 747 0 z "},"{":{"ha":961,"x_min":86,"x_max":768,"o":"m 407 -20 l 407 86 l 300 86 l 300 513 l 86 513 l 86 661 l 300 661 l 300 981 l 407 981 l 407 1088 l 768 1088 l 768 941 l 554 941 l 554 621 l 448 621 l 448 554 l 554 554 l 554 127 l 768 127 l 768 -20 l 407 -20 m 747 0 l 747 106 l 534 106 l 534 534 l 427 534 l 427 641 l 534 641 l 534 961 l 747 961 l 747 1068 l 427 1068 l 427 961 l 320 961 l 320 641 l 106 641 l 106 534 l 320 534 l 320 106 l 427 106 l 427 0 l 747 0 z "},"|":{"ha":961,"x_min":300,"x_max":554,"o":"m 300 621 l 300 1088 l 554 1088 l 554 621 l 300 621 m 300 -20 l 300 554 l 554 554 l 554 -20 l 300 -20 m 534 0 l 534 534 l 320 534 l 320 0 l 534 0 m 534 641 l 534 1068 l 320 1068 l 320 641 l 534 641 z "},"}":{"ha":961,"x_min":86,"x_max":768,"o":"m 86 -20 l 86 127 l 300 127 l 300 554 l 407 554 l 407 621 l 300 621 l 300 941 l 86 941 l 86 1088 l 448 1088 l 448 981 l 554 981 l 554 661 l 768 661 l 768 513 l 554 513 l 554 86 l 448 86 l 448 -20 l 86 -20 m 427 0 l 427 106 l 534 106 l 534 534 l 747 534 l 747 641 l 534 641 l 534 961 l 427 961 l 427 1068 l 106 1068 l 106 961 l 320 961 l 320 641 l 427 641 l 427 534 l 320 534 l 320 106 l 106 106 l 106 0 l 427 0 z "},"~":{"ha":961,"x_min":-20,"x_max":768,"o":"m -20 834 l -20 981 l 86 981 l 86 1088 l 448 1088 l 448 981 l 513 981 l 513 1088 l 768 1088 l 768 941 l 661 941 l 661 834 l 300 834 l 300 941 l 234 941 l 234 834 l -20 834 m 214 854 l 214 961 l 320 961 l 320 854 l 641 854 l 641 961 l 747 961 l 747 1068 l 534 1068 l 534 961 l 427 961 l 427 1068 l 106 1068 l 106 961 l 0 961 l 0 854 l 214 854 z "}," ":{"ha":961,"x_min":0,"x_max":0,"o":""},"¡":{"ha":961,"x_min":193,"x_max":661,"o":"m 300 834 l 300 1088 l 554 1088 l 554 834 l 300 834 m 300 -20 l 300 86 l 193 86 l 193 448 l 300 448 l 300 768 l 554 768 l 554 448 l 661 448 l 661 86 l 554 86 l 554 -20 l 300 -20 m 534 0 l 534 106 l 641 106 l 641 427 l 534 427 l 534 747 l 320 747 l 320 427 l 214 427 l 214 106 l 320 106 l 320 0 l 534 0 m 534 854 l 534 1068 l 320 1068 l 320 854 l 534 854 z "},"¢":{"ha":961,"x_min":-20,"x_max":875,"o":"m 300 -20 l 300 193 l 86 193 l 86 300 l -20 300 l -20 875 l 86 875 l 86 981 l 300 981 l 300 1195 l 554 1195 l 554 981 l 768 981 l 768 875 l 875 875 l 875 727 l 621 727 l 621 834 l 234 834 l 234 340 l 621 340 l 621 448 l 875 448 l 875 300 l 768 300 l 768 193 l 554 193 l 554 -20 l 300 -20 m 534 0 l 534 214 l 747 214 l 747 320 l 854 320 l 854 427 l 641 427 l 641 320 l 214 320 l 214 854 l 641 854 l 641 747 l 854 747 l 854 854 l 747 854 l 747 961 l 534 961 l 534 1175 l 320 1175 l 320 961 l 106 961 l 106 854 l 0 854 l 0 320 l 106 320 l 106 214 l 320 214 l 320 0 l 534 0 z "},"£":{"ha":961,"x_min":-20,"x_max":768,"o":"m -20 -20 l -20 234 l 86 234 l 86 621 l -20 621 l -20 768 l 86 768 l 86 1088 l 193 1088 l 193 1195 l 554 1195 l 554 1088 l 661 1088 l 661 834 l 513 834 l 513 941 l 407 941 l 407 1048 l 340 1048 l 340 768 l 448 768 l 448 621 l 340 621 l 340 127 l 513 127 l 513 234 l 768 234 l 768 86 l 661 86 l 661 -20 l -20 -20 m 641 0 l 641 106 l 747 106 l 747 214 l 534 214 l 534 106 l 320 106 l 320 641 l 427 641 l 427 747 l 320 747 l 320 1068 l 427 1068 l 427 961 l 534 961 l 534 854 l 641 854 l 641 1068 l 534 1068 l 534 1175 l 214 1175 l 214 1068 l 106 1068 l 106 747 l 0 747 l 0 641 l 106 641 l 106 214 l 0 214 l 0 0 l 641 0 z "},"¤":{"ha":961,"x_min":-20,"x_max":768,"o":"m -20 -20 l -20 127 l 86 127 l 86 193 l -20 193 l -20 661 l 86 661 l 86 727 l -20 727 l -20 875 l 234 875 l 234 768 l 513 768 l 513 875 l 768 875 l 768 727 l 661 727 l 661 661 l 768 661 l 768 193 l 661 193 l 661 127 l 768 127 l 768 -20 l 513 -20 l 513 86 l 234 86 l 234 -20 l -20 -20 m 513 234 l 513 621 l 234 621 l 234 234 l 513 234 m 214 214 l 214 641 l 534 641 l 534 214 l 214 214 m 214 0 l 214 106 l 534 106 l 534 0 l 747 0 l 747 106 l 641 106 l 641 214 l 747 214 l 747 641 l 641 641 l 641 747 l 747 747 l 747 854 l 534 854 l 534 747 l 214 747 l 214 854 l 0 854 l 0 747 l 106 747 l 106 641 l 0 641 l 0 214 l 106 214 l 106 106 l 0 106 l 0 0 l 214 0 z "},"¥":{"ha":961,"x_min":-20,"x_max":875,"o":"m 300 -20 l 300 300 l -20 300 l -20 448 l 300 448 l 300 513 l -20 513 l -20 661 l 300 661 l 300 727 l 193 727 l 193 834 l 86 834 l 86 941 l -20 941 l -20 1088 l 234 1088 l 234 981 l 340 981 l 340 875 l 513 875 l 513 981 l 621 981 l 621 1088 l 875 1088 l 875 941 l 768 941 l 768 834 l 661 834 l 661 727 l 554 727 l 554 661 l 875 661 l 875 513 l 554 513 l 554 448 l 875 448 l 875 300 l 554 300 l 554 -20 l 300 -20 m 534 0 l 534 320 l 854 320 l 854 427 l 534 427 l 534 534 l 854 534 l 854 641 l 534 641 l 534 747 l 641 747 l 641 854 l 747 854 l 747 961 l 854 961 l 854 1068 l 641 1068 l 641 961 l 534 961 l 534 854 l 320 854 l 320 961 l 214 961 l 214 1068 l 0 1068 l 0 961 l 106 961 l 106 854 l 214 854 l 214 747 l 320 747 l 320 641 l 0 641 l 0 534 l 320 534 l 320 427 l 0 427 l 0 320 l 320 320 l 320 0 l 534 0 z "},"¦":{"ha":961,"x_min":300,"x_max":554,"o":"m 300 621 l 300 1088 l 554 1088 l 554 621 l 300 621 m 300 -20 l 300 554 l 554 554 l 554 -20 l 300 -20 m 534 0 l 534 534 l 320 534 l 320 0 l 534 0 m 534 641 l 534 1068 l 320 1068 l 320 641 l 534 641 z "},"§":{"ha":961,"x_min":-20,"x_max":768,"o":"m 86 -127 l 86 -20 l -20 -20 l -20 127 l 234 127 l 234 20 l 513 20 l 513 86 l 407 86 l 407 193 l 193 193 l 193 300 l 86 300 l 86 407 l -20 407 l -20 661 l 86 661 l 86 768 l 193 768 l 193 834 l 86 834 l 86 941 l -20 941 l -20 1088 l 86 1088 l 86 1195 l 661 1195 l 661 1088 l 768 1088 l 768 941 l 513 941 l 513 1048 l 234 1048 l 234 981 l 340 981 l 340 875 l 554 875 l 554 768 l 661 768 l 661 661 l 768 661 l 768 407 l 661 407 l 661 300 l 554 300 l 554 234 l 661 234 l 661 127 l 768 127 l 768 -20 l 661 -20 l 661 -127 l 86 -127 m 407 340 l 407 448 l 513 448 l 513 621 l 407 621 l 407 727 l 340 727 l 340 621 l 234 621 l 234 448 l 340 448 l 340 340 l 407 340 m 320 320 l 320 427 l 214 427 l 214 641 l 320 641 l 320 747 l 427 747 l 427 641 l 534 641 l 534 427 l 427 427 l 427 320 l 320 320 m 641 -106 l 641 0 l 747 0 l 747 106 l 641 106 l 641 214 l 534 214 l 534 320 l 641 320 l 641 427 l 747 427 l 747 641 l 641 641 l 641 747 l 534 747 l 534 854 l 320 854 l 320 961 l 214 961 l 214 1068 l 534 1068 l 534 961 l 747 961 l 747 1068 l 641 1068 l 641 1175 l 106 1175 l 106 1068 l 0 1068 l 0 961 l 106 961 l 106 854 l 214 854 l 214 747 l 106 747 l 106 641 l 0 641 l 0 427 l 106 427 l 106 320 l 214 320 l 214 214 l 427 214 l 427 106 l 534 106 l 534 0 l 214 0 l 214 106 l 0 106 l 0 0 l 106 0 l 106 -106 l 641 -106 z "},"¨":{"ha":961,"x_min":-20,"x_max":768,"o":"m 513 1048 l 513 1195 l 768 1195 l 768 1048 l 513 1048 m -20 1048 l -20 1195 l 234 1195 l 234 1048 l -20 1048 m 214 1068 l 214 1175 l 0 1175 l 0 1068 l 214 1068 m 747 1068 l 747 1175 l 534 1175 l 534 1068 l 747 1068 z "},"©":{"ha":961,"x_min":-20,"x_max":768,"o":"m 86 981 l 86 1088 l 661 1088 l 661 981 l 768 981 l 768 86 l 661 86 l 661 -20 l 86 -20 l 86 86 l -20 86 l -20 981 l 86 981 m 621 941 l 127 941 l 127 127 l 621 127 l 621 941 m 300 768 l 300 875 l 554 875 l 554 727 l 340 727 l 340 340 l 554 340 l 554 193 l 300 193 l 300 300 l 193 300 l 193 768 l 300 768 m 641 106 l 106 106 l 106 961 l 641 961 l 641 106 m 0 961 l 0 106 l 106 106 l 106 0 l 641 0 l 641 106 l 747 106 l 747 961 l 641 961 l 641 1068 l 106 1068 l 106 961 l 0 961 m 214 747 l 214 320 l 320 320 l 320 214 l 534 214 l 534 320 l 320 320 l 320 747 l 534 747 l 534 854 l 320 854 l 320 747 l 214 747 z "},"ª":{"ha":961,"x_min":86,"x_max":768,"o":"m 193 727 l 193 834 l 86 834 l 86 1088 l 193 1088 l 193 1195 l 661 1195 l 661 875 l 768 875 l 768 727 l 193 727 m 407 875 l 407 1048 l 340 1048 l 340 875 l 407 875 m 86 513 l 86 661 l 768 661 l 768 513 l 86 513 m 747 534 l 747 641 l 106 641 l 106 534 l 747 534 m 320 854 l 320 1068 l 427 1068 l 427 854 l 320 854 m 747 747 l 747 854 l 641 854 l 641 1175 l 214 1175 l 214 1068 l 106 1068 l 106 854 l 214 854 l 214 747 l 747 747 z "},"«":{"ha":961,"x_min":-20,"x_max":768,"o":"m 513 193 l 513 300 l 448 300 l 448 193 l 193 193 l 193 300 l 86 300 l 86 407 l -20 407 l -20 554 l 86 554 l 86 661 l 193 661 l 193 768 l 448 768 l 448 661 l 513 661 l 513 768 l 768 768 l 768 621 l 661 621 l 661 513 l 554 513 l 554 448 l 661 448 l 661 340 l 768 340 l 768 193 l 513 193 m 340 554 l 407 554 l 407 621 l 340 621 l 340 554 m 407 340 l 407 407 l 340 407 l 340 340 l 407 340 m 300 448 l 300 513 l 234 513 l 234 448 l 300 448 m 214 427 l 214 534 l 320 534 l 320 427 l 214 427 m 320 320 l 320 427 l 427 427 l 427 320 l 320 320 m 320 641 l 427 641 l 427 534 l 320 534 l 320 641 m 747 214 l 747 320 l 641 320 l 641 427 l 534 427 l 534 534 l 641 534 l 641 641 l 747 641 l 747 747 l 534 747 l 534 641 l 427 641 l 427 747 l 214 747 l 214 641 l 106 641 l 106 534 l 0 534 l 0 427 l 106 427 l 106 320 l 214 320 l 214 214 l 427 214 l 427 320 l 534 320 l 534 214 l 747 214 z "},"¬":{"ha":961,"x_min":-20,"x_max":768,"o":"m 513 86 l 513 513 l -20 513 l -20 661 l 768 661 l 768 86 l 513 86 m 747 106 l 747 641 l 0 641 l 0 534 l 534 534 l 534 106 l 747 106 z "},"­":{"ha":961,"x_min":-20,"x_max":768,"o":"m -20 407 l -20 554 l 768 554 l 768 407 l -20 407 m 747 427 l 747 534 l 0 534 l 0 427 l 747 427 z "},"®":{"ha":961,"x_min":-20,"x_max":768,"o":"m 86 981 l 86 1088 l 661 1088 l 661 981 l 768 981 l 768 193 l 661 193 l 661 86 l 86 86 l 86 193 l -20 193 l -20 981 l 86 981 m 621 941 l 127 941 l 127 234 l 621 234 l 621 941 m 193 300 l 193 875 l 448 875 l 448 768 l 554 768 l 554 621 l 448 621 l 448 554 l 554 554 l 554 300 l 407 300 l 407 513 l 340 513 l 340 300 l 193 300 m 407 727 l 340 727 l 340 661 l 407 661 l 407 727 m 641 214 l 106 214 l 106 961 l 641 961 l 641 214 m 427 641 l 320 641 l 320 747 l 427 747 l 427 641 m 0 961 l 0 214 l 106 214 l 106 106 l 641 106 l 641 214 l 747 214 l 747 961 l 641 961 l 641 1068 l 106 1068 l 106 961 l 0 961 m 320 320 l 320 534 l 427 534 l 427 320 l 534 320 l 534 534 l 427 534 l 427 641 l 534 641 l 534 747 l 427 747 l 427 854 l 214 854 l 214 320 l 320 320 z "},"¯":{"ha":961,"x_min":-20,"x_max":875,"o":"m -20 1048 l -20 1195 l 875 1195 l 875 1048 l -20 1048 m 854 1068 l 854 1175 l 0 1175 l 0 1068 l 854 1068 z "},"°":{"ha":961,"x_min":86,"x_max":661,"o":"m 193 727 l 193 834 l 86 834 l 86 1088 l 193 1088 l 193 1195 l 554 1195 l 554 1088 l 661 1088 l 661 834 l 554 834 l 554 727 l 193 727 m 407 875 l 407 1048 l 340 1048 l 340 875 l 407 875 m 320 854 l 320 1068 l 427 1068 l 427 854 l 320 854 m 534 747 l 534 854 l 641 854 l 641 1068 l 534 1068 l 534 1175 l 214 1175 l 214 1068 l 106 1068 l 106 854 l 214 854 l 214 747 l 534 747 z "},"±":{"ha":961,"x_min":-20,"x_max":875,"o":"m 300 300 l 300 513 l 86 513 l 86 661 l 300 661 l 300 875 l 554 875 l 554 661 l 768 661 l 768 513 l 554 513 l 554 300 l 300 300 m -20 -20 l -20 127 l 875 127 l 875 -20 l -20 -20 m 854 0 l 854 106 l 0 106 l 0 0 l 854 0 m 534 320 l 534 534 l 747 534 l 747 641 l 534 641 l 534 854 l 320 854 l 320 641 l 106 641 l 106 534 l 320 534 l 320 320 l 534 320 z "},"²":{"ha":961,"x_min":-20,"x_max":554,"o":"m -20 513 l -20 768 l 86 768 l 86 875 l 193 875 l 193 941 l -20 941 l -20 1088 l 86 1088 l 86 1195 l 448 1195 l 448 1088 l 554 1088 l 554 941 l 448 941 l 448 834 l 340 834 l 340 727 l 234 727 l 234 661 l 407 661 l 407 768 l 554 768 l 554 513 l -20 513 m 234 981 l 300 981 l 300 1048 l 234 1048 l 234 981 m 214 1068 l 320 1068 l 320 961 l 214 961 l 214 1068 m 534 534 l 534 747 l 427 747 l 427 641 l 214 641 l 214 747 l 320 747 l 320 854 l 427 854 l 427 961 l 534 961 l 534 1068 l 427 1068 l 427 1175 l 106 1175 l 106 1068 l 0 1068 l 0 961 l 214 961 l 214 854 l 106 854 l 106 747 l 0 747 l 0 534 l 534 534 z "},"³":{"ha":961,"x_min":-20,"x_max":554,"o":"m -20 513 l -20 661 l 300 661 l 300 834 l 86 834 l 86 981 l 300 981 l 300 1048 l -20 1048 l -20 1195 l 448 1195 l 448 1088 l 554 1088 l 554 941 l 448 941 l 448 875 l 554 875 l 554 621 l 448 621 l 448 513 l -20 513 m 427 534 l 427 641 l 534 641 l 534 854 l 427 854 l 427 961 l 534 961 l 534 1068 l 427 1068 l 427 1175 l 0 1175 l 0 1068 l 320 1068 l 320 961 l 106 961 l 106 854 l 320 854 l 320 641 l 0 641 l 0 534 l 427 534 z "},"´":{"ha":961,"x_min":193,"x_max":661,"o":"m 193 834 l 193 981 l 300 981 l 300 1088 l 407 1088 l 407 1195 l 661 1195 l 661 1048 l 554 1048 l 554 941 l 448 941 l 448 834 l 193 834 m 427 854 l 427 961 l 534 961 l 534 1068 l 641 1068 l 641 1175 l 427 1175 l 427 1068 l 320 1068 l 320 961 l 214 961 l 214 854 l 427 854 z "},"µ":{"ha":961,"x_min":-20,"x_max":768,"o":"m -20 -127 l -20 20 l 86 20 l 86 875 l 340 875 l 340 340 l 513 340 l 513 875 l 768 875 l 768 300 l 661 300 l 661 193 l 340 193 l 340 -20 l 234 -20 l 234 -127 l -20 -127 m 214 -106 l 214 0 l 320 0 l 320 214 l 641 214 l 641 320 l 747 320 l 747 854 l 534 854 l 534 320 l 320 320 l 320 854 l 106 854 l 106 0 l 0 0 l 0 -106 l 214 -106 z "},"¶":{"ha":961,"x_min":-20,"x_max":875,"o":"m 300 -20 l 300 513 l 86 513 l 86 621 l -20 621 l -20 981 l 86 981 l 86 1088 l 875 1088 l 875 -20 l 621 -20 l 621 941 l 554 941 l 554 -20 l 300 -20 m 300 661 l 300 941 l 234 941 l 234 661 l 300 661 m 214 641 l 214 961 l 320 961 l 320 641 l 214 641 m 534 0 l 534 961 l 641 961 l 641 0 l 854 0 l 854 1068 l 106 1068 l 106 961 l 0 961 l 0 641 l 106 641 l 106 534 l 320 534 l 320 0 l 534 0 z "},"·":{"ha":961,"x_min":300,"x_max":554,"o":"m 300 300 l 300 448 l 554 448 l 554 300 l 300 300 m 534 320 l 534 427 l 320 427 l 320 320 l 534 320 z "},"¸":{"ha":961,"x_min":86,"x_max":661,"o":"m 86 -234 l 86 -86 l 407 -86 l 407 -20 l 300 -20 l 300 127 l 554 127 l 554 20 l 661 20 l 661 -127 l 554 -127 l 554 -234 l 86 -234 m 534 -214 l 534 -106 l 641 -106 l 641 0 l 534 0 l 534 106 l 320 106 l 320 0 l 427 0 l 427 -106 l 106 -106 l 106 -214 l 534 -214 z "},"¹":{"ha":961,"x_min":86,"x_max":554,"o":"m 86 513 l 86 661 l 193 661 l 193 941 l 86 941 l 86 1088 l 193 1088 l 193 1195 l 448 1195 l 448 661 l 554 661 l 554 513 l 86 513 m 534 534 l 534 641 l 427 641 l 427 1175 l 214 1175 l 214 1068 l 106 1068 l 106 961 l 214 961 l 214 641 l 106 641 l 106 534 l 534 534 z "},"º":{"ha":961,"x_min":86,"x_max":661,"o":"m 193 727 l 193 834 l 86 834 l 86 1088 l 193 1088 l 193 1195 l 554 1195 l 554 1088 l 661 1088 l 661 834 l 554 834 l 554 727 l 193 727 m 407 875 l 407 1048 l 340 1048 l 340 875 l 407 875 m 86 513 l 86 661 l 661 661 l 661 513 l 86 513 m 641 534 l 641 641 l 106 641 l 106 534 l 641 534 m 320 854 l 320 1068 l 427 1068 l 427 854 l 320 854 m 534 747 l 534 854 l 641 854 l 641 1068 l 534 1068 l 534 1175 l 214 1175 l 214 1068 l 106 1068 l 106 854 l 214 854 l 214 747 l 534 747 z "},"»":{"ha":961,"x_min":-20,"x_max":768,"o":"m 300 193 l 300 300 l 234 300 l 234 193 l -20 193 l -20 340 l 86 340 l 86 448 l 193 448 l 193 513 l 86 513 l 86 621 l -20 621 l -20 768 l 234 768 l 234 661 l 300 661 l 300 768 l 554 768 l 554 661 l 661 661 l 661 554 l 768 554 l 768 407 l 661 407 l 661 300 l 554 300 l 554 193 l 300 193 m 448 448 l 513 448 l 513 513 l 448 513 l 448 448 m 407 554 l 407 621 l 340 621 l 340 554 l 407 554 m 340 340 l 407 340 l 407 407 l 340 407 l 340 340 m 320 427 l 427 427 l 427 320 l 320 320 l 320 427 m 320 534 l 320 641 l 427 641 l 427 534 l 320 534 m 427 534 l 534 534 l 534 427 l 427 427 l 427 534 m 534 214 l 534 320 l 641 320 l 641 427 l 747 427 l 747 534 l 641 534 l 641 641 l 534 641 l 534 747 l 320 747 l 320 641 l 214 641 l 214 747 l 0 747 l 0 641 l 106 641 l 106 534 l 214 534 l 214 427 l 106 427 l 106 320 l 0 320 l 0 214 l 214 214 l 214 320 l 320 320 l 320 214 l 534 214 z "},"¼":{"ha":961,"x_min":-20,"x_max":768,"o":"m -20 621 l -20 1195 l 234 1195 l 234 621 l -20 621 m -20 86 l -20 340 l 86 340 l 86 448 l 193 448 l 193 554 l 300 554 l 300 661 l 407 661 l 407 768 l 513 768 l 513 875 l 621 875 l 621 981 l 768 981 l 768 727 l 661 727 l 661 621 l 554 621 l 554 513 l 448 513 l 448 407 l 340 407 l 340 300 l 234 300 l 234 193 l 127 193 l 127 86 l -20 86 m 513 -234 l 513 -20 l 193 -20 l 193 127 l 300 127 l 300 234 l 407 234 l 407 340 l 513 340 l 513 448 l 768 448 l 768 -234 l 513 -234 m 448 193 l 448 127 l 513 127 l 513 193 l 448 193 m 534 214 l 534 106 l 427 106 l 427 214 l 534 214 m 747 -214 l 747 427 l 534 427 l 534 320 l 427 320 l 427 214 l 320 214 l 320 106 l 214 106 l 214 0 l 534 0 l 534 -214 l 747 -214 m 106 106 l 106 214 l 214 214 l 214 320 l 320 320 l 320 427 l 427 427 l 427 534 l 534 534 l 534 641 l 641 641 l 641 747 l 747 747 l 747 961 l 641 961 l 641 854 l 534 854 l 534 747 l 427 747 l 427 641 l 320 641 l 320 534 l 214 534 l 214 427 l 106 427 l 106 320 l 0 320 l 0 106 l 106 106 m 214 641 l 214 1175 l 0 1175 l 0 641 l 214 641 z "},"½":{"ha":961,"x_min":-20,"x_max":875,"o":"m -20 621 l -20 1195 l 234 1195 l 234 621 l -20 621 m -20 86 l -20 340 l 86 340 l 86 448 l 193 448 l 193 554 l 300 554 l 300 661 l 407 661 l 407 768 l 513 768 l 513 875 l 621 875 l 621 981 l 768 981 l 768 727 l 661 727 l 661 621 l 554 621 l 554 513 l 448 513 l 448 407 l 340 407 l 340 300 l 234 300 l 234 193 l 127 193 l 127 86 l -20 86 m 300 -234 l 300 -86 l 407 -86 l 407 20 l 513 20 l 513 86 l 300 86 l 300 234 l 407 234 l 407 340 l 768 340 l 768 234 l 875 234 l 875 86 l 768 86 l 768 -20 l 661 -20 l 661 -86 l 875 -86 l 875 -234 l 300 -234 m 554 127 l 621 127 l 621 193 l 554 193 l 554 127 m 534 214 l 641 214 l 641 106 l 534 106 l 534 214 m 854 -214 l 854 -106 l 641 -106 l 641 0 l 747 0 l 747 106 l 854 106 l 854 214 l 747 214 l 747 320 l 427 320 l 427 214 l 320 214 l 320 106 l 534 106 l 534 0 l 427 0 l 427 -106 l 320 -106 l 320 -214 l 854 -214 m 106 106 l 106 214 l 214 214 l 214 320 l 320 320 l 320 427 l 427 427 l 427 534 l 534 534 l 534 641 l 641 641 l 641 747 l 747 747 l 747 961 l 641 961 l 641 854 l 534 854 l 534 747 l 427 747 l 427 641 l 320 641 l 320 534 l 214 534 l 214 427 l 106 427 l 106 320 l 0 320 l 0 106 l 106 106 m 214 641 l 214 1175 l 0 1175 l 0 641 l 214 641 z "},"¾":{"ha":961,"x_min":-20,"x_max":768,"o":"m -20 621 l -20 768 l 193 768 l 193 834 l 86 834 l 86 981 l 193 981 l 193 1048 l -20 1048 l -20 1195 l 340 1195 l 340 1088 l 448 1088 l 448 941 l 340 941 l 340 875 l 448 875 l 448 768 l 513 768 l 513 875 l 621 875 l 621 981 l 768 981 l 768 727 l 661 727 l 661 621 l 554 621 l 554 513 l 448 513 l 448 407 l 340 407 l 340 300 l 234 300 l 234 193 l 127 193 l 127 86 l -20 86 l -20 340 l 86 340 l 86 448 l 193 448 l 193 554 l 300 554 l 300 621 l -20 621 m 407 727 l 340 727 l 340 661 l 407 661 l 407 727 m 513 -234 l 513 -20 l 193 -20 l 193 127 l 300 127 l 300 234 l 407 234 l 407 340 l 513 340 l 513 448 l 768 448 l 768 -234 l 513 -234 m 448 193 l 448 127 l 513 127 l 513 193 l 448 193 m 534 214 l 534 106 l 427 106 l 427 214 l 534 214 m 427 641 l 320 641 l 320 747 l 427 747 l 427 641 m 747 -214 l 747 427 l 534 427 l 534 320 l 427 320 l 427 214 l 320 214 l 320 106 l 214 106 l 214 0 l 534 0 l 534 -214 l 747 -214 m 320 641 l 320 534 l 214 534 l 214 427 l 106 427 l 106 320 l 0 320 l 0 106 l 106 106 l 106 214 l 214 214 l 214 320 l 320 320 l 320 427 l 427 427 l 427 534 l 534 534 l 534 641 l 641 641 l 641 747 l 747 747 l 747 961 l 641 961 l 641 854 l 534 854 l 534 747 l 427 747 l 427 854 l 320 854 l 320 961 l 427 961 l 427 1068 l 320 1068 l 320 1175 l 0 1175 l 0 1068 l 214 1068 l 214 961 l 106 961 l 106 854 l 214 854 l 214 747 l 0 747 l 0 641 l 320 641 z "},"¿":{"ha":961,"x_min":-20,"x_max":768,"o":"m 193 834 l 193 1088 l 448 1088 l 448 834 l 193 834 m 86 -20 l 86 86 l -20 86 l -20 448 l 86 448 l 86 554 l 193 554 l 193 768 l 448 768 l 448 513 l 340 513 l 340 407 l 234 407 l 234 127 l 513 127 l 513 340 l 768 340 l 768 86 l 661 86 l 661 -20 l 86 -20 m 641 0 l 641 106 l 747 106 l 747 320 l 534 320 l 534 106 l 214 106 l 214 427 l 320 427 l 320 534 l 427 534 l 427 747 l 214 747 l 214 534 l 106 534 l 106 427 l 0 427 l 0 106 l 106 106 l 106 0 l 641 0 m 427 854 l 427 1068 l 214 1068 l 214 854 l 427 854 z "},"À":{"ha":961,"x_min":-20,"x_max":768,"o":"m 513 1048 l 513 1154 l 407 1154 l 407 1302 l 661 1302 l 661 1195 l 768 1195 l 768 1048 l 513 1048 m -20 -20 l -20 768 l 86 768 l 86 875 l 193 875 l 193 981 l 300 981 l 300 1088 l 448 1088 l 448 981 l 554 981 l 554 875 l 661 875 l 661 768 l 768 768 l 768 -20 l 513 -20 l 513 407 l 234 407 l 234 -20 l -20 -20 m 513 554 l 513 727 l 407 727 l 407 834 l 340 834 l 340 727 l 234 727 l 234 554 l 513 554 m 214 534 l 214 747 l 320 747 l 320 854 l 427 854 l 427 747 l 534 747 l 534 534 l 214 534 m 214 0 l 214 427 l 534 427 l 534 0 l 747 0 l 747 747 l 641 747 l 641 854 l 534 854 l 534 961 l 427 961 l 427 1068 l 320 1068 l 320 961 l 214 961 l 214 854 l 106 854 l 106 747 l 0 747 l 0 0 l 214 0 m 747 1068 l 747 1175 l 641 1175 l 641 1282 l 427 1282 l 427 1175 l 534 1175 l 534 1068 l 747 1068 z "},"Á":{"ha":961,"x_min":-20,"x_max":768,"o":"m -20 1048 l -20 1195 l 86 1195 l 86 1302 l 340 1302 l 340 1154 l 234 1154 l 234 1048 l -20 1048 m -20 -20 l -20 768 l 86 768 l 86 875 l 193 875 l 193 981 l 300 981 l 300 1088 l 448 1088 l 448 981 l 554 981 l 554 875 l 661 875 l 661 768 l 768 768 l 768 -20 l 513 -20 l 513 407 l 234 407 l 234 -20 l -20 -20 m 513 554 l 513 727 l 407 727 l 407 834 l 340 834 l 340 727 l 234 727 l 234 554 l 513 554 m 214 534 l 214 747 l 320 747 l 320 854 l 427 854 l 427 747 l 534 747 l 534 534 l 214 534 m 214 0 l 214 427 l 534 427 l 534 0 l 747 0 l 747 747 l 641 747 l 641 854 l 534 854 l 534 961 l 427 961 l 427 1068 l 320 1068 l 320 961 l 214 961 l 214 854 l 106 854 l 106 747 l 0 747 l 0 0 l 214 0 m 214 1068 l 214 1175 l 320 1175 l 320 1282 l 106 1282 l 106 1175 l 0 1175 l 0 1068 l 214 1068 z "},"Â":{"ha":961,"x_min":-20,"x_max":768,"o":"m -20 1048 l -20 1195 l 86 1195 l 86 1302 l 661 1302 l 661 1195 l 768 1195 l 768 1048 l 513 1048 l 513 1154 l 234 1154 l 234 1048 l -20 1048 m -20 -20 l -20 768 l 86 768 l 86 875 l 193 875 l 193 981 l 300 981 l 300 1088 l 448 1088 l 448 981 l 554 981 l 554 875 l 661 875 l 661 768 l 768 768 l 768 -20 l 513 -20 l 513 407 l 234 407 l 234 -20 l -20 -20 m 513 554 l 513 727 l 407 727 l 407 834 l 340 834 l 340 727 l 234 727 l 234 554 l 513 554 m 214 534 l 214 747 l 320 747 l 320 854 l 427 854 l 427 747 l 534 747 l 534 534 l 214 534 m 214 0 l 214 427 l 534 427 l 534 0 l 747 0 l 747 747 l 641 747 l 641 854 l 534 854 l 534 961 l 427 961 l 427 1068 l 320 1068 l 320 961 l 214 961 l 214 854 l 106 854 l 106 747 l 0 747 l 0 0 l 214 0 m 214 1068 l 214 1175 l 534 1175 l 534 1068 l 747 1068 l 747 1175 l 641 1175 l 641 1282 l 106 1282 l 106 1175 l 0 1175 l 0 1068 l 214 1068 z "},"Ã":{"ha":961,"x_min":-20,"x_max":768,"o":"m -20 1048 l -20 1195 l 86 1195 l 86 1302 l 448 1302 l 448 1195 l 513 1195 l 513 1302 l 768 1302 l 768 1154 l 661 1154 l 661 1048 l 300 1048 l 300 1154 l 234 1154 l 234 1048 l -20 1048 m -20 -20 l -20 661 l 86 661 l 86 768 l 193 768 l 193 875 l 300 875 l 300 981 l 448 981 l 448 875 l 554 875 l 554 768 l 661 768 l 661 661 l 768 661 l 768 -20 l 513 -20 l 513 300 l 234 300 l 234 -20 l -20 -20 m 513 448 l 513 621 l 407 621 l 407 727 l 340 727 l 340 621 l 234 621 l 234 448 l 513 448 m 214 427 l 214 641 l 320 641 l 320 747 l 427 747 l 427 641 l 534 641 l 534 427 l 214 427 m 214 0 l 214 320 l 534 320 l 534 0 l 747 0 l 747 641 l 641 641 l 641 747 l 534 747 l 534 854 l 427 854 l 427 961 l 320 961 l 320 854 l 214 854 l 214 747 l 106 747 l 106 641 l 0 641 l 0 0 l 214 0 m 214 1068 l 214 1175 l 320 1175 l 320 1068 l 641 1068 l 641 1175 l 747 1175 l 747 1282 l 534 1282 l 534 1175 l 427 1175 l 427 1282 l 106 1282 l 106 1175 l 0 1175 l 0 1068 l 214 1068 z "},"Ä":{"ha":961,"x_min":-20,"x_max":768,"o":"m 513 1048 l 513 1195 l 768 1195 l 768 1048 l 513 1048 m -20 1048 l -20 1195 l 234 1195 l 234 1048 l -20 1048 m -20 -20 l -20 661 l 86 661 l 86 768 l 193 768 l 193 875 l 300 875 l 300 981 l 448 981 l 448 875 l 554 875 l 554 768 l 661 768 l 661 661 l 768 661 l 768 -20 l 513 -20 l 513 300 l 234 300 l 234 -20 l -20 -20 m 513 448 l 513 621 l 407 621 l 407 727 l 340 727 l 340 621 l 234 621 l 234 448 l 513 448 m 214 427 l 214 641 l 320 641 l 320 747 l 427 747 l 427 641 l 534 641 l 534 427 l 214 427 m 214 0 l 214 320 l 534 320 l 534 0 l 747 0 l 747 641 l 641 641 l 641 747 l 534 747 l 534 854 l 427 854 l 427 961 l 320 961 l 320 854 l 214 854 l 214 747 l 106 747 l 106 641 l 0 641 l 0 0 l 214 0 m 214 1068 l 214 1175 l 0 1175 l 0 1068 l 214 1068 m 747 1068 l 747 1175 l 534 1175 l 534 1068 l 747 1068 z "},"Å":{"ha":961,"x_min":-20,"x_max":768,"o":"m 193 941 l 193 1048 l 86 1048 l 86 1195 l 193 1195 l 193 1302 l 554 1302 l 554 1195 l 661 1195 l 661 1048 l 554 1048 l 554 941 l 193 941 m 407 1088 l 407 1154 l 340 1154 l 340 1088 l 407 1088 m -20 -20 l -20 661 l 86 661 l 86 768 l 193 768 l 193 875 l 554 875 l 554 768 l 661 768 l 661 661 l 768 661 l 768 -20 l 513 -20 l 513 300 l 234 300 l 234 -20 l -20 -20 m 513 448 l 513 621 l 407 621 l 407 727 l 340 727 l 340 621 l 234 621 l 234 448 l 513 448 m 214 427 l 214 641 l 320 641 l 320 747 l 427 747 l 427 641 l 534 641 l 534 427 l 214 427 m 214 0 l 214 320 l 534 320 l 534 0 l 747 0 l 747 641 l 641 641 l 641 747 l 534 747 l 534 854 l 214 854 l 214 747 l 106 747 l 106 641 l 0 641 l 0 0 l 214 0 m 320 1068 l 320 1175 l 427 1175 l 427 1068 l 320 1068 m 534 961 l 534 1068 l 641 1068 l 641 1175 l 534 1175 l 534 1282 l 214 1282 l 214 1175 l 106 1175 l 106 1068 l 214 1068 l 214 961 l 534 961 z "},"Æ":{"ha":961,"x_min":-20,"x_max":768,"o":"m -20 -20 l -20 875 l 86 875 l 86 981 l 193 981 l 193 1088 l 768 1088 l 768 941 l 661 941 l 661 661 l 768 661 l 768 513 l 661 513 l 661 127 l 768 127 l 768 -20 l 407 -20 l 407 513 l 234 513 l 234 -20 l -20 -20 m 407 661 l 407 941 l 340 941 l 340 834 l 234 834 l 234 661 l 407 661 m 214 641 l 214 854 l 320 854 l 320 961 l 427 961 l 427 641 l 214 641 m 214 0 l 214 534 l 427 534 l 427 0 l 747 0 l 747 106 l 641 106 l 641 534 l 747 534 l 747 641 l 641 641 l 641 961 l 747 961 l 747 1068 l 214 1068 l 214 961 l 106 961 l 106 854 l 0 854 l 0 0 l 214 0 z "},"Ç":{"ha":961,"x_min":-20,"x_max":768,"o":"m 86 -234 l 86 -86 l 513 -86 l 513 -20 l 407 -20 l 407 86 l 193 86 l 193 193 l 86 193 l 86 300 l -20 300 l -20 875 l 86 875 l 86 981 l 193 981 l 193 1088 l 661 1088 l 661 981 l 768 981 l 768 727 l 621 727 l 621 834 l 513 834 l 513 941 l 340 941 l 340 834 l 234 834 l 234 340 l 340 340 l 340 234 l 513 234 l 513 340 l 621 340 l 621 448 l 768 448 l 768 193 l 661 193 l 661 20 l 768 20 l 768 -127 l 661 -127 l 661 -234 l 86 -234 m 641 -214 l 641 -106 l 747 -106 l 747 0 l 641 0 l 641 214 l 747 214 l 747 427 l 641 427 l 641 320 l 534 320 l 534 214 l 320 214 l 320 320 l 214 320 l 214 854 l 320 854 l 320 961 l 534 961 l 534 854 l 641 854 l 641 747 l 747 747 l 747 961 l 641 961 l 641 1068 l 214 1068 l 214 961 l 106 961 l 106 854 l 0 854 l 0 320 l 106 320 l 106 214 l 214 214 l 214 106 l 427 106 l 427 0 l 534 0 l 534 -106 l 106 -106 l 106 -214 l 641 -214 z "},"È":{"ha":961,"x_min":-20,"x_max":768,"o":"m 300 1048 l 300 1154 l 193 1154 l 193 1302 l 448 1302 l 448 1195 l 554 1195 l 554 1048 l 300 1048 m -20 -20 l -20 127 l 86 127 l 86 834 l -20 834 l -20 981 l 768 981 l 768 621 l 621 621 l 621 727 l 513 727 l 513 834 l 340 834 l 340 554 l 407 554 l 407 661 l 554 661 l 554 300 l 407 300 l 407 407 l 340 407 l 340 127 l 513 127 l 513 234 l 621 234 l 621 340 l 768 340 l 768 -20 l -20 -20 m 747 0 l 747 320 l 641 320 l 641 214 l 534 214 l 534 106 l 320 106 l 320 427 l 427 427 l 427 320 l 534 320 l 534 641 l 427 641 l 427 534 l 320 534 l 320 854 l 534 854 l 534 747 l 641 747 l 641 641 l 747 641 l 747 961 l 0 961 l 0 854 l 106 854 l 106 106 l 0 106 l 0 0 l 747 0 m 534 1068 l 534 1175 l 427 1175 l 427 1282 l 214 1282 l 214 1175 l 320 1175 l 320 1068 l 534 1068 z "},"É":{"ha":961,"x_min":-20,"x_max":768,"o":"m 86 941 l 86 1088 l 193 1088 l 193 1195 l 300 1195 l 300 1302 l 554 1302 l 554 1154 l 448 1154 l 448 1048 l 340 1048 l 340 941 l 86 941 m -20 -20 l -20 127 l 86 127 l 86 727 l -20 727 l -20 875 l 768 875 l 768 621 l 513 621 l 513 727 l 340 727 l 340 554 l 661 554 l 661 407 l 340 407 l 340 127 l 513 127 l 513 234 l 768 234 l 768 -20 l -20 -20 m 747 0 l 747 214 l 534 214 l 534 106 l 320 106 l 320 427 l 641 427 l 641 534 l 320 534 l 320 747 l 534 747 l 534 641 l 747 641 l 747 854 l 0 854 l 0 747 l 106 747 l 106 106 l 0 106 l 0 0 l 747 0 m 320 961 l 320 1068 l 427 1068 l 427 1175 l 534 1175 l 534 1282 l 320 1282 l 320 1175 l 214 1175 l 214 1068 l 106 1068 l 106 961 l 320 961 z "},"Ê":{"ha":961,"x_min":-20,"x_max":768,"o":"m 86 1048 l 86 1195 l 193 1195 l 193 1302 l 554 1302 l 554 1195 l 661 1195 l 661 1048 l 407 1048 l 407 1154 l 340 1154 l 340 1048 l 86 1048 m -20 -20 l -20 127 l 86 127 l 86 834 l -20 834 l -20 981 l 768 981 l 768 621 l 621 621 l 621 727 l 513 727 l 513 834 l 340 834 l 340 554 l 407 554 l 407 661 l 554 661 l 554 300 l 407 300 l 407 407 l 340 407 l 340 127 l 513 127 l 513 234 l 621 234 l 621 340 l 768 340 l 768 -20 l -20 -20 m 747 0 l 747 320 l 641 320 l 641 214 l 534 214 l 534 106 l 320 106 l 320 427 l 427 427 l 427 320 l 534 320 l 534 641 l 427 641 l 427 534 l 320 534 l 320 854 l 534 854 l 534 747 l 641 747 l 641 641 l 747 641 l 747 961 l 0 961 l 0 854 l 106 854 l 106 106 l 0 106 l 0 0 l 747 0 m 320 1068 l 320 1175 l 427 1175 l 427 1068 l 641 1068 l 641 1175 l 534 1175 l 534 1282 l 214 1282 l 214 1175 l 106 1175 l 106 1068 l 320 1068 z "},"Ë":{"ha":961,"x_min":-20,"x_max":768,"o":"m 513 1048 l 513 1195 l 768 1195 l 768 1048 l 513 1048 m -20 1048 l -20 1195 l 234 1195 l 234 1048 l -20 1048 m -20 -20 l -20 127 l 86 127 l 86 834 l -20 834 l -20 981 l 768 981 l 768 621 l 621 621 l 621 727 l 513 727 l 513 834 l 340 834 l 340 554 l 407 554 l 407 661 l 554 661 l 554 300 l 407 300 l 407 407 l 340 407 l 340 127 l 513 127 l 513 234 l 621 234 l 621 340 l 768 340 l 768 -20 l -20 -20 m 747 0 l 747 320 l 641 320 l 641 214 l 534 214 l 534 106 l 320 106 l 320 427 l 427 427 l 427 320 l 534 320 l 534 641 l 427 641 l 427 534 l 320 534 l 320 854 l 534 854 l 534 747 l 641 747 l 641 641 l 747 641 l 747 961 l 0 961 l 0 854 l 106 854 l 106 106 l 0 106 l 0 0 l 747 0 m 214 1068 l 214 1175 l 0 1175 l 0 1068 l 214 1068 m 747 1068 l 747 1175 l 534 1175 l 534 1068 l 747 1068 z "},"Ì":{"ha":961,"x_min":193,"x_max":661,"o":"m 300 1048 l 300 1154 l 193 1154 l 193 1302 l 448 1302 l 448 1195 l 554 1195 l 554 1048 l 300 1048 m 193 -20 l 193 127 l 300 127 l 300 834 l 193 834 l 193 981 l 661 981 l 661 834 l 554 834 l 554 127 l 661 127 l 661 -20 l 193 -20 m 641 0 l 641 106 l 534 106 l 534 854 l 641 854 l 641 961 l 214 961 l 214 854 l 320 854 l 320 106 l 214 106 l 214 0 l 641 0 m 534 1068 l 534 1175 l 427 1175 l 427 1282 l 214 1282 l 214 1175 l 320 1175 l 320 1068 l 534 1068 z "},"Í":{"ha":961,"x_min":193,"x_max":661,"o":"m 300 1048 l 300 1195 l 407 1195 l 407 1302 l 661 1302 l 661 1154 l 554 1154 l 554 1048 l 300 1048 m 193 -20 l 193 127 l 300 127 l 300 834 l 193 834 l 193 981 l 661 981 l 661 834 l 554 834 l 554 127 l 661 127 l 661 -20 l 193 -20 m 641 0 l 641 106 l 534 106 l 534 854 l 641 854 l 641 961 l 214 961 l 214 854 l 320 854 l 320 106 l 214 106 l 214 0 l 641 0 m 534 1068 l 534 1175 l 641 1175 l 641 1282 l 427 1282 l 427 1175 l 320 1175 l 320 1068 l 534 1068 z "},"Î":{"ha":961,"x_min":86,"x_max":768,"o":"m 86 1048 l 86 1195 l 193 1195 l 193 1302 l 661 1302 l 661 1195 l 768 1195 l 768 1048 l 513 1048 l 513 1154 l 340 1154 l 340 1048 l 86 1048 m 193 -20 l 193 127 l 300 127 l 300 834 l 193 834 l 193 981 l 661 981 l 661 834 l 554 834 l 554 127 l 661 127 l 661 -20 l 193 -20 m 641 0 l 641 106 l 534 106 l 534 854 l 641 854 l 641 961 l 214 961 l 214 854 l 320 854 l 320 106 l 214 106 l 214 0 l 641 0 m 320 1068 l 320 1175 l 534 1175 l 534 1068 l 747 1068 l 747 1175 l 641 1175 l 641 1282 l 214 1282 l 214 1175 l 106 1175 l 106 1068 l 320 1068 z "},"Ï":{"ha":961,"x_min":86,"x_max":768,"o":"m 513 1048 l 513 1195 l 768 1195 l 768 1048 l 513 1048 m 86 1048 l 86 1195 l 340 1195 l 340 1048 l 86 1048 m 193 -20 l 193 127 l 300 127 l 300 834 l 193 834 l 193 981 l 661 981 l 661 834 l 554 834 l 554 127 l 661 127 l 661 -20 l 193 -20 m 641 0 l 641 106 l 534 106 l 534 854 l 641 854 l 641 961 l 214 961 l 214 854 l 320 854 l 320 106 l 214 106 l 214 0 l 641 0 m 320 1068 l 320 1175 l 106 1175 l 106 1068 l 320 1068 m 747 1068 l 747 1175 l 534 1175 l 534 1068 l 747 1068 z "},"Ð":{"ha":961,"x_min":-20,"x_max":768,"o":"m -20 -20 l -20 127 l 86 127 l 86 513 l -20 513 l -20 661 l 86 661 l 86 941 l -20 941 l -20 1088 l 554 1088 l 554 981 l 661 981 l 661 875 l 768 875 l 768 193 l 661 193 l 661 86 l 554 86 l 554 -20 l -20 -20 m 407 127 l 407 234 l 513 234 l 513 834 l 407 834 l 407 941 l 340 941 l 340 661 l 448 661 l 448 513 l 340 513 l 340 127 l 407 127 m 320 106 l 320 534 l 427 534 l 427 641 l 320 641 l 320 961 l 427 961 l 427 854 l 534 854 l 534 214 l 427 214 l 427 106 l 320 106 m 534 0 l 534 106 l 641 106 l 641 214 l 747 214 l 747 854 l 641 854 l 641 961 l 534 961 l 534 1068 l 0 1068 l 0 961 l 106 961 l 106 641 l 0 641 l 0 534 l 106 534 l 106 106 l 0 106 l 0 0 l 534 0 z "},"Ñ":{"ha":961,"x_min":-20,"x_max":768,"o":"m -20 1048 l -20 1195 l 86 1195 l 86 1302 l 448 1302 l 448 1195 l 513 1195 l 513 1302 l 768 1302 l 768 1154 l 661 1154 l 661 1048 l 300 1048 l 300 1154 l 234 1154 l 234 1048 l -20 1048 m -20 -20 l -20 981 l 234 981 l 234 875 l 340 875 l 340 768 l 448 768 l 448 661 l 513 661 l 513 981 l 768 981 l 768 -20 l 513 -20 l 513 300 l 407 300 l 407 407 l 300 407 l 300 513 l 234 513 l 234 -20 l -20 -20 m 214 0 l 214 534 l 320 534 l 320 427 l 427 427 l 427 320 l 534 320 l 534 0 l 747 0 l 747 961 l 534 961 l 534 641 l 427 641 l 427 747 l 320 747 l 320 854 l 214 854 l 214 961 l 0 961 l 0 0 l 214 0 m 214 1068 l 214 1175 l 320 1175 l 320 1068 l 641 1068 l 641 1175 l 747 1175 l 747 1282 l 534 1282 l 534 1175 l 427 1175 l 427 1282 l 106 1282 l 106 1175 l 0 1175 l 0 1068 l 214 1068 z "},"Ò":{"ha":961,"x_min":-20,"x_max":768,"o":"m 300 1048 l 300 1154 l 193 1154 l 193 1302 l 448 1302 l 448 1195 l 554 1195 l 554 1048 l 300 1048 m 86 -20 l 86 86 l -20 86 l -20 875 l 86 875 l 86 981 l 661 981 l 661 875 l 768 875 l 768 86 l 661 86 l 661 -20 l 86 -20 m 513 127 l 513 834 l 234 834 l 234 127 l 513 127 m 214 106 l 214 854 l 534 854 l 534 106 l 214 106 m 641 0 l 641 106 l 747 106 l 747 854 l 641 854 l 641 961 l 106 961 l 106 854 l 0 854 l 0 106 l 106 106 l 106 0 l 641 0 m 534 1068 l 534 1175 l 427 1175 l 427 1282 l 214 1282 l 214 1175 l 320 1175 l 320 1068 l 534 1068 z "},"Ó":{"ha":961,"x_min":-20,"x_max":768,"o":"m 193 1048 l 193 1195 l 300 1195 l 300 1302 l 554 1302 l 554 1154 l 448 1154 l 448 1048 l 193 1048 m 86 -20 l 86 86 l -20 86 l -20 875 l 86 875 l 86 981 l 661 981 l 661 875 l 768 875 l 768 86 l 661 86 l 661 -20 l 86 -20 m 513 127 l 513 834 l 234 834 l 234 127 l 513 127 m 214 106 l 214 854 l 534 854 l 534 106 l 214 106 m 641 0 l 641 106 l 747 106 l 747 854 l 641 854 l 641 961 l 106 961 l 106 854 l 0 854 l 0 106 l 106 106 l 106 0 l 641 0 m 427 1068 l 427 1175 l 534 1175 l 534 1282 l 320 1282 l 320 1175 l 214 1175 l 214 1068 l 427 1068 z "},"Ô":{"ha":961,"x_min":-20,"x_max":768,"o":"m 86 1048 l 86 1195 l 193 1195 l 193 1302 l 554 1302 l 554 1195 l 661 1195 l 661 1048 l 407 1048 l 407 1154 l 340 1154 l 340 1048 l 86 1048 m 86 -20 l 86 86 l -20 86 l -20 875 l 86 875 l 86 981 l 661 981 l 661 875 l 768 875 l 768 86 l 661 86 l 661 -20 l 86 -20 m 513 127 l 513 834 l 234 834 l 234 127 l 513 127 m 214 106 l 214 854 l 534 854 l 534 106 l 214 106 m 641 0 l 641 106 l 747 106 l 747 854 l 641 854 l 641 961 l 106 961 l 106 854 l 0 854 l 0 106 l 106 106 l 106 0 l 641 0 m 320 1068 l 320 1175 l 427 1175 l 427 1068 l 641 1068 l 641 1175 l 534 1175 l 534 1282 l 214 1282 l 214 1175 l 106 1175 l 106 1068 l 320 1068 z "},"Õ":{"ha":961,"x_min":-20,"x_max":768,"o":"m -20 1048 l -20 1195 l 86 1195 l 86 1302 l 448 1302 l 448 1195 l 513 1195 l 513 1302 l 768 1302 l 768 1154 l 661 1154 l 661 1048 l 300 1048 l 300 1154 l 234 1154 l 234 1048 l -20 1048 m 86 -20 l 86 86 l -20 86 l -20 875 l 86 875 l 86 981 l 661 981 l 661 875 l 768 875 l 768 86 l 661 86 l 661 -20 l 86 -20 m 513 127 l 513 834 l 234 834 l 234 127 l 513 127 m 214 106 l 214 854 l 534 854 l 534 106 l 214 106 m 641 0 l 641 106 l 747 106 l 747 854 l 641 854 l 641 961 l 106 961 l 106 854 l 0 854 l 0 106 l 106 106 l 106 0 l 641 0 m 214 1068 l 214 1175 l 320 1175 l 320 1068 l 641 1068 l 641 1175 l 747 1175 l 747 1282 l 534 1282 l 534 1175 l 427 1175 l 427 1282 l 106 1282 l 106 1175 l 0 1175 l 0 1068 l 214 1068 z "},"Ö":{"ha":961,"x_min":-20,"x_max":768,"o":"m 513 1048 l 513 1195 l 768 1195 l 768 1048 l 513 1048 m -20 1048 l -20 1195 l 234 1195 l 234 1048 l -20 1048 m 86 -20 l 86 86 l -20 86 l -20 875 l 86 875 l 86 981 l 661 981 l 661 875 l 768 875 l 768 86 l 661 86 l 661 -20 l 86 -20 m 513 127 l 513 834 l 234 834 l 234 127 l 513 127 m 214 106 l 214 854 l 534 854 l 534 106 l 214 106 m 641 0 l 641 106 l 747 106 l 747 854 l 641 854 l 641 961 l 106 961 l 106 854 l 0 854 l 0 106 l 106 106 l 106 0 l 641 0 m 214 1068 l 214 1175 l 0 1175 l 0 1068 l 214 1068 m 747 1068 l 747 1175 l 534 1175 l 534 1068 l 747 1068 z "},"×":{"ha":961,"x_min":-20,"x_max":768,"o":"m -20 86 l -20 234 l 86 234 l 86 340 l 193 340 l 193 513 l 86 513 l 86 621 l -20 621 l -20 768 l 234 768 l 234 661 l 340 661 l 340 554 l 407 554 l 407 661 l 513 661 l 513 768 l 768 768 l 768 621 l 661 621 l 661 513 l 554 513 l 554 340 l 661 340 l 661 234 l 768 234 l 768 86 l 513 86 l 513 193 l 407 193 l 407 300 l 340 300 l 340 193 l 234 193 l 234 86 l -20 86 m 214 106 l 214 214 l 320 214 l 320 320 l 427 320 l 427 214 l 534 214 l 534 106 l 747 106 l 747 214 l 641 214 l 641 320 l 534 320 l 534 534 l 641 534 l 641 641 l 747 641 l 747 747 l 534 747 l 534 641 l 427 641 l 427 534 l 320 534 l 320 641 l 214 641 l 214 747 l 0 747 l 0 641 l 106 641 l 106 534 l 214 534 l 214 320 l 106 320 l 106 214 l 0 214 l 0 106 l 214 106 z "},"Ø":{"ha":961,"x_min":-20,"x_max":768,"o":"m 86 -127 l 86 86 l -20 86 l -20 981 l 86 981 l 86 1088 l 513 1088 l 513 1195 l 661 1195 l 661 981 l 768 981 l 768 86 l 661 86 l 661 -20 l 234 -20 l 234 -127 l 86 -127 m 448 727 l 448 300 l 340 300 l 340 127 l 513 127 l 513 727 l 448 727 m 300 340 l 300 768 l 407 768 l 407 941 l 234 941 l 234 340 l 300 340 m 427 320 l 427 747 l 320 747 l 320 320 l 427 320 m 320 106 l 320 320 l 214 320 l 214 961 l 427 961 l 427 747 l 534 747 l 534 106 l 320 106 m 214 -106 l 214 0 l 641 0 l 641 106 l 747 106 l 747 961 l 641 961 l 641 1175 l 534 1175 l 534 1068 l 106 1068 l 106 961 l 0 961 l 0 106 l 106 106 l 106 -106 l 214 -106 z "},"Ù":{"ha":961,"x_min":-20,"x_max":768,"o":"m 300 1048 l 300 1154 l 193 1154 l 193 1302 l 448 1302 l 448 1195 l 554 1195 l 554 1048 l 300 1048 m 86 -20 l 86 86 l -20 86 l -20 981 l 234 981 l 234 127 l 513 127 l 513 981 l 768 981 l 768 86 l 661 86 l 661 -20 l 86 -20 m 641 0 l 641 106 l 747 106 l 747 961 l 534 961 l 534 106 l 214 106 l 214 961 l 0 961 l 0 106 l 106 106 l 106 0 l 641 0 m 534 1068 l 534 1175 l 427 1175 l 427 1282 l 214 1282 l 214 1175 l 320 1175 l 320 1068 l 534 1068 z "},"Ú":{"ha":961,"x_min":-20,"x_max":768,"o":"m 193 1048 l 193 1195 l 300 1195 l 300 1302 l 554 1302 l 554 1154 l 448 1154 l 448 1048 l 193 1048 m 86 -20 l 86 86 l -20 86 l -20 981 l 234 981 l 234 127 l 513 127 l 513 981 l 768 981 l 768 86 l 661 86 l 661 -20 l 86 -20 m 641 0 l 641 106 l 747 106 l 747 961 l 534 961 l 534 106 l 214 106 l 214 961 l 0 961 l 0 106 l 106 106 l 106 0 l 641 0 m 427 1068 l 427 1175 l 534 1175 l 534 1282 l 320 1282 l 320 1175 l 214 1175 l 214 1068 l 427 1068 z "},"Û":{"ha":961,"x_min":-20,"x_max":768,"o":"m 86 1048 l 86 1195 l 193 1195 l 193 1302 l 554 1302 l 554 1195 l 661 1195 l 661 1048 l 407 1048 l 407 1154 l 340 1154 l 340 1048 l 86 1048 m 86 -20 l 86 86 l -20 86 l -20 981 l 234 981 l 234 127 l 513 127 l 513 981 l 768 981 l 768 86 l 661 86 l 661 -20 l 86 -20 m 641 0 l 641 106 l 747 106 l 747 961 l 534 961 l 534 106 l 214 106 l 214 961 l 0 961 l 0 106 l 106 106 l 106 0 l 641 0 m 320 1068 l 320 1175 l 427 1175 l 427 1068 l 641 1068 l 641 1175 l 534 1175 l 534 1282 l 214 1282 l 214 1175 l 106 1175 l 106 1068 l 320 1068 z "},"Ü":{"ha":961,"x_min":-20,"x_max":768,"o":"m 513 1048 l 513 1195 l 768 1195 l 768 1048 l 513 1048 m -20 1048 l -20 1195 l 234 1195 l 234 1048 l -20 1048 m 86 -20 l 86 86 l -20 86 l -20 981 l 234 981 l 234 127 l 513 127 l 513 981 l 768 981 l 768 86 l 661 86 l 661 -20 l 86 -20 m 641 0 l 641 106 l 747 106 l 747 961 l 534 961 l 534 106 l 214 106 l 214 961 l 0 961 l 0 106 l 106 106 l 106 0 l 641 0 m 214 1068 l 214 1175 l 0 1175 l 0 1068 l 214 1068 m 747 1068 l 747 1175 l 534 1175 l 534 1068 l 747 1068 z "},"Ý":{"ha":961,"x_min":-20,"x_max":875,"o":"m 300 1048 l 300 1195 l 407 1195 l 407 1302 l 661 1302 l 661 1154 l 554 1154 l 554 1048 l 300 1048 m 193 -20 l 193 127 l 300 127 l 300 513 l 193 513 l 193 621 l 86 621 l 86 727 l -20 727 l -20 1088 l 234 1088 l 234 768 l 340 768 l 340 661 l 513 661 l 513 768 l 621 768 l 621 1088 l 875 1088 l 875 727 l 768 727 l 768 621 l 661 621 l 661 513 l 554 513 l 554 127 l 661 127 l 661 -20 l 193 -20 m 641 0 l 641 106 l 534 106 l 534 534 l 641 534 l 641 641 l 747 641 l 747 747 l 854 747 l 854 1068 l 641 1068 l 641 747 l 534 747 l 534 641 l 320 641 l 320 747 l 214 747 l 214 1068 l 0 1068 l 0 747 l 106 747 l 106 641 l 214 641 l 214 534 l 320 534 l 320 106 l 214 106 l 214 0 l 641 0 m 534 1068 l 534 1175 l 641 1175 l 641 1282 l 427 1282 l 427 1175 l 320 1175 l 320 1068 l 534 1068 z "},"Þ":{"ha":961,"x_min":-20,"x_max":768,"o":"m -20 -20 l -20 127 l 86 127 l 86 941 l -20 941 l -20 1088 l 448 1088 l 448 941 l 340 941 l 340 875 l 661 875 l 661 768 l 768 768 l 768 300 l 661 300 l 661 193 l 340 193 l 340 127 l 448 127 l 448 -20 l -20 -20 m 513 340 l 513 727 l 340 727 l 340 340 l 513 340 m 320 320 l 320 747 l 534 747 l 534 320 l 320 320 m 427 0 l 427 106 l 320 106 l 320 214 l 641 214 l 641 320 l 747 320 l 747 747 l 641 747 l 641 854 l 320 854 l 320 961 l 427 961 l 427 1068 l 0 1068 l 0 961 l 106 961 l 106 106 l 0 106 l 0 0 l 427 0 z "},"ß":{"ha":961,"x_min":-20,"x_max":768,"o":"m -20 -20 l -20 981 l 86 981 l 86 1088 l 554 1088 l 554 981 l 661 981 l 661 621 l 554 621 l 554 554 l 661 554 l 661 448 l 768 448 l 768 86 l 661 86 l 661 -20 l 407 -20 l 407 127 l 513 127 l 513 407 l 407 407 l 407 513 l 300 513 l 300 661 l 407 661 l 407 941 l 234 941 l 234 -20 l -20 -20 m 214 0 l 214 961 l 427 961 l 427 641 l 320 641 l 320 534 l 427 534 l 427 427 l 534 427 l 534 106 l 427 106 l 427 0 l 641 0 l 641 106 l 747 106 l 747 427 l 641 427 l 641 534 l 534 534 l 534 641 l 641 641 l 641 961 l 534 961 l 534 1068 l 106 1068 l 106 961 l 0 961 l 0 0 l 214 0 z "},"à":{"ha":961,"x_min":-20,"x_max":768,"o":"m 300 834 l 300 941 l 193 941 l 193 1048 l 86 1048 l 86 1195 l 340 1195 l 340 1088 l 448 1088 l 448 981 l 554 981 l 554 834 l 300 834 m 86 -20 l 86 86 l -20 86 l -20 448 l 86 448 l 86 554 l 407 554 l 407 621 l 86 621 l 86 768 l 554 768 l 554 661 l 661 661 l 661 127 l 768 127 l 768 -20 l 513 -20 l 513 86 l 448 86 l 448 -20 l 86 -20 m 407 127 l 407 407 l 234 407 l 234 127 l 407 127 m 214 106 l 214 427 l 427 427 l 427 106 l 214 106 m 427 0 l 427 106 l 534 106 l 534 0 l 747 0 l 747 106 l 641 106 l 641 641 l 534 641 l 534 747 l 106 747 l 106 641 l 427 641 l 427 534 l 106 534 l 106 427 l 0 427 l 0 106 l 106 106 l 106 0 l 427 0 m 534 854 l 534 961 l 427 961 l 427 1068 l 320 1068 l 320 1175 l 106 1175 l 106 1068 l 214 1068 l 214 961 l 320 961 l 320 854 l 534 854 z "},"á":{"ha":961,"x_min":-20,"x_max":768,"o":"m 86 834 l 86 981 l 193 981 l 193 1088 l 300 1088 l 300 1195 l 554 1195 l 554 1048 l 448 1048 l 448 941 l 340 941 l 340 834 l 86 834 m 86 -20 l 86 86 l -20 86 l -20 448 l 86 448 l 86 554 l 407 554 l 407 621 l 86 621 l 86 768 l 554 768 l 554 661 l 661 661 l 661 127 l 768 127 l 768 -20 l 513 -20 l 513 86 l 448 86 l 448 -20 l 86 -20 m 407 127 l 407 407 l 234 407 l 234 127 l 407 127 m 214 106 l 214 427 l 427 427 l 427 106 l 214 106 m 427 0 l 427 106 l 534 106 l 534 0 l 747 0 l 747 106 l 641 106 l 641 641 l 534 641 l 534 747 l 106 747 l 106 641 l 427 641 l 427 534 l 106 534 l 106 427 l 0 427 l 0 106 l 106 106 l 106 0 l 427 0 m 320 854 l 320 961 l 427 961 l 427 1068 l 534 1068 l 534 1175 l 320 1175 l 320 1068 l 214 1068 l 214 961 l 106 961 l 106 854 l 320 854 z "},"â":{"ha":961,"x_min":-20,"x_max":768,"o":"m 86 834 l 86 981 l 193 981 l 193 1088 l 300 1088 l 300 1195 l 448 1195 l 448 1088 l 554 1088 l 554 981 l 661 981 l 661 834 l 407 834 l 407 941 l 340 941 l 340 834 l 86 834 m 86 -20 l 86 86 l -20 86 l -20 448 l 86 448 l 86 554 l 407 554 l 407 621 l 86 621 l 86 768 l 554 768 l 554 661 l 661 661 l 661 127 l 768 127 l 768 -20 l 513 -20 l 513 86 l 448 86 l 448 -20 l 86 -20 m 407 127 l 407 407 l 234 407 l 234 127 l 407 127 m 214 106 l 214 427 l 427 427 l 427 106 l 214 106 m 427 0 l 427 106 l 534 106 l 534 0 l 747 0 l 747 106 l 641 106 l 641 641 l 534 641 l 534 747 l 106 747 l 106 641 l 427 641 l 427 534 l 106 534 l 106 427 l 0 427 l 0 106 l 106 106 l 106 0 l 427 0 m 320 854 l 320 961 l 427 961 l 427 854 l 641 854 l 641 961 l 534 961 l 534 1068 l 427 1068 l 427 1175 l 320 1175 l 320 1068 l 214 1068 l 214 961 l 106 961 l 106 854 l 320 854 z "},"ã":{"ha":961,"x_min":-20,"x_max":768,"o":"m -20 834 l -20 981 l 86 981 l 86 1088 l 448 1088 l 448 981 l 513 981 l 513 1088 l 768 1088 l 768 941 l 661 941 l 661 834 l 300 834 l 300 941 l 234 941 l 234 834 l -20 834 m 86 -20 l 86 86 l -20 86 l -20 448 l 86 448 l 86 554 l 407 554 l 407 621 l 86 621 l 86 768 l 554 768 l 554 661 l 661 661 l 661 127 l 768 127 l 768 -20 l 513 -20 l 513 86 l 448 86 l 448 -20 l 86 -20 m 407 127 l 407 407 l 234 407 l 234 127 l 407 127 m 214 106 l 214 427 l 427 427 l 427 106 l 214 106 m 427 0 l 427 106 l 534 106 l 534 0 l 747 0 l 747 106 l 641 106 l 641 641 l 534 641 l 534 747 l 106 747 l 106 641 l 427 641 l 427 534 l 106 534 l 106 427 l 0 427 l 0 106 l 106 106 l 106 0 l 427 0 m 214 854 l 214 961 l 320 961 l 320 854 l 641 854 l 641 961 l 747 961 l 747 1068 l 534 1068 l 534 961 l 427 961 l 427 1068 l 106 1068 l 106 961 l 0 961 l 0 854 l 214 854 z "},"ä":{"ha":961,"x_min":-20,"x_max":768,"o":"m 407 941 l 407 1088 l 661 1088 l 661 941 l 407 941 m -20 941 l -20 1088 l 234 1088 l 234 941 l -20 941 m 86 -20 l 86 86 l -20 86 l -20 448 l 86 448 l 86 554 l 407 554 l 407 621 l 86 621 l 86 768 l 554 768 l 554 661 l 661 661 l 661 127 l 768 127 l 768 -20 l 513 -20 l 513 86 l 448 86 l 448 -20 l 86 -20 m 407 127 l 407 407 l 234 407 l 234 127 l 407 127 m 214 106 l 214 427 l 427 427 l 427 106 l 214 106 m 427 0 l 427 106 l 534 106 l 534 0 l 747 0 l 747 106 l 641 106 l 641 641 l 534 641 l 534 747 l 106 747 l 106 641 l 427 641 l 427 534 l 106 534 l 106 427 l 0 427 l 0 106 l 106 106 l 106 0 l 427 0 m 214 961 l 214 1068 l 0 1068 l 0 961 l 214 961 m 641 961 l 641 1068 l 427 1068 l 427 961 l 641 961 z "},"å":{"ha":961,"x_min":-20,"x_max":768,"o":"m 193 834 l 193 941 l 86 941 l 86 1088 l 193 1088 l 193 1195 l 554 1195 l 554 1088 l 661 1088 l 661 941 l 554 941 l 554 834 l 193 834 m 407 981 l 407 1048 l 340 1048 l 340 981 l 407 981 m 86 -20 l 86 86 l -20 86 l -20 448 l 86 448 l 86 554 l 407 554 l 407 621 l 86 621 l 86 768 l 554 768 l 554 661 l 661 661 l 661 127 l 768 127 l 768 -20 l 513 -20 l 513 86 l 448 86 l 448 -20 l 86 -20 m 407 127 l 407 407 l 234 407 l 234 127 l 407 127 m 214 106 l 214 427 l 427 427 l 427 106 l 214 106 m 320 961 l 320 1068 l 427 1068 l 427 961 l 320 961 m 427 0 l 427 106 l 534 106 l 534 0 l 747 0 l 747 106 l 641 106 l 641 641 l 534 641 l 534 747 l 106 747 l 106 641 l 427 641 l 427 534 l 106 534 l 106 427 l 0 427 l 0 106 l 106 106 l 106 0 l 427 0 m 534 854 l 534 961 l 641 961 l 641 1068 l 534 1068 l 534 1175 l 214 1175 l 214 1068 l 106 1068 l 106 961 l 214 961 l 214 854 l 534 854 z "},"æ":{"ha":961,"x_min":-20,"x_max":875,"o":"m 86 -20 l 86 86 l -20 86 l -20 340 l 86 340 l 86 448 l 300 448 l 300 513 l 193 513 l 193 621 l 86 621 l 86 768 l 340 768 l 340 661 l 407 661 l 407 768 l 768 768 l 768 661 l 875 661 l 875 407 l 768 407 l 768 300 l 554 300 l 554 234 l 661 234 l 661 127 l 875 127 l 875 -20 l 513 -20 l 513 86 l 448 86 l 448 -20 l 86 -20 m 621 448 l 621 621 l 554 621 l 554 448 l 621 448 m 300 127 l 300 300 l 234 300 l 234 127 l 300 127 m 214 106 l 214 320 l 320 320 l 320 106 l 214 106 m 534 427 l 534 641 l 641 641 l 641 427 l 534 427 m 427 0 l 427 106 l 534 106 l 534 0 l 854 0 l 854 106 l 641 106 l 641 214 l 534 214 l 534 320 l 747 320 l 747 427 l 854 427 l 854 641 l 747 641 l 747 747 l 427 747 l 427 641 l 320 641 l 320 747 l 106 747 l 106 641 l 214 641 l 214 534 l 320 534 l 320 427 l 106 427 l 106 320 l 0 320 l 0 106 l 106 106 l 106 0 l 427 0 z "},"ç":{"ha":961,"x_min":86,"x_max":768,"o":"m 193 -127 l 193 20 l 513 20 l 513 86 l 407 86 l 407 193 l 193 193 l 193 300 l 86 300 l 86 768 l 193 768 l 193 875 l 661 875 l 661 768 l 768 768 l 768 621 l 513 621 l 513 727 l 340 727 l 340 340 l 513 340 l 513 448 l 768 448 l 768 300 l 661 300 l 661 127 l 768 127 l 768 -20 l 661 -20 l 661 -127 l 193 -127 m 641 -106 l 641 0 l 747 0 l 747 106 l 641 106 l 641 320 l 747 320 l 747 427 l 534 427 l 534 320 l 320 320 l 320 747 l 534 747 l 534 641 l 747 641 l 747 747 l 641 747 l 641 854 l 214 854 l 214 747 l 106 747 l 106 320 l 214 320 l 214 214 l 427 214 l 427 106 l 534 106 l 534 0 l 214 0 l 214 -106 l 641 -106 z "},"è":{"ha":961,"x_min":-20,"x_max":768,"o":"m 300 834 l 300 941 l 193 941 l 193 1048 l 86 1048 l 86 1195 l 340 1195 l 340 1088 l 448 1088 l 448 981 l 554 981 l 554 834 l 300 834 m 86 -20 l 86 86 l -20 86 l -20 661 l 86 661 l 86 768 l 661 768 l 661 661 l 768 661 l 768 407 l 234 407 l 234 127 l 513 127 l 513 234 l 768 234 l 768 86 l 661 86 l 661 -20 l 86 -20 m 513 554 l 513 621 l 234 621 l 234 554 l 513 554 m 214 534 l 214 641 l 534 641 l 534 534 l 214 534 m 641 0 l 641 106 l 747 106 l 747 214 l 534 214 l 534 106 l 214 106 l 214 427 l 747 427 l 747 641 l 641 641 l 641 747 l 106 747 l 106 641 l 0 641 l 0 106 l 106 106 l 106 0 l 641 0 m 534 854 l 534 961 l 427 961 l 427 1068 l 320 1068 l 320 1175 l 106 1175 l 106 1068 l 214 1068 l 214 961 l 320 961 l 320 854 l 534 854 z "},"é":{"ha":961,"x_min":-20,"x_max":768,"o":"m 193 834 l 193 981 l 300 981 l 300 1088 l 407 1088 l 407 1195 l 661 1195 l 661 1048 l 554 1048 l 554 941 l 448 941 l 448 834 l 193 834 m 86 -20 l 86 86 l -20 86 l -20 661 l 86 661 l 86 768 l 661 768 l 661 661 l 768 661 l 768 407 l 234 407 l 234 127 l 513 127 l 513 234 l 768 234 l 768 86 l 661 86 l 661 -20 l 86 -20 m 513 554 l 513 621 l 234 621 l 234 554 l 513 554 m 214 534 l 214 641 l 534 641 l 534 534 l 214 534 m 641 0 l 641 106 l 747 106 l 747 214 l 534 214 l 534 106 l 214 106 l 214 427 l 747 427 l 747 641 l 641 641 l 641 747 l 106 747 l 106 641 l 0 641 l 0 106 l 106 106 l 106 0 l 641 0 m 427 854 l 427 961 l 534 961 l 534 1068 l 641 1068 l 641 1175 l 427 1175 l 427 1068 l 320 1068 l 320 961 l 214 961 l 214 854 l 427 854 z "},"ê":{"ha":961,"x_min":-20,"x_max":768,"o":"m 86 834 l 86 981 l 193 981 l 193 1088 l 300 1088 l 300 1195 l 448 1195 l 448 1088 l 554 1088 l 554 981 l 661 981 l 661 834 l 407 834 l 407 941 l 340 941 l 340 834 l 86 834 m 86 -20 l 86 86 l -20 86 l -20 661 l 86 661 l 86 768 l 661 768 l 661 661 l 768 661 l 768 407 l 234 407 l 234 127 l 513 127 l 513 234 l 768 234 l 768 86 l 661 86 l 661 -20 l 86 -20 m 513 554 l 513 621 l 234 621 l 234 554 l 513 554 m 214 534 l 214 641 l 534 641 l 534 534 l 214 534 m 641 0 l 641 106 l 747 106 l 747 214 l 534 214 l 534 106 l 214 106 l 214 427 l 747 427 l 747 641 l 641 641 l 641 747 l 106 747 l 106 641 l 0 641 l 0 106 l 106 106 l 106 0 l 641 0 m 320 854 l 320 961 l 427 961 l 427 854 l 641 854 l 641 961 l 534 961 l 534 1068 l 427 1068 l 427 1175 l 320 1175 l 320 1068 l 214 1068 l 214 961 l 106 961 l 106 854 l 320 854 z "},"ë":{"ha":961,"x_min":-20,"x_max":768,"o":"m 513 941 l 513 1088 l 768 1088 l 768 941 l 513 941 m -20 941 l -20 1088 l 234 1088 l 234 941 l -20 941 m 86 -20 l 86 86 l -20 86 l -20 661 l 86 661 l 86 768 l 661 768 l 661 661 l 768 661 l 768 407 l 234 407 l 234 127 l 513 127 l 513 234 l 768 234 l 768 86 l 661 86 l 661 -20 l 86 -20 m 513 554 l 513 621 l 234 621 l 234 554 l 513 554 m 214 534 l 214 641 l 534 641 l 534 534 l 214 534 m 641 0 l 641 106 l 747 106 l 747 214 l 534 214 l 534 106 l 214 106 l 214 427 l 747 427 l 747 641 l 641 641 l 641 747 l 106 747 l 106 641 l 0 641 l 0 106 l 106 106 l 106 0 l 641 0 m 214 961 l 214 1068 l 0 1068 l 0 961 l 214 961 m 747 961 l 747 1068 l 534 1068 l 534 961 l 747 961 z "},"ì":{"ha":961,"x_min":86,"x_max":661,"o":"m 300 834 l 300 941 l 193 941 l 193 1048 l 86 1048 l 86 1195 l 340 1195 l 340 1088 l 448 1088 l 448 981 l 554 981 l 554 834 l 300 834 m 193 -20 l 193 127 l 300 127 l 300 621 l 193 621 l 193 768 l 554 768 l 554 127 l 661 127 l 661 -20 l 193 -20 m 641 0 l 641 106 l 534 106 l 534 747 l 214 747 l 214 641 l 320 641 l 320 106 l 214 106 l 214 0 l 641 0 m 534 854 l 534 961 l 427 961 l 427 1068 l 320 1068 l 320 1175 l 106 1175 l 106 1068 l 214 1068 l 214 961 l 320 961 l 320 854 l 534 854 z "},"í":{"ha":961,"x_min":193,"x_max":661,"o":"m 193 834 l 193 981 l 300 981 l 300 1088 l 407 1088 l 407 1195 l 661 1195 l 661 1048 l 554 1048 l 554 941 l 448 941 l 448 834 l 193 834 m 193 -20 l 193 127 l 300 127 l 300 621 l 193 621 l 193 768 l 554 768 l 554 127 l 661 127 l 661 -20 l 193 -20 m 641 0 l 641 106 l 534 106 l 534 747 l 214 747 l 214 641 l 320 641 l 320 106 l 214 106 l 214 0 l 641 0 m 427 854 l 427 961 l 534 961 l 534 1068 l 641 1068 l 641 1175 l 427 1175 l 427 1068 l 320 1068 l 320 961 l 214 961 l 214 854 l 427 854 z "},"î":{"ha":961,"x_min":86,"x_max":768,"o":"m 86 834 l 86 981 l 193 981 l 193 1088 l 300 1088 l 300 1195 l 554 1195 l 554 1088 l 661 1088 l 661 981 l 768 981 l 768 834 l 513 834 l 513 941 l 340 941 l 340 834 l 86 834 m 193 -20 l 193 127 l 300 127 l 300 621 l 193 621 l 193 768 l 554 768 l 554 127 l 661 127 l 661 -20 l 193 -20 m 641 0 l 641 106 l 534 106 l 534 747 l 214 747 l 214 641 l 320 641 l 320 106 l 214 106 l 214 0 l 641 0 m 320 854 l 320 961 l 534 961 l 534 854 l 747 854 l 747 961 l 641 961 l 641 1068 l 534 1068 l 534 1175 l 320 1175 l 320 1068 l 214 1068 l 214 961 l 106 961 l 106 854 l 320 854 z "},"ï":{"ha":961,"x_min":86,"x_max":768,"o":"m 513 941 l 513 1088 l 768 1088 l 768 941 l 513 941 m 86 941 l 86 1088 l 340 1088 l 340 941 l 86 941 m 193 -20 l 193 127 l 300 127 l 300 621 l 193 621 l 193 768 l 554 768 l 554 127 l 661 127 l 661 -20 l 193 -20 m 641 0 l 641 106 l 534 106 l 534 747 l 214 747 l 214 641 l 320 641 l 320 106 l 214 106 l 214 0 l 641 0 m 320 961 l 320 1068 l 106 1068 l 106 961 l 320 961 m 747 961 l 747 1068 l 534 1068 l 534 961 l 747 961 z "},"ð":{"ha":961,"x_min":86,"x_max":768,"o":"m 513 981 l 513 1088 l 661 1088 l 661 941 l 554 941 l 554 875 l 661 875 l 661 768 l 768 768 l 768 86 l 661 86 l 661 -20 l 193 -20 l 193 86 l 86 86 l 86 554 l 193 554 l 193 661 l 513 661 l 513 727 l 407 727 l 407 834 l 340 834 l 340 727 l 193 727 l 193 875 l 300 875 l 300 941 l 193 941 l 193 1088 l 448 1088 l 448 981 l 513 981 m 513 127 l 513 513 l 340 513 l 340 127 l 513 127 m 320 106 l 320 534 l 534 534 l 534 106 l 320 106 m 427 961 l 427 1068 l 214 1068 l 214 961 l 320 961 l 320 854 l 214 854 l 214 747 l 320 747 l 320 854 l 427 854 l 427 747 l 534 747 l 534 641 l 214 641 l 214 534 l 106 534 l 106 106 l 214 106 l 214 0 l 641 0 l 641 106 l 747 106 l 747 747 l 641 747 l 641 854 l 534 854 l 534 961 l 641 961 l 641 1068 l 534 1068 l 534 961 l 427 961 z "},"ñ":{"ha":961,"x_min":-20,"x_max":768,"o":"m -20 834 l -20 981 l 86 981 l 86 1088 l 448 1088 l 448 981 l 513 981 l 513 1088 l 768 1088 l 768 941 l 661 941 l 661 834 l 300 834 l 300 941 l 234 941 l 234 834 l -20 834 m 513 -20 l 513 621 l 340 621 l 340 -20 l 86 -20 l 86 621 l -20 621 l -20 768 l 234 768 l 234 661 l 300 661 l 300 768 l 661 768 l 661 661 l 768 661 l 768 -20 l 513 -20 m 747 0 l 747 641 l 641 641 l 641 747 l 320 747 l 320 641 l 214 641 l 214 747 l 0 747 l 0 641 l 106 641 l 106 0 l 320 0 l 320 641 l 534 641 l 534 0 l 747 0 m 214 854 l 214 961 l 320 961 l 320 854 l 641 854 l 641 961 l 747 961 l 747 1068 l 534 1068 l 534 961 l 427 961 l 427 1068 l 106 1068 l 106 961 l 0 961 l 0 854 l 214 854 z "},"ò":{"ha":961,"x_min":-20,"x_max":768,"o":"m 300 834 l 300 941 l 193 941 l 193 1048 l 86 1048 l 86 1195 l 340 1195 l 340 1088 l 448 1088 l 448 981 l 554 981 l 554 834 l 300 834 m 86 -20 l 86 86 l -20 86 l -20 661 l 86 661 l 86 768 l 661 768 l 661 661 l 768 661 l 768 86 l 661 86 l 661 -20 l 86 -20 m 513 127 l 513 621 l 234 621 l 234 127 l 513 127 m 214 106 l 214 641 l 534 641 l 534 106 l 214 106 m 641 0 l 641 106 l 747 106 l 747 641 l 641 641 l 641 747 l 106 747 l 106 641 l 0 641 l 0 106 l 106 106 l 106 0 l 641 0 m 534 854 l 534 961 l 427 961 l 427 1068 l 320 1068 l 320 1175 l 106 1175 l 106 1068 l 214 1068 l 214 961 l 320 961 l 320 854 l 534 854 z "},"ó":{"ha":961,"x_min":-20,"x_max":768,"o":"m 86 834 l 86 981 l 193 981 l 193 1088 l 300 1088 l 300 1195 l 554 1195 l 554 1048 l 448 1048 l 448 941 l 340 941 l 340 834 l 86 834 m 86 -20 l 86 86 l -20 86 l -20 661 l 86 661 l 86 768 l 661 768 l 661 661 l 768 661 l 768 86 l 661 86 l 661 -20 l 86 -20 m 513 127 l 513 621 l 234 621 l 234 127 l 513 127 m 214 106 l 214 641 l 534 641 l 534 106 l 214 106 m 641 0 l 641 106 l 747 106 l 747 641 l 641 641 l 641 747 l 106 747 l 106 641 l 0 641 l 0 106 l 106 106 l 106 0 l 641 0 m 320 854 l 320 961 l 427 961 l 427 1068 l 534 1068 l 534 1175 l 320 1175 l 320 1068 l 214 1068 l 214 961 l 106 961 l 106 854 l 320 854 z "},"ô":{"ha":961,"x_min":-20,"x_max":768,"o":"m 86 834 l 86 981 l 193 981 l 193 1088 l 300 1088 l 300 1195 l 448 1195 l 448 1088 l 554 1088 l 554 981 l 661 981 l 661 834 l 407 834 l 407 941 l 340 941 l 340 834 l 86 834 m 86 -20 l 86 86 l -20 86 l -20 661 l 86 661 l 86 768 l 661 768 l 661 661 l 768 661 l 768 86 l 661 86 l 661 -20 l 86 -20 m 513 127 l 513 621 l 234 621 l 234 127 l 513 127 m 214 106 l 214 641 l 534 641 l 534 106 l 214 106 m 641 0 l 641 106 l 747 106 l 747 641 l 641 641 l 641 747 l 106 747 l 106 641 l 0 641 l 0 106 l 106 106 l 106 0 l 641 0 m 320 854 l 320 961 l 427 961 l 427 854 l 641 854 l 641 961 l 534 961 l 534 1068 l 427 1068 l 427 1175 l 320 1175 l 320 1068 l 214 1068 l 214 961 l 106 961 l 106 854 l 320 854 z "},"õ":{"ha":961,"x_min":-20,"x_max":768,"o":"m -20 834 l -20 981 l 86 981 l 86 1088 l 448 1088 l 448 981 l 513 981 l 513 1088 l 768 1088 l 768 941 l 661 941 l 661 834 l 300 834 l 300 941 l 234 941 l 234 834 l -20 834 m 86 -20 l 86 86 l -20 86 l -20 661 l 86 661 l 86 768 l 661 768 l 661 661 l 768 661 l 768 86 l 661 86 l 661 -20 l 86 -20 m 513 127 l 513 621 l 234 621 l 234 127 l 513 127 m 214 106 l 214 641 l 534 641 l 534 106 l 214 106 m 641 0 l 641 106 l 747 106 l 747 641 l 641 641 l 641 747 l 106 747 l 106 641 l 0 641 l 0 106 l 106 106 l 106 0 l 641 0 m 214 854 l 214 961 l 320 961 l 320 854 l 641 854 l 641 961 l 747 961 l 747 1068 l 534 1068 l 534 961 l 427 961 l 427 1068 l 106 1068 l 106 961 l 0 961 l 0 854 l 214 854 z "},"ö":{"ha":961,"x_min":-20,"x_max":768,"o":"m 513 941 l 513 1088 l 768 1088 l 768 941 l 513 941 m -20 941 l -20 1088 l 234 1088 l 234 941 l -20 941 m 86 -20 l 86 86 l -20 86 l -20 661 l 86 661 l 86 768 l 661 768 l 661 661 l 768 661 l 768 86 l 661 86 l 661 -20 l 86 -20 m 513 127 l 513 621 l 234 621 l 234 127 l 513 127 m 214 106 l 214 641 l 534 641 l 534 106 l 214 106 m 641 0 l 641 106 l 747 106 l 747 641 l 641 641 l 641 747 l 106 747 l 106 641 l 0 641 l 0 106 l 106 106 l 106 0 l 641 0 m 214 961 l 214 1068 l 0 1068 l 0 961 l 214 961 m 747 961 l 747 1068 l 534 1068 l 534 961 l 747 961 z "},"÷":{"ha":961,"x_min":86,"x_max":768,"o":"m 300 621 l 300 875 l 554 875 l 554 621 l 300 621 m 86 407 l 86 554 l 768 554 l 768 407 l 86 407 m 300 86 l 300 340 l 554 340 l 554 86 l 300 86 m 534 106 l 534 320 l 320 320 l 320 106 l 534 106 m 747 427 l 747 534 l 106 534 l 106 427 l 747 427 m 534 641 l 534 854 l 320 854 l 320 641 l 534 641 z "},"ø":{"ha":961,"x_min":-20,"x_max":768,"o":"m 86 -20 l 86 86 l -20 86 l -20 661 l 86 661 l 86 768 l 661 768 l 661 661 l 768 661 l 768 86 l 661 86 l 661 -20 l 86 -20 m 300 448 l 300 554 l 407 554 l 407 621 l 234 621 l 234 448 l 300 448 m 513 127 l 513 407 l 448 407 l 448 300 l 340 300 l 340 193 l 234 193 l 234 127 l 513 127 m 214 106 l 214 214 l 320 214 l 320 320 l 427 320 l 427 427 l 534 427 l 534 106 l 214 106 m 214 427 l 214 641 l 427 641 l 427 534 l 320 534 l 320 427 l 214 427 m 641 0 l 641 106 l 747 106 l 747 641 l 641 641 l 641 747 l 106 747 l 106 641 l 0 641 l 0 106 l 106 106 l 106 0 l 641 0 z "},"ù":{"ha":961,"x_min":-20,"x_max":768,"o":"m 300 834 l 300 941 l 193 941 l 193 1048 l 86 1048 l 86 1195 l 340 1195 l 340 1088 l 448 1088 l 448 981 l 554 981 l 554 834 l 300 834 m 513 -20 l 513 86 l 448 86 l 448 -20 l 86 -20 l 86 86 l -20 86 l -20 768 l 234 768 l 234 127 l 407 127 l 407 768 l 661 768 l 661 127 l 768 127 l 768 -20 l 513 -20 m 747 0 l 747 106 l 641 106 l 641 747 l 427 747 l 427 106 l 214 106 l 214 747 l 0 747 l 0 106 l 106 106 l 106 0 l 427 0 l 427 106 l 534 106 l 534 0 l 747 0 m 534 854 l 534 961 l 427 961 l 427 1068 l 320 1068 l 320 1175 l 106 1175 l 106 1068 l 214 1068 l 214 961 l 320 961 l 320 854 l 534 854 z "},"ú":{"ha":961,"x_min":-20,"x_max":768,"o":"m 86 834 l 86 981 l 193 981 l 193 1088 l 300 1088 l 300 1195 l 554 1195 l 554 1048 l 448 1048 l 448 941 l 340 941 l 340 834 l 86 834 m 513 -20 l 513 86 l 448 86 l 448 -20 l 86 -20 l 86 86 l -20 86 l -20 768 l 234 768 l 234 127 l 407 127 l 407 768 l 661 768 l 661 127 l 768 127 l 768 -20 l 513 -20 m 747 0 l 747 106 l 641 106 l 641 747 l 427 747 l 427 106 l 214 106 l 214 747 l 0 747 l 0 106 l 106 106 l 106 0 l 427 0 l 427 106 l 534 106 l 534 0 l 747 0 m 320 854 l 320 961 l 427 961 l 427 1068 l 534 1068 l 534 1175 l 320 1175 l 320 1068 l 214 1068 l 214 961 l 106 961 l 106 854 l 320 854 z "},"û":{"ha":961,"x_min":-20,"x_max":768,"o":"m -20 834 l -20 981 l 86 981 l 86 1088 l 193 1088 l 193 1195 l 448 1195 l 448 1088 l 554 1088 l 554 981 l 661 981 l 661 834 l 407 834 l 407 941 l 234 941 l 234 834 l -20 834 m 513 -20 l 513 86 l 448 86 l 448 -20 l 86 -20 l 86 86 l -20 86 l -20 768 l 234 768 l 234 127 l 407 127 l 407 768 l 661 768 l 661 127 l 768 127 l 768 -20 l 513 -20 m 747 0 l 747 106 l 641 106 l 641 747 l 427 747 l 427 106 l 214 106 l 214 747 l 0 747 l 0 106 l 106 106 l 106 0 l 427 0 l 427 106 l 534 106 l 534 0 l 747 0 m 214 854 l 214 961 l 427 961 l 427 854 l 641 854 l 641 961 l 534 961 l 534 1068 l 427 1068 l 427 1175 l 214 1175 l 214 1068 l 106 1068 l 106 961 l 0 961 l 0 854 l 214 854 z "},"ü":{"ha":961,"x_min":-20,"x_max":768,"o":"m 407 941 l 407 1088 l 661 1088 l 661 941 l 407 941 m -20 941 l -20 1088 l 234 1088 l 234 941 l -20 941 m 513 -20 l 513 86 l 448 86 l 448 -20 l 86 -20 l 86 86 l -20 86 l -20 768 l 234 768 l 234 127 l 407 127 l 407 768 l 661 768 l 661 127 l 768 127 l 768 -20 l 513 -20 m 747 0 l 747 106 l 641 106 l 641 747 l 427 747 l 427 106 l 214 106 l 214 747 l 0 747 l 0 106 l 106 106 l 106 0 l 427 0 l 427 106 l 534 106 l 534 0 l 747 0 m 214 961 l 214 1068 l 0 1068 l 0 961 l 214 961 m 641 961 l 641 1068 l 427 1068 l 427 961 l 641 961 z "},"ý":{"ha":961,"x_min":-20,"x_max":768,"o":"m 193 834 l 193 981 l 300 981 l 300 1088 l 407 1088 l 407 1195 l 661 1195 l 661 1048 l 554 1048 l 554 941 l 448 941 l 448 834 l 193 834 m -20 -340 l -20 -193 l 407 -193 l 407 -86 l 513 -86 l 513 -20 l 86 -20 l 86 86 l -20 86 l -20 768 l 234 768 l 234 127 l 513 127 l 513 768 l 768 768 l 768 -127 l 661 -127 l 661 -234 l 554 -234 l 554 -340 l -20 -340 m 534 -320 l 534 -214 l 641 -214 l 641 -106 l 747 -106 l 747 747 l 534 747 l 534 106 l 214 106 l 214 747 l 0 747 l 0 106 l 106 106 l 106 0 l 534 0 l 534 -106 l 427 -106 l 427 -214 l 0 -214 l 0 -320 l 534 -320 m 427 854 l 427 961 l 534 961 l 534 1068 l 641 1068 l 641 1175 l 427 1175 l 427 1068 l 320 1068 l 320 961 l 214 961 l 214 854 l 427 854 z "},"þ":{"ha":961,"x_min":-20,"x_max":768,"o":"m -20 -340 l -20 -193 l 86 -193 l 86 941 l -20 941 l -20 1088 l 340 1088 l 340 768 l 661 768 l 661 661 l 768 661 l 768 86 l 661 86 l 661 -20 l 340 -20 l 340 -193 l 448 -193 l 448 -340 l -20 -340 m 513 127 l 513 621 l 340 621 l 340 127 l 513 127 m 320 106 l 320 641 l 534 641 l 534 106 l 320 106 m 427 -320 l 427 -214 l 320 -214 l 320 0 l 641 0 l 641 106 l 747 106 l 747 641 l 641 641 l 641 747 l 320 747 l 320 1068 l 0 1068 l 0 961 l 106 961 l 106 -214 l 0 -214 l 0 -320 l 427 -320 z "},"ÿ":{"ha":961,"x_min":-20,"x_max":768,"o":"m 513 941 l 513 1088 l 768 1088 l 768 941 l 513 941 m -20 941 l -20 1088 l 234 1088 l 234 941 l -20 941 m -20 -340 l -20 -193 l 407 -193 l 407 -86 l 513 -86 l 513 -20 l 86 -20 l 86 86 l -20 86 l -20 768 l 234 768 l 234 127 l 513 127 l 513 768 l 768 768 l 768 -127 l 661 -127 l 661 -234 l 554 -234 l 554 -340 l -20 -340 m 534 -320 l 534 -214 l 641 -214 l 641 -106 l 747 -106 l 747 747 l 534 747 l 534 106 l 214 106 l 214 747 l 0 747 l 0 106 l 106 106 l 106 0 l 534 0 l 534 -106 l 427 -106 l 427 -214 l 0 -214 l 0 -320 l 534 -320 m 214 961 l 214 1068 l 0 1068 l 0 961 l 214 961 m 747 961 l 747 1068 l 534 1068 l 534 961 l 747 961 z "},"Ā":{"ha":961,"x_min":-20,"x_max":768,"o":"m 86 1154 l 86 1302 l 661 1302 l 661 1154 l 86 1154 m -20 -20 l -20 768 l 86 768 l 86 875 l 193 875 l 193 981 l 300 981 l 300 1088 l 448 1088 l 448 981 l 554 981 l 554 875 l 661 875 l 661 768 l 768 768 l 768 -20 l 513 -20 l 513 407 l 234 407 l 234 -20 l -20 -20 m 513 554 l 513 727 l 407 727 l 407 834 l 340 834 l 340 727 l 234 727 l 234 554 l 513 554 m 214 534 l 214 747 l 320 747 l 320 854 l 427 854 l 427 747 l 534 747 l 534 534 l 214 534 m 214 0 l 214 427 l 534 427 l 534 0 l 747 0 l 747 747 l 641 747 l 641 854 l 534 854 l 534 961 l 427 961 l 427 1068 l 320 1068 l 320 961 l 214 961 l 214 854 l 106 854 l 106 747 l 0 747 l 0 0 l 214 0 m 641 1175 l 641 1282 l 106 1282 l 106 1175 l 641 1175 z "},"ā":{"ha":961,"x_min":-20,"x_max":768,"o":"m 86 941 l 86 1088 l 661 1088 l 661 941 l 86 941 m 86 -20 l 86 86 l -20 86 l -20 448 l 86 448 l 86 554 l 407 554 l 407 621 l 86 621 l 86 768 l 554 768 l 554 661 l 661 661 l 661 127 l 768 127 l 768 -20 l 513 -20 l 513 86 l 448 86 l 448 -20 l 86 -20 m 407 127 l 407 407 l 234 407 l 234 127 l 407 127 m 214 106 l 214 427 l 427 427 l 427 106 l 214 106 m 427 0 l 427 106 l 534 106 l 534 0 l 747 0 l 747 106 l 641 106 l 641 641 l 534 641 l 534 747 l 106 747 l 106 641 l 427 641 l 427 534 l 106 534 l 106 427 l 0 427 l 0 106 l 106 106 l 106 0 l 427 0 m 641 961 l 641 1068 l 106 1068 l 106 961 l 641 961 z "},"Ă":{"ha":961,"x_min":-20,"x_max":768,"o":"m 86 1048 l 86 1154 l -20 1154 l -20 1302 l 234 1302 l 234 1195 l 513 1195 l 513 1302 l 768 1302 l 768 1154 l 661 1154 l 661 1048 l 86 1048 m -20 -20 l -20 661 l 86 661 l 86 768 l 193 768 l 193 875 l 300 875 l 300 981 l 448 981 l 448 875 l 554 875 l 554 768 l 661 768 l 661 661 l 768 661 l 768 -20 l 513 -20 l 513 300 l 234 300 l 234 -20 l -20 -20 m 513 448 l 513 621 l 407 621 l 407 727 l 340 727 l 340 621 l 234 621 l 234 448 l 513 448 m 214 427 l 214 641 l 320 641 l 320 747 l 427 747 l 427 641 l 534 641 l 534 427 l 214 427 m 214 0 l 214 320 l 534 320 l 534 0 l 747 0 l 747 641 l 641 641 l 641 747 l 534 747 l 534 854 l 427 854 l 427 961 l 320 961 l 320 854 l 214 854 l 214 747 l 106 747 l 106 641 l 0 641 l 0 0 l 214 0 m 641 1068 l 641 1175 l 747 1175 l 747 1282 l 534 1282 l 534 1175 l 214 1175 l 214 1282 l 0 1282 l 0 1175 l 106 1175 l 106 1068 l 641 1068 z "},"ă":{"ha":961,"x_min":-20,"x_max":768,"o":"m 86 -20 l 86 86 l -20 86 l -20 448 l 86 448 l 86 554 l 407 554 l 407 621 l 86 621 l 86 768 l 554 768 l 554 661 l 661 661 l 661 127 l 768 127 l 768 -20 l 513 -20 l 513 86 l 448 86 l 448 -20 l 86 -20 m 407 127 l 407 407 l 234 407 l 234 127 l 407 127 m 214 106 l 214 427 l 427 427 l 427 106 l 214 106 m 427 0 l 427 106 l 534 106 l 534 0 l 747 0 l 747 106 l 641 106 l 641 641 l 534 641 l 534 747 l 106 747 l 106 641 l 427 641 l 427 534 l 106 534 l 106 427 l 0 427 l 0 106 l 106 106 l 106 0 l 427 0 z "},"Ą":{"ha":961,"x_min":-20,"x_max":768,"o":"m -20 -20 l -20 768 l 86 768 l 86 875 l 193 875 l 193 981 l 300 981 l 300 1088 l 448 1088 l 448 981 l 554 981 l 554 875 l 661 875 l 661 768 l 768 768 l 768 -20 l 554 -20 l 554 -127 l 448 -127 l 448 -193 l 768 -193 l 768 -340 l 300 -340 l 300 -234 l 193 -234 l 193 -86 l 300 -86 l 300 20 l 513 20 l 513 407 l 234 407 l 234 -20 l -20 -20 m 513 554 l 513 727 l 407 727 l 407 834 l 340 834 l 340 727 l 234 727 l 234 554 l 513 554 m 214 534 l 214 747 l 320 747 l 320 854 l 427 854 l 427 747 l 534 747 l 534 534 l 214 534 m 214 0 l 214 427 l 534 427 l 534 0 l 320 0 l 320 -106 l 214 -106 l 214 -214 l 320 -214 l 320 -320 l 747 -320 l 747 -214 l 427 -214 l 427 -106 l 534 -106 l 534 0 l 747 0 l 747 747 l 641 747 l 641 854 l 534 854 l 534 961 l 427 961 l 427 1068 l 320 1068 l 320 961 l 214 961 l 214 854 l 106 854 l 106 747 l 0 747 l 0 0 l 214 0 z "},"ą":{"ha":961,"x_min":-20,"x_max":768,"o":"m 300 -340 l 300 -234 l 193 -234 l 193 -86 l 300 -86 l 300 -20 l 86 -20 l 86 86 l -20 86 l -20 448 l 86 448 l 86 554 l 407 554 l 407 621 l 86 621 l 86 768 l 554 768 l 554 661 l 661 661 l 661 127 l 768 127 l 768 -20 l 554 -20 l 554 -127 l 448 -127 l 448 -193 l 768 -193 l 768 -340 l 300 -340 m 407 127 l 407 407 l 234 407 l 234 127 l 407 127 m 513 20 l 513 86 l 448 86 l 448 20 l 513 20 m 427 0 l 427 106 l 534 106 l 534 0 l 427 0 m 214 106 l 214 427 l 427 427 l 427 106 l 214 106 m 747 -320 l 747 -214 l 427 -214 l 427 -106 l 534 -106 l 534 0 l 747 0 l 747 106 l 641 106 l 641 641 l 534 641 l 534 747 l 106 747 l 106 641 l 427 641 l 427 534 l 106 534 l 106 427 l 0 427 l 0 106 l 106 106 l 106 0 l 320 0 l 320 -106 l 214 -106 l 214 -214 l 320 -214 l 320 -320 l 747 -320 z "},"Ć":{"ha":961,"x_min":-20,"x_max":768,"o":"m 300 1048 l 300 1195 l 407 1195 l 407 1302 l 661 1302 l 661 1154 l 554 1154 l 554 1048 l 300 1048 m 193 -20 l 193 86 l 86 86 l 86 193 l -20 193 l -20 768 l 86 768 l 86 875 l 193 875 l 193 981 l 661 981 l 661 875 l 768 875 l 768 621 l 621 621 l 621 727 l 513 727 l 513 834 l 340 834 l 340 727 l 234 727 l 234 234 l 340 234 l 340 127 l 513 127 l 513 234 l 621 234 l 621 340 l 768 340 l 768 86 l 661 86 l 661 -20 l 193 -20 m 641 0 l 641 106 l 747 106 l 747 320 l 641 320 l 641 214 l 534 214 l 534 106 l 320 106 l 320 214 l 214 214 l 214 747 l 320 747 l 320 854 l 534 854 l 534 747 l 641 747 l 641 641 l 747 641 l 747 854 l 641 854 l 641 961 l 214 961 l 214 854 l 106 854 l 106 747 l 0 747 l 0 214 l 106 214 l 106 106 l 214 106 l 214 0 l 641 0 m 534 1068 l 534 1175 l 641 1175 l 641 1282 l 427 1282 l 427 1175 l 320 1175 l 320 1068 l 534 1068 z "},"ć":{"ha":961,"x_min":-20,"x_max":768,"o":"m 193 834 l 193 981 l 300 981 l 300 1088 l 407 1088 l 407 1195 l 661 1195 l 661 1048 l 554 1048 l 554 941 l 448 941 l 448 834 l 193 834 m 86 -20 l 86 86 l -20 86 l -20 661 l 86 661 l 86 768 l 661 768 l 661 661 l 768 661 l 768 513 l 513 513 l 513 621 l 234 621 l 234 127 l 513 127 l 513 234 l 768 234 l 768 86 l 661 86 l 661 -20 l 86 -20 m 641 0 l 641 106 l 747 106 l 747 214 l 534 214 l 534 106 l 214 106 l 214 641 l 534 641 l 534 534 l 747 534 l 747 641 l 641 641 l 641 747 l 106 747 l 106 641 l 0 641 l 0 106 l 106 106 l 106 0 l 641 0 m 427 854 l 427 961 l 534 961 l 534 1068 l 641 1068 l 641 1175 l 427 1175 l 427 1068 l 320 1068 l 320 961 l 214 961 l 214 854 l 427 854 z "},"Ĉ":{"ha":961,"x_min":-20,"x_max":768,"o":"m 193 1048 l 193 1195 l 300 1195 l 300 1302 l 661 1302 l 661 1195 l 768 1195 l 768 1048 l 513 1048 l 513 1154 l 448 1154 l 448 1048 l 193 1048 m 193 -20 l 193 86 l 86 86 l 86 193 l -20 193 l -20 768 l 86 768 l 86 875 l 193 875 l 193 981 l 661 981 l 661 875 l 768 875 l 768 621 l 621 621 l 621 727 l 513 727 l 513 834 l 340 834 l 340 727 l 234 727 l 234 234 l 340 234 l 340 127 l 513 127 l 513 234 l 621 234 l 621 340 l 768 340 l 768 86 l 661 86 l 661 -20 l 193 -20 m 641 0 l 641 106 l 747 106 l 747 320 l 641 320 l 641 214 l 534 214 l 534 106 l 320 106 l 320 214 l 214 214 l 214 747 l 320 747 l 320 854 l 534 854 l 534 747 l 641 747 l 641 641 l 747 641 l 747 854 l 641 854 l 641 961 l 214 961 l 214 854 l 106 854 l 106 747 l 0 747 l 0 214 l 106 214 l 106 106 l 214 106 l 214 0 l 641 0 m 427 1068 l 427 1175 l 534 1175 l 534 1068 l 747 1068 l 747 1175 l 641 1175 l 641 1282 l 320 1282 l 320 1175 l 214 1175 l 214 1068 l 427 1068 z "},"ĉ":{"ha":961,"x_min":-20,"x_max":768,"o":"m 86 834 l 86 981 l 193 981 l 193 1088 l 300 1088 l 300 1195 l 448 1195 l 448 1088 l 554 1088 l 554 981 l 661 981 l 661 834 l 407 834 l 407 941 l 340 941 l 340 834 l 86 834 m 86 -20 l 86 86 l -20 86 l -20 661 l 86 661 l 86 768 l 661 768 l 661 661 l 768 661 l 768 513 l 513 513 l 513 621 l 234 621 l 234 127 l 513 127 l 513 234 l 768 234 l 768 86 l 661 86 l 661 -20 l 86 -20 m 641 0 l 641 106 l 747 106 l 747 214 l 534 214 l 534 106 l 214 106 l 214 641 l 534 641 l 534 534 l 747 534 l 747 641 l 641 641 l 641 747 l 106 747 l 106 641 l 0 641 l 0 106 l 106 106 l 106 0 l 641 0 m 320 854 l 320 961 l 427 961 l 427 854 l 641 854 l 641 961 l 534 961 l 534 1068 l 427 1068 l 427 1175 l 320 1175 l 320 1068 l 214 1068 l 214 961 l 106 961 l 106 854 l 320 854 z "},"Ċ":{"ha":961,"x_min":-20,"x_max":768,"o":"m 300 1048 l 300 1302 l 554 1302 l 554 1048 l 300 1048 m 193 -20 l 193 86 l 86 86 l 86 193 l -20 193 l -20 768 l 86 768 l 86 875 l 193 875 l 193 981 l 661 981 l 661 875 l 768 875 l 768 621 l 621 621 l 621 727 l 513 727 l 513 834 l 340 834 l 340 727 l 234 727 l 234 234 l 340 234 l 340 127 l 513 127 l 513 234 l 621 234 l 621 340 l 768 340 l 768 86 l 661 86 l 661 -20 l 193 -20 m 641 0 l 641 106 l 747 106 l 747 320 l 641 320 l 641 214 l 534 214 l 534 106 l 320 106 l 320 214 l 214 214 l 214 747 l 320 747 l 320 854 l 534 854 l 534 747 l 641 747 l 641 641 l 747 641 l 747 854 l 641 854 l 641 961 l 214 961 l 214 854 l 106 854 l 106 747 l 0 747 l 0 214 l 106 214 l 106 106 l 214 106 l 214 0 l 641 0 m 534 1068 l 534 1282 l 320 1282 l 320 1068 l 534 1068 z "},"ċ":{"ha":961,"x_min":-20,"x_max":768,"o":"m 300 834 l 300 1088 l 554 1088 l 554 834 l 300 834 m 86 -20 l 86 86 l -20 86 l -20 661 l 86 661 l 86 768 l 661 768 l 661 661 l 768 661 l 768 513 l 513 513 l 513 621 l 234 621 l 234 127 l 513 127 l 513 234 l 768 234 l 768 86 l 661 86 l 661 -20 l 86 -20 m 641 0 l 641 106 l 747 106 l 747 214 l 534 214 l 534 106 l 214 106 l 214 641 l 534 641 l 534 534 l 747 534 l 747 641 l 641 641 l 641 747 l 106 747 l 106 641 l 0 641 l 0 106 l 106 106 l 106 0 l 641 0 m 534 854 l 534 1068 l 320 1068 l 320 854 l 534 854 z "},"Č":{"ha":961,"x_min":-20,"x_max":768,"o":"m 193 1048 l 193 1154 l 86 1154 l 86 1302 l 340 1302 l 340 1195 l 513 1195 l 513 1302 l 768 1302 l 768 1154 l 661 1154 l 661 1048 l 193 1048 m 193 -20 l 193 86 l 86 86 l 86 193 l -20 193 l -20 768 l 86 768 l 86 875 l 193 875 l 193 981 l 661 981 l 661 875 l 768 875 l 768 621 l 621 621 l 621 727 l 513 727 l 513 834 l 340 834 l 340 727 l 234 727 l 234 234 l 340 234 l 340 127 l 513 127 l 513 234 l 621 234 l 621 340 l 768 340 l 768 86 l 661 86 l 661 -20 l 193 -20 m 641 0 l 641 106 l 747 106 l 747 320 l 641 320 l 641 214 l 534 214 l 534 106 l 320 106 l 320 214 l 214 214 l 214 747 l 320 747 l 320 854 l 534 854 l 534 747 l 641 747 l 641 641 l 747 641 l 747 854 l 641 854 l 641 961 l 214 961 l 214 854 l 106 854 l 106 747 l 0 747 l 0 214 l 106 214 l 106 106 l 214 106 l 214 0 l 641 0 m 641 1068 l 641 1175 l 747 1175 l 747 1282 l 534 1282 l 534 1175 l 320 1175 l 320 1282 l 106 1282 l 106 1175 l 214 1175 l 214 1068 l 641 1068 z "},"č":{"ha":961,"x_min":-20,"x_max":768,"o":"m 193 834 l 193 941 l 86 941 l 86 1088 l 340 1088 l 340 981 l 407 981 l 407 1088 l 661 1088 l 661 941 l 554 941 l 554 834 l 193 834 m 86 -20 l 86 86 l -20 86 l -20 661 l 86 661 l 86 768 l 661 768 l 661 661 l 768 661 l 768 513 l 513 513 l 513 621 l 234 621 l 234 127 l 513 127 l 513 234 l 768 234 l 768 86 l 661 86 l 661 -20 l 86 -20 m 641 0 l 641 106 l 747 106 l 747 214 l 534 214 l 534 106 l 214 106 l 214 641 l 534 641 l 534 534 l 747 534 l 747 641 l 641 641 l 641 747 l 106 747 l 106 641 l 0 641 l 0 106 l 106 106 l 106 0 l 641 0 m 534 854 l 534 961 l 641 961 l 641 1068 l 427 1068 l 427 961 l 320 961 l 320 1068 l 106 1068 l 106 961 l 214 961 l 214 854 l 534 854 z "},"Ď":{"ha":961,"x_min":-20,"x_max":768,"o":"m 193 1048 l 193 1154 l 86 1154 l 86 1302 l 340 1302 l 340 1195 l 407 1195 l 407 1302 l 661 1302 l 661 1154 l 554 1154 l 554 1048 l 193 1048 m -20 -20 l -20 127 l 86 127 l 86 834 l -20 834 l -20 981 l 554 981 l 554 875 l 661 875 l 661 768 l 768 768 l 768 193 l 661 193 l 661 86 l 554 86 l 554 -20 l -20 -20 m 407 127 l 407 234 l 513 234 l 513 727 l 407 727 l 407 834 l 340 834 l 340 127 l 407 127 m 320 106 l 320 854 l 427 854 l 427 747 l 534 747 l 534 214 l 427 214 l 427 106 l 320 106 m 534 0 l 534 106 l 641 106 l 641 214 l 747 214 l 747 747 l 641 747 l 641 854 l 534 854 l 534 961 l 0 961 l 0 854 l 106 854 l 106 106 l 0 106 l 0 0 l 534 0 m 534 1068 l 534 1175 l 641 1175 l 641 1282 l 427 1282 l 427 1175 l 320 1175 l 320 1282 l 106 1282 l 106 1175 l 214 1175 l 214 1068 l 534 1068 z "},"ď":{"ha":961,"x_min":-20,"x_max":875,"o":"m 86 -20 l 86 86 l -20 86 l -20 554 l 86 554 l 86 661 l 193 661 l 193 768 l 407 768 l 407 941 l 300 941 l 300 1088 l 621 1088 l 621 1302 l 875 1302 l 875 1048 l 768 1048 l 768 941 l 661 941 l 661 127 l 768 127 l 768 -20 l 513 -20 l 513 86 l 448 86 l 448 -20 l 86 -20 m 407 127 l 407 621 l 340 621 l 340 513 l 234 513 l 234 127 l 407 127 m 214 106 l 214 534 l 320 534 l 320 641 l 427 641 l 427 106 l 214 106 m 427 0 l 427 106 l 534 106 l 534 0 l 747 0 l 747 106 l 641 106 l 641 961 l 747 961 l 747 1068 l 854 1068 l 854 1282 l 641 1282 l 641 1068 l 320 1068 l 320 961 l 427 961 l 427 747 l 214 747 l 214 641 l 106 641 l 106 534 l 0 534 l 0 106 l 106 106 l 106 0 l 427 0 z "},"Đ":{"ha":961,"x_min":-20,"x_max":768,"o":"m -20 -20 l -20 127 l 86 127 l 86 513 l -20 513 l -20 661 l 86 661 l 86 941 l -20 941 l -20 1088 l 554 1088 l 554 981 l 661 981 l 661 875 l 768 875 l 768 193 l 661 193 l 661 86 l 554 86 l 554 -20 l -20 -20 m 407 127 l 407 234 l 513 234 l 513 834 l 407 834 l 407 941 l 340 941 l 340 661 l 448 661 l 448 513 l 340 513 l 340 127 l 407 127 m 320 106 l 320 534 l 427 534 l 427 641 l 320 641 l 320 961 l 427 961 l 427 854 l 534 854 l 534 214 l 427 214 l 427 106 l 320 106 m 534 0 l 534 106 l 641 106 l 641 214 l 747 214 l 747 854 l 641 854 l 641 961 l 534 961 l 534 1068 l 0 1068 l 0 961 l 106 961 l 106 641 l 0 641 l 0 534 l 106 534 l 106 106 l 0 106 l 0 0 l 534 0 z "},"đ":{"ha":961,"x_min":-20,"x_max":768,"o":"m 86 -20 l 86 86 l -20 86 l -20 448 l 86 448 l 86 554 l 193 554 l 193 661 l 407 661 l 407 727 l 86 727 l 86 875 l 407 875 l 407 1088 l 661 1088 l 661 875 l 768 875 l 768 727 l 661 727 l 661 127 l 768 127 l 768 -20 l 513 -20 l 513 86 l 448 86 l 448 -20 l 86 -20 m 407 127 l 407 513 l 340 513 l 340 407 l 234 407 l 234 127 l 407 127 m 214 106 l 214 427 l 320 427 l 320 534 l 427 534 l 427 106 l 214 106 m 427 0 l 427 106 l 534 106 l 534 0 l 747 0 l 747 106 l 641 106 l 641 747 l 747 747 l 747 854 l 641 854 l 641 1068 l 427 1068 l 427 854 l 106 854 l 106 747 l 427 747 l 427 641 l 214 641 l 214 534 l 106 534 l 106 427 l 0 427 l 0 106 l 106 106 l 106 0 l 427 0 z "},"Ē":{"ha":961,"x_min":-20,"x_max":768,"o":"m 86 1154 l 86 1302 l 661 1302 l 661 1154 l 86 1154 m -20 -20 l -20 127 l 86 127 l 86 941 l -20 941 l -20 1088 l 768 1088 l 768 727 l 621 727 l 621 834 l 513 834 l 513 941 l 340 941 l 340 661 l 407 661 l 407 768 l 554 768 l 554 407 l 407 407 l 407 513 l 340 513 l 340 127 l 513 127 l 513 234 l 621 234 l 621 340 l 768 340 l 768 -20 l -20 -20 m 747 0 l 747 320 l 641 320 l 641 214 l 534 214 l 534 106 l 320 106 l 320 534 l 427 534 l 427 427 l 534 427 l 534 747 l 427 747 l 427 641 l 320 641 l 320 961 l 534 961 l 534 854 l 641 854 l 641 747 l 747 747 l 747 1068 l 0 1068 l 0 961 l 106 961 l 106 106 l 0 106 l 0 0 l 747 0 m 641 1175 l 641 1282 l 106 1282 l 106 1175 l 641 1175 z "},"ē":{"ha":961,"x_min":-20,"x_max":768,"o":"m 86 941 l 86 1088 l 661 1088 l 661 941 l 86 941 m 86 -20 l 86 86 l -20 86 l -20 661 l 86 661 l 86 768 l 661 768 l 661 661 l 768 661 l 768 407 l 234 407 l 234 127 l 513 127 l 513 234 l 768 234 l 768 86 l 661 86 l 661 -20 l 86 -20 m 513 554 l 513 621 l 234 621 l 234 554 l 513 554 m 214 534 l 214 641 l 534 641 l 534 534 l 214 534 m 641 0 l 641 106 l 747 106 l 747 214 l 534 214 l 534 106 l 214 106 l 214 427 l 747 427 l 747 641 l 641 641 l 641 747 l 106 747 l 106 641 l 0 641 l 0 106 l 106 106 l 106 0 l 641 0 m 641 961 l 641 1068 l 106 1068 l 106 961 l 641 961 z "},"Ĕ":{"ha":961,"x_min":-20,"x_max":768,"o":"m 86 1048 l 86 1154 l -20 1154 l -20 1302 l 234 1302 l 234 1195 l 513 1195 l 513 1302 l 768 1302 l 768 1154 l 661 1154 l 661 1048 l 86 1048 m -20 -20 l -20 127 l 86 127 l 86 834 l -20 834 l -20 981 l 768 981 l 768 621 l 621 621 l 621 727 l 513 727 l 513 834 l 340 834 l 340 554 l 407 554 l 407 661 l 554 661 l 554 300 l 407 300 l 407 407 l 340 407 l 340 127 l 513 127 l 513 234 l 621 234 l 621 340 l 768 340 l 768 -20 l -20 -20 m 747 0 l 747 320 l 641 320 l 641 214 l 534 214 l 534 106 l 320 106 l 320 427 l 427 427 l 427 320 l 534 320 l 534 641 l 427 641 l 427 534 l 320 534 l 320 854 l 534 854 l 534 747 l 641 747 l 641 641 l 747 641 l 747 961 l 0 961 l 0 854 l 106 854 l 106 106 l 0 106 l 0 0 l 747 0 m 641 1068 l 641 1175 l 747 1175 l 747 1282 l 534 1282 l 534 1175 l 214 1175 l 214 1282 l 0 1282 l 0 1175 l 106 1175 l 106 1068 l 641 1068 z "},"ĕ":{"ha":961,"x_min":-20,"x_max":768,"o":"m 86 834 l 86 941 l -20 941 l -20 1088 l 234 1088 l 234 981 l 513 981 l 513 1088 l 768 1088 l 768 941 l 661 941 l 661 834 l 86 834 m 86 -20 l 86 86 l -20 86 l -20 661 l 86 661 l 86 768 l 661 768 l 661 661 l 768 661 l 768 407 l 234 407 l 234 127 l 513 127 l 513 234 l 768 234 l 768 86 l 661 86 l 661 -20 l 86 -20 m 513 554 l 513 621 l 234 621 l 234 554 l 513 554 m 214 534 l 214 641 l 534 641 l 534 534 l 214 534 m 641 0 l 641 106 l 747 106 l 747 214 l 534 214 l 534 106 l 214 106 l 214 427 l 747 427 l 747 641 l 641 641 l 641 747 l 106 747 l 106 641 l 0 641 l 0 106 l 106 106 l 106 0 l 641 0 m 641 854 l 641 961 l 747 961 l 747 1068 l 534 1068 l 534 961 l 214 961 l 214 1068 l 0 1068 l 0 961 l 106 961 l 106 854 l 641 854 z "},"Ė":{"ha":961,"x_min":-20,"x_max":768,"o":"m 300 1048 l 300 1302 l 554 1302 l 554 1048 l 300 1048 m -20 -20 l -20 127 l 86 127 l 86 834 l -20 834 l -20 981 l 768 981 l 768 621 l 621 621 l 621 727 l 513 727 l 513 834 l 340 834 l 340 554 l 407 554 l 407 661 l 554 661 l 554 300 l 407 300 l 407 407 l 340 407 l 340 127 l 513 127 l 513 234 l 621 234 l 621 340 l 768 340 l 768 -20 l -20 -20 m 747 0 l 747 320 l 641 320 l 641 214 l 534 214 l 534 106 l 320 106 l 320 427 l 427 427 l 427 320 l 534 320 l 534 641 l 427 641 l 427 534 l 320 534 l 320 854 l 534 854 l 534 747 l 641 747 l 641 641 l 747 641 l 747 961 l 0 961 l 0 854 l 106 854 l 106 106 l 0 106 l 0 0 l 747 0 m 534 1068 l 534 1282 l 320 1282 l 320 1068 l 534 1068 z "},"ė":{"ha":961,"x_min":-20,"x_max":768,"o":"m 300 834 l 300 1088 l 554 1088 l 554 834 l 300 834 m 86 -20 l 86 86 l -20 86 l -20 661 l 86 661 l 86 768 l 661 768 l 661 661 l 768 661 l 768 407 l 234 407 l 234 127 l 513 127 l 513 234 l 768 234 l 768 86 l 661 86 l 661 -20 l 86 -20 m 513 554 l 513 621 l 234 621 l 234 554 l 513 554 m 214 534 l 214 641 l 534 641 l 534 534 l 214 534 m 641 0 l 641 106 l 747 106 l 747 214 l 534 214 l 534 106 l 214 106 l 214 427 l 747 427 l 747 641 l 641 641 l 641 747 l 106 747 l 106 641 l 0 641 l 0 106 l 106 106 l 106 0 l 641 0 m 534 854 l 534 1068 l 320 1068 l 320 854 l 534 854 z "},"Ę":{"ha":961,"x_min":-20,"x_max":768,"o":"m 300 -340 l 300 -234 l 193 -234 l 193 -86 l 300 -86 l 300 -20 l -20 -20 l -20 127 l 86 127 l 86 941 l -20 941 l -20 1088 l 768 1088 l 768 727 l 621 727 l 621 834 l 513 834 l 513 941 l 340 941 l 340 661 l 407 661 l 407 768 l 554 768 l 554 407 l 407 407 l 407 513 l 340 513 l 340 127 l 513 127 l 513 234 l 621 234 l 621 340 l 768 340 l 768 -20 l 554 -20 l 554 -127 l 448 -127 l 448 -193 l 768 -193 l 768 -340 l 300 -340 m 747 -320 l 747 -214 l 427 -214 l 427 -106 l 534 -106 l 534 0 l 747 0 l 747 320 l 641 320 l 641 214 l 534 214 l 534 106 l 320 106 l 320 534 l 427 534 l 427 427 l 534 427 l 534 747 l 427 747 l 427 641 l 320 641 l 320 961 l 534 961 l 534 854 l 641 854 l 641 747 l 747 747 l 747 1068 l 0 1068 l 0 961 l 106 961 l 106 106 l 0 106 l 0 0 l 320 0 l 320 -106 l 214 -106 l 214 -214 l 320 -214 l 320 -320 l 747 -320 z "},"ę":{"ha":961,"x_min":-20,"x_max":768,"o":"m 193 -340 l 193 -234 l 86 -234 l 86 -86 l 193 -86 l 193 -20 l 86 -20 l 86 86 l -20 86 l -20 661 l 86 661 l 86 768 l 661 768 l 661 661 l 768 661 l 768 407 l 234 407 l 234 127 l 513 127 l 513 234 l 768 234 l 768 86 l 661 86 l 661 -20 l 448 -20 l 448 -127 l 340 -127 l 340 -193 l 661 -193 l 661 -340 l 193 -340 m 513 554 l 513 621 l 234 621 l 234 554 l 513 554 m 214 534 l 214 641 l 534 641 l 534 534 l 214 534 m 641 -320 l 641 -214 l 320 -214 l 320 -106 l 427 -106 l 427 0 l 641 0 l 641 106 l 747 106 l 747 214 l 534 214 l 534 106 l 214 106 l 214 427 l 747 427 l 747 641 l 641 641 l 641 747 l 106 747 l 106 641 l 0 641 l 0 106 l 106 106 l 106 0 l 214 0 l 214 -106 l 106 -106 l 106 -214 l 214 -214 l 214 -320 l 641 -320 z "},"Ě":{"ha":961,"x_min":-20,"x_max":768,"o":"m 193 1048 l 193 1154 l 86 1154 l 86 1302 l 340 1302 l 340 1195 l 407 1195 l 407 1302 l 661 1302 l 661 1154 l 554 1154 l 554 1048 l 193 1048 m -20 -20 l -20 127 l 86 127 l 86 834 l -20 834 l -20 981 l 768 981 l 768 621 l 621 621 l 621 727 l 513 727 l 513 834 l 340 834 l 340 554 l 407 554 l 407 661 l 554 661 l 554 300 l 407 300 l 407 407 l 340 407 l 340 127 l 513 127 l 513 234 l 621 234 l 621 340 l 768 340 l 768 -20 l -20 -20 m 747 0 l 747 320 l 641 320 l 641 214 l 534 214 l 534 106 l 320 106 l 320 427 l 427 427 l 427 320 l 534 320 l 534 641 l 427 641 l 427 534 l 320 534 l 320 854 l 534 854 l 534 747 l 641 747 l 641 641 l 747 641 l 747 961 l 0 961 l 0 854 l 106 854 l 106 106 l 0 106 l 0 0 l 747 0 m 534 1068 l 534 1175 l 641 1175 l 641 1282 l 427 1282 l 427 1175 l 320 1175 l 320 1282 l 106 1282 l 106 1175 l 214 1175 l 214 1068 l 534 1068 z "},"ě":{"ha":961,"x_min":-20,"x_max":768,"o":"m 193 834 l 193 941 l 86 941 l 86 1088 l 340 1088 l 340 981 l 513 981 l 513 1088 l 768 1088 l 768 941 l 661 941 l 661 834 l 193 834 m 86 -20 l 86 86 l -20 86 l -20 661 l 86 661 l 86 768 l 661 768 l 661 661 l 768 661 l 768 407 l 234 407 l 234 127 l 513 127 l 513 234 l 768 234 l 768 86 l 661 86 l 661 -20 l 86 -20 m 513 554 l 513 621 l 234 621 l 234 554 l 513 554 m 214 534 l 214 641 l 534 641 l 534 534 l 214 534 m 641 0 l 641 106 l 747 106 l 747 214 l 534 214 l 534 106 l 214 106 l 214 427 l 747 427 l 747 641 l 641 641 l 641 747 l 106 747 l 106 641 l 0 641 l 0 106 l 106 106 l 106 0 l 641 0 m 641 854 l 641 961 l 747 961 l 747 1068 l 534 1068 l 534 961 l 320 961 l 320 1068 l 106 1068 l 106 961 l 214 961 l 214 854 l 641 854 z "},"Ĝ":{"ha":961,"x_min":-20,"x_max":768,"o":"m 193 1048 l 193 1195 l 300 1195 l 300 1302 l 661 1302 l 661 1195 l 768 1195 l 768 1048 l 513 1048 l 513 1154 l 448 1154 l 448 1048 l 193 1048 m 193 -20 l 193 86 l 86 86 l 86 193 l -20 193 l -20 768 l 86 768 l 86 875 l 193 875 l 193 981 l 661 981 l 661 875 l 768 875 l 768 621 l 621 621 l 621 727 l 513 727 l 513 834 l 340 834 l 340 727 l 234 727 l 234 234 l 340 234 l 340 127 l 513 127 l 513 300 l 300 300 l 300 448 l 768 448 l 768 -20 l 621 -20 l 621 86 l 554 86 l 554 -20 l 193 -20 m 534 0 l 534 106 l 641 106 l 641 0 l 747 0 l 747 427 l 320 427 l 320 320 l 534 320 l 534 106 l 320 106 l 320 214 l 214 214 l 214 747 l 320 747 l 320 854 l 534 854 l 534 747 l 641 747 l 641 641 l 747 641 l 747 854 l 641 854 l 641 961 l 214 961 l 214 854 l 106 854 l 106 747 l 0 747 l 0 214 l 106 214 l 106 106 l 214 106 l 214 0 l 534 0 m 427 1068 l 427 1175 l 534 1175 l 534 1068 l 747 1068 l 747 1175 l 641 1175 l 641 1282 l 320 1282 l 320 1175 l 214 1175 l 214 1068 l 427 1068 z "},"ĝ":{"ha":961,"x_min":-20,"x_max":768,"o":"m 86 834 l 86 981 l 193 981 l 193 1088 l 300 1088 l 300 1195 l 448 1195 l 448 1088 l 554 1088 l 554 981 l 661 981 l 661 834 l 407 834 l 407 941 l 340 941 l 340 834 l 86 834 m 86 -340 l 86 -234 l -20 -234 l -20 -86 l 234 -86 l 234 -193 l 407 -193 l 407 -20 l 86 -20 l 86 86 l -20 86 l -20 661 l 86 661 l 86 768 l 448 768 l 448 661 l 513 661 l 513 768 l 768 768 l 768 621 l 661 621 l 661 -234 l 554 -234 l 554 -340 l 86 -340 m 407 621 l 234 621 l 234 127 l 407 127 l 407 621 m 427 106 l 214 106 l 214 641 l 427 641 l 427 106 m 534 -320 l 534 -214 l 641 -214 l 641 641 l 747 641 l 747 747 l 534 747 l 534 641 l 427 641 l 427 747 l 106 747 l 106 641 l 0 641 l 0 106 l 106 106 l 106 0 l 427 0 l 427 -214 l 214 -214 l 214 -106 l 0 -106 l 0 -214 l 106 -214 l 106 -320 l 534 -320 m 320 854 l 320 961 l 427 961 l 427 854 l 641 854 l 641 961 l 534 961 l 534 1068 l 427 1068 l 427 1175 l 320 1175 l 320 1068 l 214 1068 l 214 961 l 106 961 l 106 854 l 320 854 z "},"Ğ":{"ha":961,"x_min":-20,"x_max":768,"o":"m 193 1048 l 193 1154 l 86 1154 l 86 1302 l 340 1302 l 340 1195 l 513 1195 l 513 1302 l 768 1302 l 768 1154 l 661 1154 l 661 1048 l 193 1048 m 193 -20 l 193 86 l 86 86 l 86 193 l -20 193 l -20 768 l 86 768 l 86 875 l 193 875 l 193 981 l 661 981 l 661 875 l 768 875 l 768 621 l 621 621 l 621 727 l 513 727 l 513 834 l 340 834 l 340 727 l 234 727 l 234 234 l 340 234 l 340 127 l 513 127 l 513 300 l 300 300 l 300 448 l 768 448 l 768 -20 l 621 -20 l 621 86 l 554 86 l 554 -20 l 193 -20 m 534 0 l 534 106 l 641 106 l 641 0 l 747 0 l 747 427 l 320 427 l 320 320 l 534 320 l 534 106 l 320 106 l 320 214 l 214 214 l 214 747 l 320 747 l 320 854 l 534 854 l 534 747 l 641 747 l 641 641 l 747 641 l 747 854 l 641 854 l 641 961 l 214 961 l 214 854 l 106 854 l 106 747 l 0 747 l 0 214 l 106 214 l 106 106 l 214 106 l 214 0 l 534 0 m 641 1068 l 641 1175 l 747 1175 l 747 1282 l 534 1282 l 534 1175 l 320 1175 l 320 1282 l 106 1282 l 106 1175 l 214 1175 l 214 1068 l 641 1068 z "},"ğ":{"ha":961,"x_min":-20,"x_max":768,"o":"m 86 834 l 86 941 l -20 941 l -20 1088 l 234 1088 l 234 981 l 513 981 l 513 1088 l 768 1088 l 768 941 l 661 941 l 661 834 l 86 834 m 86 -340 l 86 -234 l -20 -234 l -20 -86 l 234 -86 l 234 -193 l 407 -193 l 407 -20 l 86 -20 l 86 86 l -20 86 l -20 661 l 86 661 l 86 768 l 448 768 l 448 661 l 513 661 l 513 768 l 768 768 l 768 621 l 661 621 l 661 -234 l 554 -234 l 554 -340 l 86 -340 m 407 621 l 234 621 l 234 127 l 407 127 l 407 621 m 427 106 l 214 106 l 214 641 l 427 641 l 427 106 m 534 -320 l 534 -214 l 641 -214 l 641 641 l 747 641 l 747 747 l 534 747 l 534 641 l 427 641 l 427 747 l 106 747 l 106 641 l 0 641 l 0 106 l 106 106 l 106 0 l 427 0 l 427 -214 l 214 -214 l 214 -106 l 0 -106 l 0 -214 l 106 -214 l 106 -320 l 534 -320 m 641 854 l 641 961 l 747 961 l 747 1068 l 534 1068 l 534 961 l 214 961 l 214 1068 l 0 1068 l 0 961 l 106 961 l 106 854 l 641 854 z "},"Ġ":{"ha":961,"x_min":-20,"x_max":768,"o":"m 300 1048 l 300 1302 l 554 1302 l 554 1048 l 300 1048 m 193 -20 l 193 86 l 86 86 l 86 193 l -20 193 l -20 768 l 86 768 l 86 875 l 193 875 l 193 981 l 661 981 l 661 875 l 768 875 l 768 621 l 621 621 l 621 727 l 513 727 l 513 834 l 340 834 l 340 727 l 234 727 l 234 234 l 340 234 l 340 127 l 513 127 l 513 300 l 300 300 l 300 448 l 768 448 l 768 -20 l 621 -20 l 621 86 l 554 86 l 554 -20 l 193 -20 m 534 0 l 534 106 l 641 106 l 641 0 l 747 0 l 747 427 l 320 427 l 320 320 l 534 320 l 534 106 l 320 106 l 320 214 l 214 214 l 214 747 l 320 747 l 320 854 l 534 854 l 534 747 l 641 747 l 641 641 l 747 641 l 747 854 l 641 854 l 641 961 l 214 961 l 214 854 l 106 854 l 106 747 l 0 747 l 0 214 l 106 214 l 106 106 l 214 106 l 214 0 l 534 0 m 534 1068 l 534 1282 l 320 1282 l 320 1068 l 534 1068 z "},"ġ":{"ha":961,"x_min":-20,"x_max":768,"o":"m 300 834 l 300 1088 l 554 1088 l 554 834 l 300 834 m 86 -340 l 86 -234 l -20 -234 l -20 -86 l 234 -86 l 234 -193 l 407 -193 l 407 -20 l 86 -20 l 86 86 l -20 86 l -20 661 l 86 661 l 86 768 l 448 768 l 448 661 l 513 661 l 513 768 l 768 768 l 768 621 l 661 621 l 661 -234 l 554 -234 l 554 -340 l 86 -340 m 407 621 l 234 621 l 234 127 l 407 127 l 407 621 m 427 106 l 214 106 l 214 641 l 427 641 l 427 106 m 534 -320 l 534 -214 l 641 -214 l 641 641 l 747 641 l 747 747 l 534 747 l 534 641 l 427 641 l 427 747 l 106 747 l 106 641 l 0 641 l 0 106 l 106 106 l 106 0 l 427 0 l 427 -214 l 214 -214 l 214 -106 l 0 -106 l 0 -214 l 106 -214 l 106 -320 l 534 -320 m 534 854 l 534 1068 l 320 1068 l 320 854 l 534 854 z "},"Ģ":{"ha":961,"x_min":-20,"x_max":768,"o":"m 86 -340 l 86 -193 l 407 -193 l 407 -127 l 300 -127 l 300 -20 l 193 -20 l 193 86 l 86 86 l 86 193 l -20 193 l -20 875 l 86 875 l 86 981 l 193 981 l 193 1088 l 661 1088 l 661 981 l 768 981 l 768 727 l 621 727 l 621 834 l 513 834 l 513 941 l 340 941 l 340 834 l 234 834 l 234 234 l 340 234 l 340 127 l 513 127 l 513 407 l 300 407 l 300 554 l 768 554 l 768 -20 l 621 -20 l 621 86 l 554 86 l 554 -86 l 661 -86 l 661 -234 l 554 -234 l 554 -340 l 86 -340 m 534 -320 l 534 -214 l 641 -214 l 641 -106 l 534 -106 l 534 106 l 641 106 l 641 0 l 747 0 l 747 534 l 320 534 l 320 427 l 534 427 l 534 106 l 320 106 l 320 214 l 214 214 l 214 854 l 320 854 l 320 961 l 534 961 l 534 854 l 641 854 l 641 747 l 747 747 l 747 961 l 641 961 l 641 1068 l 214 1068 l 214 961 l 106 961 l 106 854 l 0 854 l 0 214 l 106 214 l 106 106 l 214 106 l 214 0 l 320 0 l 320 -106 l 427 -106 l 427 -214 l 106 -214 l 106 -320 l 534 -320 z "},"ģ":{"ha":961,"x_min":-20,"x_max":768,"o":"m 300 834 l 300 941 l 193 941 l 193 1088 l 300 1088 l 300 1195 l 768 1195 l 768 1048 l 448 1048 l 448 981 l 554 981 l 554 834 l 300 834 m 86 -340 l 86 -234 l -20 -234 l -20 -86 l 234 -86 l 234 -193 l 407 -193 l 407 -20 l 86 -20 l 86 86 l -20 86 l -20 661 l 86 661 l 86 768 l 448 768 l 448 661 l 513 661 l 513 768 l 768 768 l 768 621 l 661 621 l 661 -234 l 554 -234 l 554 -340 l 86 -340 m 407 621 l 234 621 l 234 127 l 407 127 l 407 621 m 427 106 l 214 106 l 214 641 l 427 641 l 427 106 m 534 -320 l 534 -214 l 641 -214 l 641 641 l 747 641 l 747 747 l 534 747 l 534 641 l 427 641 l 427 747 l 106 747 l 106 641 l 0 641 l 0 106 l 106 106 l 106 0 l 427 0 l 427 -214 l 214 -214 l 214 -106 l 0 -106 l 0 -214 l 106 -214 l 106 -320 l 534 -320 m 534 854 l 534 961 l 427 961 l 427 1068 l 747 1068 l 747 1175 l 320 1175 l 320 1068 l 214 1068 l 214 961 l 320 961 l 320 854 l 534 854 z "},"Ĥ":{"ha":961,"x_min":-20,"x_max":768,"o":"m 86 1048 l 86 1195 l 193 1195 l 193 1302 l 554 1302 l 554 1195 l 661 1195 l 661 1048 l 407 1048 l 407 1154 l 340 1154 l 340 1048 l 86 1048 m -20 -20 l -20 981 l 234 981 l 234 554 l 513 554 l 513 981 l 768 981 l 768 -20 l 513 -20 l 513 407 l 234 407 l 234 -20 l -20 -20 m 214 0 l 214 427 l 534 427 l 534 0 l 747 0 l 747 961 l 534 961 l 534 534 l 214 534 l 214 961 l 0 961 l 0 0 l 214 0 m 320 1068 l 320 1175 l 427 1175 l 427 1068 l 641 1068 l 641 1175 l 534 1175 l 534 1282 l 214 1282 l 214 1175 l 106 1175 l 106 1068 l 320 1068 z "},"ĥ":{"ha":961,"x_min":-20,"x_max":768,"o":"m 86 1048 l 86 1195 l 193 1195 l 193 1302 l 554 1302 l 554 1195 l 661 1195 l 661 1048 l 407 1048 l 407 1154 l 340 1154 l 340 1048 l 86 1048 m -20 -20 l -20 127 l 86 127 l 86 834 l -20 834 l -20 981 l 340 981 l 340 554 l 407 554 l 407 661 l 661 661 l 661 554 l 768 554 l 768 -20 l 513 -20 l 513 513 l 448 513 l 448 407 l 340 407 l 340 -20 l -20 -20 m 320 0 l 320 427 l 427 427 l 427 534 l 534 534 l 534 0 l 747 0 l 747 534 l 641 534 l 641 641 l 427 641 l 427 534 l 320 534 l 320 961 l 0 961 l 0 854 l 106 854 l 106 106 l 0 106 l 0 0 l 320 0 m 320 1068 l 320 1175 l 427 1175 l 427 1068 l 641 1068 l 641 1175 l 534 1175 l 534 1282 l 214 1282 l 214 1175 l 106 1175 l 106 1068 l 320 1068 z "},"Ħ":{"ha":961,"x_min":-20,"x_max":875,"o":"m 86 -20 l 86 727 l -20 727 l -20 875 l 86 875 l 86 1088 l 340 1088 l 340 875 l 513 875 l 513 1088 l 768 1088 l 768 875 l 875 875 l 875 727 l 768 727 l 768 -20 l 513 -20 l 513 513 l 340 513 l 340 -20 l 86 -20 m 513 661 l 513 727 l 340 727 l 340 661 l 513 661 m 320 641 l 320 747 l 534 747 l 534 641 l 320 641 m 320 0 l 320 534 l 534 534 l 534 0 l 747 0 l 747 747 l 854 747 l 854 854 l 747 854 l 747 1068 l 534 1068 l 534 854 l 320 854 l 320 1068 l 106 1068 l 106 854 l 0 854 l 0 747 l 106 747 l 106 0 l 320 0 z "},"ħ":{"ha":961,"x_min":-20,"x_max":768,"o":"m -20 -20 l -20 127 l 86 127 l 86 727 l -20 727 l -20 875 l 86 875 l 86 941 l -20 941 l -20 1088 l 340 1088 l 340 875 l 554 875 l 554 727 l 340 727 l 340 554 l 407 554 l 407 661 l 661 661 l 661 554 l 768 554 l 768 -20 l 513 -20 l 513 513 l 448 513 l 448 407 l 340 407 l 340 -20 l -20 -20 m 320 0 l 320 427 l 427 427 l 427 534 l 534 534 l 534 0 l 747 0 l 747 534 l 641 534 l 641 641 l 427 641 l 427 534 l 320 534 l 320 747 l 534 747 l 534 854 l 320 854 l 320 1068 l 0 1068 l 0 961 l 106 961 l 106 854 l 0 854 l 0 747 l 106 747 l 106 106 l 0 106 l 0 0 l 320 0 z "},"Ĩ":{"ha":961,"x_min":86,"x_max":875,"o":"m 86 1048 l 86 1195 l 193 1195 l 193 1302 l 554 1302 l 554 1195 l 621 1195 l 621 1302 l 875 1302 l 875 1154 l 768 1154 l 768 1048 l 407 1048 l 407 1154 l 340 1154 l 340 1048 l 86 1048 m 193 -20 l 193 127 l 300 127 l 300 834 l 193 834 l 193 981 l 661 981 l 661 834 l 554 834 l 554 127 l 661 127 l 661 -20 l 193 -20 m 641 0 l 641 106 l 534 106 l 534 854 l 641 854 l 641 961 l 214 961 l 214 854 l 320 854 l 320 106 l 214 106 l 214 0 l 641 0 m 320 1068 l 320 1175 l 427 1175 l 427 1068 l 747 1068 l 747 1175 l 854 1175 l 854 1282 l 641 1282 l 641 1175 l 534 1175 l 534 1282 l 214 1282 l 214 1175 l 106 1175 l 106 1068 l 320 1068 z "},"ĩ":{"ha":961,"x_min":-20,"x_max":768,"o":"m -20 834 l -20 981 l 86 981 l 86 1088 l 448 1088 l 448 981 l 513 981 l 513 1088 l 768 1088 l 768 941 l 661 941 l 661 834 l 300 834 l 300 941 l 234 941 l 234 834 l -20 834 m 193 -20 l 193 127 l 300 127 l 300 621 l 193 621 l 193 768 l 554 768 l 554 127 l 661 127 l 661 -20 l 193 -20 m 641 0 l 641 106 l 534 106 l 534 747 l 214 747 l 214 641 l 320 641 l 320 106 l 214 106 l 214 0 l 641 0 m 214 854 l 214 961 l 320 961 l 320 854 l 641 854 l 641 961 l 747 961 l 747 1068 l 534 1068 l 534 961 l 427 961 l 427 1068 l 106 1068 l 106 961 l 0 961 l 0 854 l 214 854 z "},"Ī":{"ha":961,"x_min":86,"x_max":768,"o":"m 86 1154 l 86 1302 l 768 1302 l 768 1154 l 86 1154 m 193 -20 l 193 127 l 300 127 l 300 941 l 193 941 l 193 1088 l 661 1088 l 661 941 l 554 941 l 554 127 l 661 127 l 661 -20 l 193 -20 m 641 0 l 641 106 l 534 106 l 534 961 l 641 961 l 641 1068 l 214 1068 l 214 961 l 320 961 l 320 106 l 214 106 l 214 0 l 641 0 m 747 1175 l 747 1282 l 106 1282 l 106 1175 l 747 1175 z "},"ī":{"ha":961,"x_min":86,"x_max":661,"o":"m 86 941 l 86 1088 l 661 1088 l 661 941 l 86 941 m 193 -20 l 193 127 l 300 127 l 300 621 l 193 621 l 193 768 l 554 768 l 554 127 l 661 127 l 661 -20 l 193 -20 m 641 0 l 641 106 l 534 106 l 534 747 l 214 747 l 214 641 l 320 641 l 320 106 l 214 106 l 214 0 l 641 0 m 641 961 l 641 1068 l 106 1068 l 106 961 l 641 961 z "},"Ĭ":{"ha":961,"x_min":86,"x_max":768,"o":"m 193 1048 l 193 1154 l 86 1154 l 86 1302 l 340 1302 l 340 1195 l 513 1195 l 513 1302 l 768 1302 l 768 1154 l 661 1154 l 661 1048 l 193 1048 m 193 -20 l 193 127 l 300 127 l 300 834 l 193 834 l 193 981 l 661 981 l 661 834 l 554 834 l 554 127 l 661 127 l 661 -20 l 193 -20 m 641 0 l 641 106 l 534 106 l 534 854 l 641 854 l 641 961 l 214 961 l 214 854 l 320 854 l 320 106 l 214 106 l 214 0 l 641 0 m 641 1068 l 641 1175 l 747 1175 l 747 1282 l 534 1282 l 534 1175 l 320 1175 l 320 1282 l 106 1282 l 106 1175 l 214 1175 l 214 1068 l 641 1068 z "},"ĭ":{"ha":961,"x_min":86,"x_max":768,"o":"m 193 834 l 193 941 l 86 941 l 86 1088 l 340 1088 l 340 981 l 513 981 l 513 1088 l 768 1088 l 768 941 l 661 941 l 661 834 l 193 834 m 193 -20 l 193 127 l 300 127 l 300 621 l 193 621 l 193 768 l 554 768 l 554 127 l 661 127 l 661 -20 l 193 -20 m 641 0 l 641 106 l 534 106 l 534 747 l 214 747 l 214 641 l 320 641 l 320 106 l 214 106 l 214 0 l 641 0 m 641 854 l 641 961 l 747 961 l 747 1068 l 534 1068 l 534 961 l 320 961 l 320 1068 l 106 1068 l 106 961 l 214 961 l 214 854 l 641 854 z "},"Į":{"ha":961,"x_min":193,"x_max":768,"o":"m 300 -340 l 300 -234 l 193 -234 l 193 -86 l 300 -86 l 300 -20 l 193 -20 l 193 127 l 300 127 l 300 941 l 193 941 l 193 1088 l 661 1088 l 661 941 l 554 941 l 554 127 l 661 127 l 661 -20 l 554 -20 l 554 -127 l 448 -127 l 448 -193 l 768 -193 l 768 -340 l 300 -340 m 747 -320 l 747 -214 l 427 -214 l 427 -106 l 534 -106 l 534 0 l 641 0 l 641 106 l 534 106 l 534 961 l 641 961 l 641 1068 l 214 1068 l 214 961 l 320 961 l 320 106 l 214 106 l 214 0 l 320 0 l 320 -106 l 214 -106 l 214 -214 l 320 -214 l 320 -320 l 747 -320 z "},"į":{"ha":961,"x_min":193,"x_max":768,"o":"m 300 834 l 300 1088 l 554 1088 l 554 834 l 300 834 m 300 -340 l 300 -234 l 193 -234 l 193 -86 l 300 -86 l 300 -20 l 193 -20 l 193 127 l 300 127 l 300 621 l 193 621 l 193 768 l 554 768 l 554 127 l 661 127 l 661 -20 l 554 -20 l 554 -127 l 448 -127 l 448 -193 l 768 -193 l 768 -340 l 300 -340 m 747 -320 l 747 -214 l 427 -214 l 427 -106 l 534 -106 l 534 0 l 641 0 l 641 106 l 534 106 l 534 747 l 214 747 l 214 641 l 320 641 l 320 106 l 214 106 l 214 0 l 320 0 l 320 -106 l 214 -106 l 214 -214 l 320 -214 l 320 -320 l 747 -320 m 534 854 l 534 1068 l 320 1068 l 320 854 l 534 854 z "},"İ":{"ha":961,"x_min":193,"x_max":661,"o":"m 300 1048 l 300 1302 l 554 1302 l 554 1048 l 300 1048 m 193 -20 l 193 127 l 300 127 l 300 834 l 193 834 l 193 981 l 661 981 l 661 834 l 554 834 l 554 127 l 661 127 l 661 -20 l 193 -20 m 641 0 l 641 106 l 534 106 l 534 854 l 641 854 l 641 961 l 214 961 l 214 854 l 320 854 l 320 106 l 214 106 l 214 0 l 641 0 m 534 1068 l 534 1282 l 320 1282 l 320 1068 l 534 1068 z "},"ı":{"ha":961,"x_min":193,"x_max":661,"o":"m 193 -20 l 193 127 l 300 127 l 300 621 l 193 621 l 193 768 l 554 768 l 554 127 l 661 127 l 661 -20 l 193 -20 m 641 0 l 641 106 l 534 106 l 534 747 l 214 747 l 214 641 l 320 641 l 320 106 l 214 106 l 214 0 l 641 0 z "},"Ĳ":{"ha":961,"x_min":-20,"x_max":875,"o":"m 407 -20 l 407 86 l 300 86 l 300 448 l 554 448 l 554 127 l 621 127 l 621 941 l 513 941 l 513 1088 l 875 1088 l 875 86 l 768 86 l 768 -20 l 407 -20 m -20 -20 l -20 1088 l 234 1088 l 234 -20 l -20 -20 m 214 0 l 214 1068 l 0 1068 l 0 0 l 214 0 m 747 0 l 747 106 l 854 106 l 854 1068 l 534 1068 l 534 961 l 641 961 l 641 106 l 534 106 l 534 427 l 320 427 l 320 106 l 427 106 l 427 0 l 747 0 z "},"ĳ":{"ha":961,"x_min":-20,"x_max":875,"o":"m 621 834 l 621 1088 l 875 1088 l 875 834 l 621 834 m -20 834 l -20 1088 l 234 1088 l 234 834 l -20 834 m 407 -340 l 407 -234 l 300 -234 l 300 20 l 554 20 l 554 -193 l 621 -193 l 621 621 l 513 621 l 513 768 l 875 768 l 875 -234 l 768 -234 l 768 -340 l 407 -340 m -20 -20 l -20 768 l 234 768 l 234 -20 l -20 -20 m 214 0 l 214 747 l 0 747 l 0 0 l 214 0 m 747 -320 l 747 -214 l 854 -214 l 854 747 l 534 747 l 534 641 l 641 641 l 641 -214 l 534 -214 l 534 0 l 320 0 l 320 -214 l 427 -214 l 427 -320 l 747 -320 m 214 854 l 214 1068 l 0 1068 l 0 854 l 214 854 m 854 854 l 854 1068 l 641 1068 l 641 854 l 854 854 z "},"Ĵ":{"ha":961,"x_min":-20,"x_max":768,"o":"m 193 1048 l 193 1195 l 300 1195 l 300 1302 l 661 1302 l 661 1195 l 768 1195 l 768 1048 l 513 1048 l 513 1154 l 448 1154 l 448 1048 l 193 1048 m 86 -20 l 86 86 l -20 86 l -20 340 l 234 340 l 234 127 l 407 127 l 407 834 l 300 834 l 300 981 l 768 981 l 768 834 l 661 834 l 661 86 l 554 86 l 554 -20 l 86 -20 m 534 0 l 534 106 l 641 106 l 641 854 l 747 854 l 747 961 l 320 961 l 320 854 l 427 854 l 427 106 l 214 106 l 214 320 l 0 320 l 0 106 l 106 106 l 106 0 l 534 0 m 427 1068 l 427 1175 l 534 1175 l 534 1068 l 747 1068 l 747 1175 l 641 1175 l 641 1282 l 320 1282 l 320 1175 l 214 1175 l 214 1068 l 427 1068 z "},"ĵ":{"ha":961,"x_min":-20,"x_max":768,"o":"m 193 834 l 193 981 l 300 981 l 300 1088 l 407 1088 l 407 1195 l 554 1195 l 554 1088 l 661 1088 l 661 981 l 768 981 l 768 834 l 513 834 l 513 941 l 448 941 l 448 834 l 193 834 m 86 -340 l 86 -234 l -20 -234 l -20 20 l 234 20 l 234 -193 l 407 -193 l 407 621 l 300 621 l 300 768 l 661 768 l 661 -234 l 554 -234 l 554 -340 l 86 -340 m 534 -320 l 534 -214 l 641 -214 l 641 747 l 320 747 l 320 641 l 427 641 l 427 -214 l 214 -214 l 214 0 l 0 0 l 0 -214 l 106 -214 l 106 -320 l 534 -320 m 427 854 l 427 961 l 534 961 l 534 854 l 747 854 l 747 961 l 641 961 l 641 1068 l 534 1068 l 534 1175 l 427 1175 l 427 1068 l 320 1068 l 320 961 l 214 961 l 214 854 l 427 854 z "},"Ķ":{"ha":961,"x_min":-20,"x_max":768,"o":"m -20 -20 l -20 127 l 86 127 l 86 941 l -20 941 l -20 1088 l 340 1088 l 340 661 l 407 661 l 407 768 l 513 768 l 513 1088 l 768 1088 l 768 727 l 661 727 l 661 621 l 554 621 l 554 448 l 661 448 l 661 340 l 768 340 l 768 -20 l 554 -20 l 554 -86 l 661 -86 l 661 -234 l 554 -234 l 554 -340 l 86 -340 l 86 -193 l 407 -193 l 407 -127 l 300 -127 l 300 -20 l -20 -20 m 513 20 l 513 300 l 407 300 l 407 407 l 340 407 l 340 20 l 513 20 m 320 0 l 320 427 l 427 427 l 427 320 l 534 320 l 534 0 l 320 0 m 320 0 l 320 -106 l 427 -106 l 427 -214 l 106 -214 l 106 -320 l 534 -320 l 534 -214 l 641 -214 l 641 -106 l 534 -106 l 534 0 l 747 0 l 747 320 l 641 320 l 641 427 l 534 427 l 534 641 l 641 641 l 641 747 l 747 747 l 747 1068 l 534 1068 l 534 747 l 427 747 l 427 641 l 320 641 l 320 1068 l 0 1068 l 0 961 l 106 961 l 106 106 l 0 106 l 0 0 l 320 0 z "},"ķ":{"ha":961,"x_min":-20,"x_max":768,"o":"m -20 -20 l -20 127 l 86 127 l 86 941 l -20 941 l -20 1088 l 340 1088 l 340 554 l 407 554 l 407 661 l 513 661 l 513 768 l 768 768 l 768 621 l 661 621 l 661 513 l 554 513 l 554 340 l 661 340 l 661 234 l 768 234 l 768 -20 l 554 -20 l 554 -86 l 661 -86 l 661 -234 l 554 -234 l 554 -340 l 86 -340 l 86 -193 l 407 -193 l 407 -127 l 300 -127 l 300 -20 l -20 -20 m 513 20 l 513 193 l 407 193 l 407 300 l 340 300 l 340 20 l 513 20 m 320 0 l 320 320 l 427 320 l 427 214 l 534 214 l 534 0 l 320 0 m 320 0 l 320 -106 l 427 -106 l 427 -214 l 106 -214 l 106 -320 l 534 -320 l 534 -214 l 641 -214 l 641 -106 l 534 -106 l 534 0 l 747 0 l 747 214 l 641 214 l 641 320 l 534 320 l 534 534 l 641 534 l 641 641 l 747 641 l 747 747 l 534 747 l 534 641 l 427 641 l 427 534 l 320 534 l 320 1068 l 0 1068 l 0 961 l 106 961 l 106 106 l 0 106 l 0 0 l 320 0 z "},"ĸ":{"ha":961,"x_min":-20,"x_max":768,"o":"m -20 -20 l -20 127 l 86 127 l 86 621 l -20 621 l -20 768 l 340 768 l 340 448 l 407 448 l 407 554 l 513 554 l 513 768 l 768 768 l 768 513 l 661 513 l 661 407 l 554 407 l 554 340 l 661 340 l 661 234 l 768 234 l 768 -20 l 513 -20 l 513 193 l 407 193 l 407 300 l 340 300 l 340 -20 l -20 -20 m 320 0 l 320 320 l 427 320 l 427 214 l 534 214 l 534 0 l 747 0 l 747 214 l 641 214 l 641 320 l 534 320 l 534 427 l 641 427 l 641 534 l 747 534 l 747 747 l 534 747 l 534 534 l 427 534 l 427 427 l 320 427 l 320 747 l 0 747 l 0 641 l 106 641 l 106 106 l 0 106 l 0 0 l 320 0 z "},"Ĺ":{"ha":961,"x_min":-20,"x_max":768,"o":"m 407 834 l 407 941 l 340 941 l 340 127 l 513 127 l 513 234 l 621 234 l 621 340 l 768 340 l 768 -20 l -20 -20 l -20 127 l 86 127 l 86 941 l -20 941 l -20 1088 l 448 1088 l 448 981 l 513 981 l 513 1088 l 768 1088 l 768 941 l 661 941 l 661 834 l 407 834 m 641 854 l 641 961 l 747 961 l 747 1068 l 534 1068 l 534 961 l 427 961 l 427 1068 l 0 1068 l 0 961 l 106 961 l 106 106 l 0 106 l 0 0 l 747 0 l 747 320 l 641 320 l 641 214 l 534 214 l 534 106 l 320 106 l 320 961 l 427 961 l 427 854 l 641 854 z "},"ĺ":{"ha":961,"x_min":-20,"x_max":768,"o":"m 407 834 l 407 981 l 513 981 l 513 1088 l 768 1088 l 768 941 l 661 941 l 661 834 l 407 834 m -20 -20 l -20 127 l 86 127 l 86 941 l -20 941 l -20 1088 l 340 1088 l 340 127 l 448 127 l 448 -20 l -20 -20 m 427 0 l 427 106 l 320 106 l 320 1068 l 0 1068 l 0 961 l 106 961 l 106 106 l 0 106 l 0 0 l 427 0 m 641 854 l 641 961 l 747 961 l 747 1068 l 534 1068 l 534 961 l 427 961 l 427 854 l 641 854 z "},"Ļ":{"ha":961,"x_min":-20,"x_max":768,"o":"m 86 -340 l 86 -193 l 407 -193 l 407 -127 l 300 -127 l 300 -20 l -20 -20 l -20 127 l 86 127 l 86 941 l -20 941 l -20 1088 l 448 1088 l 448 941 l 340 941 l 340 127 l 513 127 l 513 234 l 621 234 l 621 340 l 768 340 l 768 -20 l 554 -20 l 554 -86 l 661 -86 l 661 -234 l 554 -234 l 554 -340 l 86 -340 m 534 -320 l 534 -214 l 641 -214 l 641 -106 l 534 -106 l 534 0 l 747 0 l 747 320 l 641 320 l 641 214 l 534 214 l 534 106 l 320 106 l 320 961 l 427 961 l 427 1068 l 0 1068 l 0 961 l 106 961 l 106 106 l 0 106 l 0 0 l 320 0 l 320 -106 l 427 -106 l 427 -214 l 106 -214 l 106 -320 l 534 -320 z "},"ļ":{"ha":961,"x_min":86,"x_max":661,"o":"m 86 -340 l 86 -193 l 407 -193 l 407 -127 l 300 -127 l 300 -20 l 193 -20 l 193 127 l 300 127 l 300 941 l 193 941 l 193 1088 l 554 1088 l 554 127 l 661 127 l 661 -20 l 554 -20 l 554 -86 l 661 -86 l 661 -234 l 554 -234 l 554 -340 l 86 -340 m 534 -320 l 534 -214 l 641 -214 l 641 -106 l 534 -106 l 534 0 l 641 0 l 641 106 l 534 106 l 534 1068 l 214 1068 l 214 961 l 320 961 l 320 106 l 214 106 l 214 0 l 320 0 l 320 -106 l 427 -106 l 427 -214 l 106 -214 l 106 -320 l 534 -320 z "},"Ľ":{"ha":961,"x_min":-20,"x_max":768,"o":"m 407 834 l 407 941 l 340 941 l 340 127 l 513 127 l 513 234 l 621 234 l 621 340 l 768 340 l 768 -20 l -20 -20 l -20 127 l 86 127 l 86 941 l -20 941 l -20 1088 l 448 1088 l 448 981 l 513 981 l 513 1195 l 768 1195 l 768 941 l 661 941 l 661 834 l 407 834 m 641 854 l 641 961 l 747 961 l 747 1175 l 534 1175 l 534 961 l 427 961 l 427 1068 l 0 1068 l 0 961 l 106 961 l 106 106 l 0 106 l 0 0 l 747 0 l 747 320 l 641 320 l 641 214 l 534 214 l 534 106 l 320 106 l 320 961 l 427 961 l 427 854 l 641 854 z "},"ľ":{"ha":961,"x_min":-20,"x_max":768,"o":"m 407 834 l 407 981 l 513 981 l 513 1195 l 768 1195 l 768 941 l 661 941 l 661 834 l 407 834 m -20 -20 l -20 127 l 86 127 l 86 941 l -20 941 l -20 1088 l 340 1088 l 340 127 l 448 127 l 448 -20 l -20 -20 m 427 0 l 427 106 l 320 106 l 320 1068 l 0 1068 l 0 961 l 106 961 l 106 106 l 0 106 l 0 0 l 427 0 m 641 854 l 641 961 l 747 961 l 747 1175 l 534 1175 l 534 961 l 427 961 l 427 854 l 641 854 z "},"Ŀ":{"ha":961,"x_min":-20,"x_max":768,"o":"m -20 -20 l -20 127 l 86 127 l 86 941 l -20 941 l -20 1088 l 448 1088 l 448 941 l 340 941 l 340 127 l 513 127 l 513 234 l 621 234 l 621 340 l 768 340 l 768 -20 l -20 -20 m 513 513 l 513 768 l 768 768 l 768 513 l 513 513 m 747 534 l 747 747 l 534 747 l 534 534 l 747 534 m 747 0 l 747 320 l 641 320 l 641 214 l 534 214 l 534 106 l 320 106 l 320 961 l 427 961 l 427 1068 l 0 1068 l 0 961 l 106 961 l 106 106 l 0 106 l 0 0 l 747 0 z "},"ŀ":{"ha":961,"x_min":86,"x_max":768,"o":"m 86 -20 l 86 127 l 193 127 l 193 941 l 86 941 l 86 1088 l 448 1088 l 448 127 l 554 127 l 554 -20 l 86 -20 m 513 407 l 513 661 l 768 661 l 768 407 l 513 407 m 747 427 l 747 641 l 534 641 l 534 427 l 747 427 m 534 0 l 534 106 l 427 106 l 427 1068 l 106 1068 l 106 961 l 214 961 l 214 106 l 106 106 l 106 0 l 534 0 z "},"Ł":{"ha":961,"x_min":-20,"x_max":768,"o":"m -20 -20 l -20 127 l 86 127 l 86 300 l -20 300 l -20 554 l 86 554 l 86 941 l -20 941 l -20 1088 l 448 1088 l 448 941 l 340 941 l 340 768 l 407 768 l 407 875 l 513 875 l 513 981 l 661 981 l 661 727 l 554 727 l 554 621 l 448 621 l 448 513 l 340 513 l 340 127 l 513 127 l 513 234 l 621 234 l 621 340 l 768 340 l 768 -20 l -20 -20 m 747 0 l 747 320 l 641 320 l 641 214 l 534 214 l 534 106 l 320 106 l 320 534 l 427 534 l 427 641 l 534 641 l 534 747 l 641 747 l 641 961 l 534 961 l 534 854 l 427 854 l 427 747 l 320 747 l 320 961 l 427 961 l 427 1068 l 0 1068 l 0 961 l 106 961 l 106 534 l 0 534 l 0 320 l 106 320 l 106 106 l 0 106 l 0 0 l 747 0 z "},"ł":{"ha":961,"x_min":86,"x_max":768,"o":"m 193 -20 l 193 127 l 300 127 l 300 300 l 234 300 l 234 193 l 86 193 l 86 448 l 193 448 l 193 554 l 300 554 l 300 941 l 193 941 l 193 1088 l 554 1088 l 554 875 l 621 875 l 621 981 l 768 981 l 768 727 l 661 727 l 661 621 l 554 621 l 554 127 l 661 127 l 661 -20 l 193 -20 m 641 0 l 641 106 l 534 106 l 534 641 l 641 641 l 641 747 l 747 747 l 747 961 l 641 961 l 641 854 l 534 854 l 534 1068 l 214 1068 l 214 961 l 320 961 l 320 534 l 214 534 l 214 427 l 106 427 l 106 214 l 214 214 l 214 320 l 320 320 l 320 106 l 214 106 l 214 0 l 641 0 z "},"Ń":{"ha":961,"x_min":-20,"x_max":768,"o":"m 300 1048 l 300 1195 l 407 1195 l 407 1302 l 661 1302 l 661 1154 l 554 1154 l 554 1048 l 300 1048 m -20 -20 l -20 981 l 234 981 l 234 875 l 340 875 l 340 768 l 448 768 l 448 661 l 513 661 l 513 981 l 768 981 l 768 -20 l 513 -20 l 513 300 l 407 300 l 407 407 l 300 407 l 300 513 l 234 513 l 234 -20 l -20 -20 m 214 0 l 214 534 l 320 534 l 320 427 l 427 427 l 427 320 l 534 320 l 534 0 l 747 0 l 747 961 l 534 961 l 534 641 l 427 641 l 427 747 l 320 747 l 320 854 l 214 854 l 214 961 l 0 961 l 0 0 l 214 0 m 534 1068 l 534 1175 l 641 1175 l 641 1282 l 427 1282 l 427 1175 l 320 1175 l 320 1068 l 534 1068 z "},"ń":{"ha":961,"x_min":-20,"x_max":768,"o":"m 193 834 l 193 981 l 300 981 l 300 1088 l 407 1088 l 407 1195 l 661 1195 l 661 1048 l 554 1048 l 554 941 l 448 941 l 448 834 l 193 834 m 513 -20 l 513 621 l 340 621 l 340 -20 l 86 -20 l 86 621 l -20 621 l -20 768 l 234 768 l 234 661 l 300 661 l 300 768 l 661 768 l 661 661 l 768 661 l 768 -20 l 513 -20 m 747 0 l 747 641 l 641 641 l 641 747 l 320 747 l 320 641 l 214 641 l 214 747 l 0 747 l 0 641 l 106 641 l 106 0 l 320 0 l 320 641 l 534 641 l 534 0 l 747 0 m 427 854 l 427 961 l 534 961 l 534 1068 l 641 1068 l 641 1175 l 427 1175 l 427 1068 l 320 1068 l 320 961 l 214 961 l 214 854 l 427 854 z "},"Ņ":{"ha":961,"x_min":-20,"x_max":768,"o":"m -20 -20 l -20 1088 l 234 1088 l 234 981 l 340 981 l 340 875 l 448 875 l 448 768 l 513 768 l 513 1088 l 768 1088 l 768 -20 l 554 -20 l 554 -86 l 661 -86 l 661 -234 l 554 -234 l 554 -340 l 86 -340 l 86 -193 l 407 -193 l 407 -127 l 300 -127 l 300 20 l 513 20 l 513 407 l 407 407 l 407 513 l 300 513 l 300 621 l 234 621 l 234 -20 l -20 -20 m 214 0 l 214 641 l 320 641 l 320 534 l 427 534 l 427 427 l 534 427 l 534 0 l 320 0 l 320 -106 l 427 -106 l 427 -214 l 106 -214 l 106 -320 l 534 -320 l 534 -214 l 641 -214 l 641 -106 l 534 -106 l 534 0 l 747 0 l 747 1068 l 534 1068 l 534 747 l 427 747 l 427 854 l 320 854 l 320 961 l 214 961 l 214 1068 l 0 1068 l 0 0 l 214 0 z "},"ņ":{"ha":961,"x_min":-20,"x_max":768,"o":"m 300 661 l 300 768 l 661 768 l 661 661 l 768 661 l 768 -20 l 554 -20 l 554 -86 l 661 -86 l 661 -234 l 554 -234 l 554 -340 l 86 -340 l 86 -193 l 407 -193 l 407 -127 l 300 -127 l 300 -20 l 86 -20 l 86 621 l -20 621 l -20 768 l 234 768 l 234 661 l 300 661 m 513 20 l 513 621 l 340 621 l 340 20 l 513 20 m 320 0 l 320 641 l 534 641 l 534 0 l 320 0 m 214 641 l 214 747 l 0 747 l 0 641 l 106 641 l 106 0 l 320 0 l 320 -106 l 427 -106 l 427 -214 l 106 -214 l 106 -320 l 534 -320 l 534 -214 l 641 -214 l 641 -106 l 534 -106 l 534 0 l 747 0 l 747 641 l 641 641 l 641 747 l 320 747 l 320 641 l 214 641 z "},"Ň":{"ha":961,"x_min":-20,"x_max":768,"o":"m 193 1048 l 193 1154 l 86 1154 l 86 1302 l 340 1302 l 340 1195 l 407 1195 l 407 1302 l 661 1302 l 661 1154 l 554 1154 l 554 1048 l 193 1048 m -20 -20 l -20 981 l 234 981 l 234 875 l 340 875 l 340 768 l 448 768 l 448 661 l 513 661 l 513 981 l 768 981 l 768 -20 l 513 -20 l 513 300 l 407 300 l 407 407 l 300 407 l 300 513 l 234 513 l 234 -20 l -20 -20 m 214 0 l 214 534 l 320 534 l 320 427 l 427 427 l 427 320 l 534 320 l 534 0 l 747 0 l 747 961 l 534 961 l 534 641 l 427 641 l 427 747 l 320 747 l 320 854 l 214 854 l 214 961 l 0 961 l 0 0 l 214 0 m 534 1068 l 534 1175 l 641 1175 l 641 1282 l 427 1282 l 427 1175 l 320 1175 l 320 1282 l 106 1282 l 106 1175 l 214 1175 l 214 1068 l 534 1068 z "},"ň":{"ha":961,"x_min":-20,"x_max":768,"o":"m 193 834 l 193 941 l 86 941 l 86 1088 l 340 1088 l 340 981 l 407 981 l 407 1088 l 661 1088 l 661 941 l 554 941 l 554 834 l 193 834 m 513 -20 l 513 621 l 340 621 l 340 -20 l 86 -20 l 86 621 l -20 621 l -20 768 l 234 768 l 234 661 l 300 661 l 300 768 l 661 768 l 661 661 l 768 661 l 768 -20 l 513 -20 m 747 0 l 747 641 l 641 641 l 641 747 l 320 747 l 320 641 l 214 641 l 214 747 l 0 747 l 0 641 l 106 641 l 106 0 l 320 0 l 320 641 l 534 641 l 534 0 l 747 0 m 534 854 l 534 961 l 641 961 l 641 1068 l 427 1068 l 427 961 l 320 961 l 320 1068 l 106 1068 l 106 961 l 214 961 l 214 854 l 534 854 z "},"ŉ":{"ha":961,"x_min":-20,"x_max":768,"o":"m -20 834 l -20 981 l 86 981 l 86 1302 l 340 1302 l 340 941 l 234 941 l 234 834 l -20 834 m 513 -20 l 513 621 l 340 621 l 340 -20 l 86 -20 l 86 621 l -20 621 l -20 768 l 234 768 l 234 661 l 300 661 l 300 768 l 661 768 l 661 661 l 768 661 l 768 -20 l 513 -20 m 747 0 l 747 641 l 641 641 l 641 747 l 320 747 l 320 641 l 214 641 l 214 747 l 0 747 l 0 641 l 106 641 l 106 0 l 320 0 l 320 641 l 534 641 l 534 0 l 747 0 m 214 854 l 214 961 l 320 961 l 320 1282 l 106 1282 l 106 961 l 0 961 l 0 854 l 214 854 z "},"Ŋ":{"ha":961,"x_min":-20,"x_max":768,"o":"m 300 -340 l 300 -193 l 513 -193 l 513 407 l 407 407 l 407 513 l 300 513 l 300 621 l 234 621 l 234 -20 l -20 -20 l -20 1088 l 234 1088 l 234 981 l 340 981 l 340 875 l 448 875 l 448 768 l 513 768 l 513 1088 l 768 1088 l 768 -234 l 661 -234 l 661 -340 l 300 -340 m 641 -320 l 641 -214 l 747 -214 l 747 1068 l 534 1068 l 534 747 l 427 747 l 427 854 l 320 854 l 320 961 l 214 961 l 214 1068 l 0 1068 l 0 0 l 214 0 l 214 641 l 320 641 l 320 534 l 427 534 l 427 427 l 534 427 l 534 -214 l 320 -214 l 320 -320 l 641 -320 z "},"ŋ":{"ha":961,"x_min":-20,"x_max":768,"o":"m 300 -340 l 300 -193 l 513 -193 l 513 621 l 340 621 l 340 -20 l 86 -20 l 86 621 l -20 621 l -20 768 l 234 768 l 234 661 l 300 661 l 300 768 l 661 768 l 661 661 l 768 661 l 768 -234 l 661 -234 l 661 -340 l 300 -340 m 641 -320 l 641 -214 l 747 -214 l 747 641 l 641 641 l 641 747 l 320 747 l 320 641 l 214 641 l 214 747 l 0 747 l 0 641 l 106 641 l 106 0 l 320 0 l 320 641 l 534 641 l 534 -214 l 320 -214 l 320 -320 l 641 -320 z "},"Ō":{"ha":961,"x_min":-20,"x_max":768,"o":"m 86 1154 l 86 1302 l 661 1302 l 661 1154 l 86 1154 m 86 -20 l 86 86 l -20 86 l -20 981 l 86 981 l 86 1088 l 661 1088 l 661 981 l 768 981 l 768 86 l 661 86 l 661 -20 l 86 -20 m 513 127 l 513 941 l 234 941 l 234 127 l 513 127 m 214 106 l 214 961 l 534 961 l 534 106 l 214 106 m 641 0 l 641 106 l 747 106 l 747 961 l 641 961 l 641 1068 l 106 1068 l 106 961 l 0 961 l 0 106 l 106 106 l 106 0 l 641 0 m 641 1175 l 641 1282 l 106 1282 l 106 1175 l 641 1175 z "},"ō":{"ha":961,"x_min":-20,"x_max":768,"o":"m 86 941 l 86 1088 l 661 1088 l 661 941 l 86 941 m 86 -20 l 86 86 l -20 86 l -20 661 l 86 661 l 86 768 l 661 768 l 661 661 l 768 661 l 768 86 l 661 86 l 661 -20 l 86 -20 m 513 127 l 513 621 l 234 621 l 234 127 l 513 127 m 214 106 l 214 641 l 534 641 l 534 106 l 214 106 m 641 0 l 641 106 l 747 106 l 747 641 l 641 641 l 641 747 l 106 747 l 106 641 l 0 641 l 0 106 l 106 106 l 106 0 l 641 0 m 641 961 l 641 1068 l 106 1068 l 106 961 l 641 961 z "},"Ŏ":{"ha":961,"x_min":-20,"x_max":768,"o":"m 86 1048 l 86 1154 l -20 1154 l -20 1302 l 234 1302 l 234 1195 l 513 1195 l 513 1302 l 768 1302 l 768 1154 l 661 1154 l 661 1048 l 86 1048 m 86 -20 l 86 86 l -20 86 l -20 875 l 86 875 l 86 981 l 661 981 l 661 875 l 768 875 l 768 86 l 661 86 l 661 -20 l 86 -20 m 513 127 l 513 834 l 234 834 l 234 127 l 513 127 m 214 106 l 214 854 l 534 854 l 534 106 l 214 106 m 641 0 l 641 106 l 747 106 l 747 854 l 641 854 l 641 961 l 106 961 l 106 854 l 0 854 l 0 106 l 106 106 l 106 0 l 641 0 m 641 1068 l 641 1175 l 747 1175 l 747 1282 l 534 1282 l 534 1175 l 214 1175 l 214 1282 l 0 1282 l 0 1175 l 106 1175 l 106 1068 l 641 1068 z "},"ŏ":{"ha":961,"x_min":-20,"x_max":768,"o":"m 86 834 l 86 941 l -20 941 l -20 1088 l 234 1088 l 234 981 l 513 981 l 513 1088 l 768 1088 l 768 941 l 661 941 l 661 834 l 86 834 m 86 -20 l 86 86 l -20 86 l -20 661 l 86 661 l 86 768 l 661 768 l 661 661 l 768 661 l 768 86 l 661 86 l 661 -20 l 86 -20 m 513 127 l 513 621 l 234 621 l 234 127 l 513 127 m 214 106 l 214 641 l 534 641 l 534 106 l 214 106 m 641 0 l 641 106 l 747 106 l 747 641 l 641 641 l 641 747 l 106 747 l 106 641 l 0 641 l 0 106 l 106 106 l 106 0 l 641 0 m 641 854 l 641 961 l 747 961 l 747 1068 l 534 1068 l 534 961 l 214 961 l 214 1068 l 0 1068 l 0 961 l 106 961 l 106 854 l 641 854 z "},"Ő":{"ha":961,"x_min":-20,"x_max":768,"o":"m 407 1048 l 407 1154 l 340 1154 l 340 1048 l 86 1048 l 86 1195 l 193 1195 l 193 1302 l 448 1302 l 448 1195 l 513 1195 l 513 1302 l 768 1302 l 768 1154 l 661 1154 l 661 1048 l 407 1048 m 86 -20 l 86 86 l -20 86 l -20 875 l 86 875 l 86 981 l 661 981 l 661 875 l 768 875 l 768 86 l 661 86 l 661 -20 l 86 -20 m 513 127 l 513 834 l 234 834 l 234 127 l 513 127 m 214 106 l 214 854 l 534 854 l 534 106 l 214 106 m 641 0 l 641 106 l 747 106 l 747 854 l 641 854 l 641 961 l 106 961 l 106 854 l 0 854 l 0 106 l 106 106 l 106 0 l 641 0 m 641 1068 l 641 1175 l 747 1175 l 747 1282 l 534 1282 l 534 1175 l 427 1175 l 427 1282 l 214 1282 l 214 1175 l 106 1175 l 106 1068 l 320 1068 l 320 1175 l 427 1175 l 427 1068 l 641 1068 z "},"ő":{"ha":961,"x_min":-20,"x_max":768,"o":"m 407 834 l 407 941 l 340 941 l 340 834 l 86 834 l 86 981 l 193 981 l 193 1088 l 448 1088 l 448 981 l 513 981 l 513 1088 l 768 1088 l 768 941 l 661 941 l 661 834 l 407 834 m 86 -20 l 86 86 l -20 86 l -20 661 l 86 661 l 86 768 l 661 768 l 661 661 l 768 661 l 768 86 l 661 86 l 661 -20 l 86 -20 m 513 127 l 513 621 l 234 621 l 234 127 l 513 127 m 214 106 l 214 641 l 534 641 l 534 106 l 214 106 m 641 0 l 641 106 l 747 106 l 747 641 l 641 641 l 641 747 l 106 747 l 106 641 l 0 641 l 0 106 l 106 106 l 106 0 l 641 0 m 641 854 l 641 961 l 747 961 l 747 1068 l 534 1068 l 534 961 l 427 961 l 427 1068 l 214 1068 l 214 961 l 106 961 l 106 854 l 320 854 l 320 961 l 427 961 l 427 854 l 641 854 z "},"Œ":{"ha":961,"x_min":-20,"x_max":875,"o":"m 86 -20 l 86 86 l -20 86 l -20 981 l 86 981 l 86 1088 l 875 1088 l 875 941 l 661 941 l 661 661 l 875 661 l 875 513 l 661 513 l 661 127 l 875 127 l 875 -20 l 86 -20 m 407 127 l 407 941 l 234 941 l 234 127 l 407 127 m 214 106 l 214 961 l 427 961 l 427 106 l 214 106 m 854 0 l 854 106 l 641 106 l 641 534 l 854 534 l 854 641 l 641 641 l 641 961 l 854 961 l 854 1068 l 106 1068 l 106 961 l 0 961 l 0 106 l 106 106 l 106 0 l 854 0 z "},"œ":{"ha":961,"x_min":-20,"x_max":875,"o":"m 86 -20 l 86 86 l -20 86 l -20 661 l 86 661 l 86 768 l 340 768 l 340 661 l 407 661 l 407 768 l 768 768 l 768 661 l 875 661 l 875 300 l 554 300 l 554 234 l 661 234 l 661 127 l 875 127 l 875 -20 l 513 -20 l 513 86 l 448 86 l 448 -20 l 86 -20 m 621 448 l 621 621 l 554 621 l 554 448 l 621 448 m 300 621 l 234 621 l 234 127 l 300 127 l 300 621 m 320 106 l 214 106 l 214 641 l 320 641 l 320 106 m 534 427 l 534 641 l 641 641 l 641 427 l 534 427 m 427 0 l 427 106 l 534 106 l 534 0 l 854 0 l 854 106 l 641 106 l 641 214 l 534 214 l 534 320 l 854 320 l 854 641 l 747 641 l 747 747 l 427 747 l 427 641 l 320 641 l 320 747 l 106 747 l 106 641 l 0 641 l 0 106 l 106 106 l 106 0 l 427 0 z "},"Ŕ":{"ha":961,"x_min":-20,"x_max":768,"o":"m 193 1048 l 193 1195 l 300 1195 l 300 1302 l 554 1302 l 554 1154 l 448 1154 l 448 1048 l 193 1048 m -20 -20 l -20 127 l 86 127 l 86 834 l -20 834 l -20 981 l 661 981 l 661 875 l 768 875 l 768 513 l 661 513 l 661 340 l 768 340 l 768 -20 l 513 -20 l 513 300 l 407 300 l 407 407 l 340 407 l 340 -20 l -20 -20 m 513 554 l 513 834 l 340 834 l 340 554 l 513 554 m 320 534 l 320 854 l 534 854 l 534 534 l 320 534 m 320 0 l 320 427 l 427 427 l 427 320 l 534 320 l 534 0 l 747 0 l 747 320 l 641 320 l 641 534 l 747 534 l 747 854 l 641 854 l 641 961 l 0 961 l 0 854 l 106 854 l 106 106 l 0 106 l 0 0 l 320 0 m 427 1068 l 427 1175 l 534 1175 l 534 1282 l 320 1282 l 320 1175 l 214 1175 l 214 1068 l 427 1068 z "},"ŕ":{"ha":961,"x_min":-20,"x_max":768,"o":"m 193 834 l 193 981 l 300 981 l 300 1088 l 407 1088 l 407 1195 l 661 1195 l 661 1048 l 554 1048 l 554 941 l 448 941 l 448 834 l 193 834 m -20 -20 l -20 127 l 86 127 l 86 621 l -20 621 l -20 768 l 234 768 l 234 661 l 300 661 l 300 768 l 661 768 l 661 661 l 768 661 l 768 407 l 513 407 l 513 621 l 448 621 l 448 513 l 340 513 l 340 127 l 448 127 l 448 -20 l -20 -20 m 427 0 l 427 106 l 320 106 l 320 534 l 427 534 l 427 641 l 534 641 l 534 427 l 747 427 l 747 641 l 641 641 l 641 747 l 320 747 l 320 641 l 214 641 l 214 747 l 0 747 l 0 641 l 106 641 l 106 106 l 0 106 l 0 0 l 427 0 m 427 854 l 427 961 l 534 961 l 534 1068 l 641 1068 l 641 1175 l 427 1175 l 427 1068 l 320 1068 l 320 961 l 214 961 l 214 854 l 427 854 z "},"Ŗ":{"ha":961,"x_min":-20,"x_max":768,"o":"m -20 -20 l -20 127 l 86 127 l 86 941 l -20 941 l -20 1088 l 661 1088 l 661 981 l 768 981 l 768 621 l 661 621 l 661 448 l 768 448 l 768 -20 l 554 -20 l 554 -86 l 661 -86 l 661 -234 l 554 -234 l 554 -340 l 86 -340 l 86 -193 l 407 -193 l 407 -127 l 300 -127 l 300 -20 l -20 -20 m 513 661 l 513 941 l 340 941 l 340 661 l 513 661 m 513 20 l 513 407 l 407 407 l 407 513 l 340 513 l 340 20 l 513 20 m 320 0 l 320 534 l 427 534 l 427 427 l 534 427 l 534 0 l 320 0 m 320 641 l 320 961 l 534 961 l 534 641 l 320 641 m 320 0 l 320 -106 l 427 -106 l 427 -214 l 106 -214 l 106 -320 l 534 -320 l 534 -214 l 641 -214 l 641 -106 l 534 -106 l 534 0 l 747 0 l 747 427 l 641 427 l 641 641 l 747 641 l 747 961 l 641 961 l 641 1068 l 0 1068 l 0 961 l 106 961 l 106 106 l 0 106 l 0 0 l 320 0 z "},"ŗ":{"ha":961,"x_min":-20,"x_max":768,"o":"m 86 -340 l 86 -193 l 407 -193 l 407 -127 l 300 -127 l 300 -20 l -20 -20 l -20 127 l 86 127 l 86 621 l -20 621 l -20 768 l 234 768 l 234 661 l 300 661 l 300 768 l 661 768 l 661 661 l 768 661 l 768 407 l 513 407 l 513 621 l 448 621 l 448 513 l 340 513 l 340 127 l 448 127 l 448 20 l 554 20 l 554 -86 l 661 -86 l 661 -234 l 554 -234 l 554 -340 l 86 -340 m 534 -320 l 534 -214 l 641 -214 l 641 -106 l 534 -106 l 534 0 l 427 0 l 427 106 l 320 106 l 320 534 l 427 534 l 427 641 l 534 641 l 534 427 l 747 427 l 747 641 l 641 641 l 641 747 l 320 747 l 320 641 l 214 641 l 214 747 l 0 747 l 0 641 l 106 641 l 106 106 l 0 106 l 0 0 l 320 0 l 320 -106 l 427 -106 l 427 -214 l 106 -214 l 106 -320 l 534 -320 z "},"Ř":{"ha":961,"x_min":-20,"x_max":768,"o":"m 193 1048 l 193 1154 l 86 1154 l 86 1302 l 340 1302 l 340 1195 l 407 1195 l 407 1302 l 661 1302 l 661 1154 l 554 1154 l 554 1048 l 193 1048 m -20 -20 l -20 127 l 86 127 l 86 834 l -20 834 l -20 981 l 661 981 l 661 875 l 768 875 l 768 513 l 661 513 l 661 340 l 768 340 l 768 -20 l 513 -20 l 513 300 l 407 300 l 407 407 l 340 407 l 340 -20 l -20 -20 m 513 554 l 513 834 l 340 834 l 340 554 l 513 554 m 320 534 l 320 854 l 534 854 l 534 534 l 320 534 m 320 0 l 320 427 l 427 427 l 427 320 l 534 320 l 534 0 l 747 0 l 747 320 l 641 320 l 641 534 l 747 534 l 747 854 l 641 854 l 641 961 l 0 961 l 0 854 l 106 854 l 106 106 l 0 106 l 0 0 l 320 0 m 534 1068 l 534 1175 l 641 1175 l 641 1282 l 427 1282 l 427 1175 l 320 1175 l 320 1282 l 106 1282 l 106 1175 l 214 1175 l 214 1068 l 534 1068 z "},"ř":{"ha":961,"x_min":-20,"x_max":768,"o":"m 193 834 l 193 941 l 86 941 l 86 1088 l 340 1088 l 340 981 l 407 981 l 407 1088 l 661 1088 l 661 941 l 554 941 l 554 834 l 193 834 m -20 -20 l -20 127 l 86 127 l 86 621 l -20 621 l -20 768 l 234 768 l 234 661 l 300 661 l 300 768 l 661 768 l 661 661 l 768 661 l 768 407 l 513 407 l 513 621 l 448 621 l 448 513 l 340 513 l 340 127 l 448 127 l 448 -20 l -20 -20 m 427 0 l 427 106 l 320 106 l 320 534 l 427 534 l 427 641 l 534 641 l 534 427 l 747 427 l 747 641 l 641 641 l 641 747 l 320 747 l 320 641 l 214 641 l 214 747 l 0 747 l 0 641 l 106 641 l 106 106 l 0 106 l 0 0 l 427 0 m 534 854 l 534 961 l 641 961 l 641 1068 l 427 1068 l 427 961 l 320 961 l 320 1068 l 106 1068 l 106 961 l 214 961 l 214 854 l 534 854 z "},"Ś":{"ha":961,"x_min":-20,"x_max":768,"o":"m 193 1048 l 193 1195 l 300 1195 l 300 1302 l 554 1302 l 554 1154 l 448 1154 l 448 1048 l 193 1048 m 86 -20 l 86 86 l -20 86 l -20 340 l 234 340 l 234 127 l 513 127 l 513 300 l 407 300 l 407 407 l 193 407 l 193 513 l 86 513 l 86 621 l -20 621 l -20 875 l 86 875 l 86 981 l 661 981 l 661 875 l 768 875 l 768 621 l 513 621 l 513 834 l 234 834 l 234 661 l 340 661 l 340 554 l 554 554 l 554 448 l 661 448 l 661 340 l 768 340 l 768 86 l 661 86 l 661 -20 l 86 -20 m 641 0 l 641 106 l 747 106 l 747 320 l 641 320 l 641 427 l 534 427 l 534 534 l 320 534 l 320 641 l 214 641 l 214 854 l 534 854 l 534 641 l 747 641 l 747 854 l 641 854 l 641 961 l 106 961 l 106 854 l 0 854 l 0 641 l 106 641 l 106 534 l 214 534 l 214 427 l 427 427 l 427 320 l 534 320 l 534 106 l 214 106 l 214 320 l 0 320 l 0 106 l 106 106 l 106 0 l 641 0 m 427 1068 l 427 1175 l 534 1175 l 534 1282 l 320 1282 l 320 1175 l 214 1175 l 214 1068 l 427 1068 z "},"ś":{"ha":961,"x_min":-20,"x_max":768,"o":"m 300 834 l 300 981 l 407 981 l 407 1088 l 661 1088 l 661 941 l 554 941 l 554 834 l 300 834 m 86 -20 l 86 86 l -20 86 l -20 234 l 234 234 l 234 127 l 513 127 l 513 193 l 407 193 l 407 300 l 193 300 l 193 407 l 86 407 l 86 513 l -20 513 l -20 661 l 86 661 l 86 768 l 661 768 l 661 661 l 768 661 l 768 513 l 513 513 l 513 621 l 234 621 l 234 554 l 340 554 l 340 448 l 554 448 l 554 340 l 661 340 l 661 234 l 768 234 l 768 86 l 661 86 l 661 -20 l 86 -20 m 641 0 l 641 106 l 747 106 l 747 214 l 641 214 l 641 320 l 534 320 l 534 427 l 320 427 l 320 534 l 214 534 l 214 641 l 534 641 l 534 534 l 747 534 l 747 641 l 641 641 l 641 747 l 106 747 l 106 641 l 0 641 l 0 534 l 106 534 l 106 427 l 214 427 l 214 320 l 427 320 l 427 214 l 534 214 l 534 106 l 214 106 l 214 214 l 0 214 l 0 106 l 106 106 l 106 0 l 641 0 m 534 854 l 534 961 l 641 961 l 641 1068 l 427 1068 l 427 961 l 320 961 l 320 854 l 534 854 z "},"Ŝ":{"ha":961,"x_min":-20,"x_max":768,"o":"m 86 1048 l 86 1195 l 193 1195 l 193 1302 l 554 1302 l 554 1195 l 661 1195 l 661 1048 l 407 1048 l 407 1154 l 340 1154 l 340 1048 l 86 1048 m 86 -20 l 86 86 l -20 86 l -20 340 l 234 340 l 234 127 l 513 127 l 513 300 l 407 300 l 407 407 l 193 407 l 193 513 l 86 513 l 86 621 l -20 621 l -20 875 l 86 875 l 86 981 l 661 981 l 661 875 l 768 875 l 768 621 l 513 621 l 513 834 l 234 834 l 234 661 l 340 661 l 340 554 l 554 554 l 554 448 l 661 448 l 661 340 l 768 340 l 768 86 l 661 86 l 661 -20 l 86 -20 m 641 0 l 641 106 l 747 106 l 747 320 l 641 320 l 641 427 l 534 427 l 534 534 l 320 534 l 320 641 l 214 641 l 214 854 l 534 854 l 534 641 l 747 641 l 747 854 l 641 854 l 641 961 l 106 961 l 106 854 l 0 854 l 0 641 l 106 641 l 106 534 l 214 534 l 214 427 l 427 427 l 427 320 l 534 320 l 534 106 l 214 106 l 214 320 l 0 320 l 0 106 l 106 106 l 106 0 l 641 0 m 320 1068 l 320 1175 l 427 1175 l 427 1068 l 641 1068 l 641 1175 l 534 1175 l 534 1282 l 214 1282 l 214 1175 l 106 1175 l 106 1068 l 320 1068 z "},"ŝ":{"ha":961,"x_min":-20,"x_max":768,"o":"m 86 834 l 86 981 l 193 981 l 193 1088 l 300 1088 l 300 1195 l 448 1195 l 448 1088 l 554 1088 l 554 981 l 661 981 l 661 834 l 407 834 l 407 941 l 340 941 l 340 834 l 86 834 m 86 -20 l 86 86 l -20 86 l -20 234 l 234 234 l 234 127 l 513 127 l 513 193 l 407 193 l 407 300 l 193 300 l 193 407 l 86 407 l 86 513 l -20 513 l -20 661 l 86 661 l 86 768 l 661 768 l 661 661 l 768 661 l 768 513 l 513 513 l 513 621 l 234 621 l 234 554 l 340 554 l 340 448 l 554 448 l 554 340 l 661 340 l 661 234 l 768 234 l 768 86 l 661 86 l 661 -20 l 86 -20 m 641 0 l 641 106 l 747 106 l 747 214 l 641 214 l 641 320 l 534 320 l 534 427 l 320 427 l 320 534 l 214 534 l 214 641 l 534 641 l 534 534 l 747 534 l 747 641 l 641 641 l 641 747 l 106 747 l 106 641 l 0 641 l 0 534 l 106 534 l 106 427 l 214 427 l 214 320 l 427 320 l 427 214 l 534 214 l 534 106 l 214 106 l 214 214 l 0 214 l 0 106 l 106 106 l 106 0 l 641 0 m 320 854 l 320 961 l 427 961 l 427 854 l 641 854 l 641 961 l 534 961 l 534 1068 l 427 1068 l 427 1175 l 320 1175 l 320 1068 l 214 1068 l 214 961 l 106 961 l 106 854 l 320 854 z "},"Ş":{"ha":961,"x_min":-20,"x_max":768,"o":"m 86 -340 l 86 -193 l 407 -193 l 407 -127 l 300 -127 l 300 -20 l 86 -20 l 86 86 l -20 86 l -20 340 l 234 340 l 234 127 l 513 127 l 513 407 l 407 407 l 407 513 l 193 513 l 193 621 l 86 621 l 86 727 l -20 727 l -20 981 l 86 981 l 86 1088 l 661 1088 l 661 981 l 768 981 l 768 727 l 513 727 l 513 941 l 234 941 l 234 768 l 340 768 l 340 661 l 554 661 l 554 554 l 661 554 l 661 448 l 768 448 l 768 86 l 661 86 l 661 -20 l 554 -20 l 554 -86 l 661 -86 l 661 -234 l 554 -234 l 554 -340 l 86 -340 m 534 -320 l 534 -214 l 641 -214 l 641 -106 l 534 -106 l 534 0 l 641 0 l 641 106 l 747 106 l 747 427 l 641 427 l 641 534 l 534 534 l 534 641 l 320 641 l 320 747 l 214 747 l 214 961 l 534 961 l 534 747 l 747 747 l 747 961 l 641 961 l 641 1068 l 106 1068 l 106 961 l 0 961 l 0 747 l 106 747 l 106 641 l 214 641 l 214 534 l 427 534 l 427 427 l 534 427 l 534 106 l 214 106 l 214 320 l 0 320 l 0 106 l 106 106 l 106 0 l 320 0 l 320 -106 l 427 -106 l 427 -214 l 106 -214 l 106 -320 l 534 -320 z "},"ş":{"ha":961,"x_min":-20,"x_max":768,"o":"m 86 -340 l 86 -193 l 407 -193 l 407 -127 l 300 -127 l 300 -20 l 86 -20 l 86 86 l -20 86 l -20 234 l 234 234 l 234 127 l 513 127 l 513 193 l 407 193 l 407 300 l 193 300 l 193 407 l 86 407 l 86 513 l -20 513 l -20 661 l 86 661 l 86 768 l 661 768 l 661 661 l 768 661 l 768 513 l 513 513 l 513 621 l 234 621 l 234 554 l 340 554 l 340 448 l 554 448 l 554 340 l 661 340 l 661 234 l 768 234 l 768 86 l 661 86 l 661 -20 l 554 -20 l 554 -86 l 661 -86 l 661 -234 l 554 -234 l 554 -340 l 86 -340 m 534 -320 l 534 -214 l 641 -214 l 641 -106 l 534 -106 l 534 0 l 641 0 l 641 106 l 747 106 l 747 214 l 641 214 l 641 320 l 534 320 l 534 427 l 320 427 l 320 534 l 214 534 l 214 641 l 534 641 l 534 534 l 747 534 l 747 641 l 641 641 l 641 747 l 106 747 l 106 641 l 0 641 l 0 534 l 106 534 l 106 427 l 214 427 l 214 320 l 427 320 l 427 214 l 534 214 l 534 106 l 214 106 l 214 214 l 0 214 l 0 106 l 106 106 l 106 0 l 320 0 l 320 -106 l 427 -106 l 427 -214 l 106 -214 l 106 -320 l 534 -320 z "},"Š":{"ha":961,"x_min":-20,"x_max":768,"o":"m 193 1048 l 193 1154 l 86 1154 l 86 1302 l 340 1302 l 340 1195 l 407 1195 l 407 1302 l 661 1302 l 661 1154 l 554 1154 l 554 1048 l 193 1048 m 86 -20 l 86 86 l -20 86 l -20 340 l 234 340 l 234 127 l 513 127 l 513 300 l 407 300 l 407 407 l 193 407 l 193 513 l 86 513 l 86 621 l -20 621 l -20 875 l 86 875 l 86 981 l 661 981 l 661 875 l 768 875 l 768 621 l 513 621 l 513 834 l 234 834 l 234 661 l 340 661 l 340 554 l 554 554 l 554 448 l 661 448 l 661 340 l 768 340 l 768 86 l 661 86 l 661 -20 l 86 -20 m 641 0 l 641 106 l 747 106 l 747 320 l 641 320 l 641 427 l 534 427 l 534 534 l 320 534 l 320 641 l 214 641 l 214 854 l 534 854 l 534 641 l 747 641 l 747 854 l 641 854 l 641 961 l 106 961 l 106 854 l 0 854 l 0 641 l 106 641 l 106 534 l 214 534 l 214 427 l 427 427 l 427 320 l 534 320 l 534 106 l 214 106 l 214 320 l 0 320 l 0 106 l 106 106 l 106 0 l 641 0 m 534 1068 l 534 1175 l 641 1175 l 641 1282 l 427 1282 l 427 1175 l 320 1175 l 320 1282 l 106 1282 l 106 1175 l 214 1175 l 214 1068 l 534 1068 z "},"š":{"ha":961,"x_min":-20,"x_max":768,"o":"m 193 834 l 193 941 l 86 941 l 86 1088 l 340 1088 l 340 981 l 407 981 l 407 1088 l 661 1088 l 661 941 l 554 941 l 554 834 l 193 834 m 86 -20 l 86 86 l -20 86 l -20 234 l 234 234 l 234 127 l 513 127 l 513 193 l 407 193 l 407 300 l 193 300 l 193 407 l 86 407 l 86 513 l -20 513 l -20 661 l 86 661 l 86 768 l 661 768 l 661 661 l 768 661 l 768 513 l 513 513 l 513 621 l 234 621 l 234 554 l 340 554 l 340 448 l 554 448 l 554 340 l 661 340 l 661 234 l 768 234 l 768 86 l 661 86 l 661 -20 l 86 -20 m 641 0 l 641 106 l 747 106 l 747 214 l 641 214 l 641 320 l 534 320 l 534 427 l 320 427 l 320 534 l 214 534 l 214 641 l 534 641 l 534 534 l 747 534 l 747 641 l 641 641 l 641 747 l 106 747 l 106 641 l 0 641 l 0 534 l 106 534 l 106 427 l 214 427 l 214 320 l 427 320 l 427 214 l 534 214 l 534 106 l 214 106 l 214 214 l 0 214 l 0 106 l 106 106 l 106 0 l 641 0 m 534 854 l 534 961 l 641 961 l 641 1068 l 427 1068 l 427 961 l 320 961 l 320 1068 l 106 1068 l 106 961 l 214 961 l 214 854 l 534 854 z "},"Ţ":{"ha":961,"x_min":-20,"x_max":875,"o":"m 86 -340 l 86 -193 l 407 -193 l 407 -127 l 300 -127 l 300 -20 l 193 -20 l 193 127 l 300 127 l 300 941 l 234 941 l 234 834 l 127 834 l 127 727 l -20 727 l -20 1088 l 875 1088 l 875 727 l 727 727 l 727 834 l 621 834 l 621 941 l 554 941 l 554 127 l 661 127 l 661 -20 l 554 -20 l 554 -86 l 661 -86 l 661 -234 l 554 -234 l 554 -340 l 86 -340 m 534 -320 l 534 -214 l 641 -214 l 641 -106 l 534 -106 l 534 0 l 641 0 l 641 106 l 534 106 l 534 961 l 641 961 l 641 854 l 747 854 l 747 747 l 854 747 l 854 1068 l 0 1068 l 0 747 l 106 747 l 106 854 l 214 854 l 214 961 l 320 961 l 320 106 l 214 106 l 214 0 l 320 0 l 320 -106 l 427 -106 l 427 -214 l 106 -214 l 106 -320 l 534 -320 z "},"ţ":{"ha":961,"x_min":-20,"x_max":768,"o":"m 86 -340 l 86 -193 l 407 -193 l 407 -127 l 300 -127 l 300 86 l 193 86 l 193 621 l -20 621 l -20 768 l 193 768 l 193 981 l 300 981 l 300 1088 l 448 1088 l 448 768 l 661 768 l 661 621 l 448 621 l 448 127 l 513 127 l 513 234 l 768 234 l 768 86 l 661 86 l 661 -20 l 554 -20 l 554 -86 l 661 -86 l 661 -234 l 554 -234 l 554 -340 l 86 -340 m 534 -320 l 534 -214 l 641 -214 l 641 -106 l 534 -106 l 534 0 l 641 0 l 641 106 l 747 106 l 747 214 l 534 214 l 534 106 l 427 106 l 427 641 l 641 641 l 641 747 l 427 747 l 427 1068 l 320 1068 l 320 961 l 214 961 l 214 747 l 0 747 l 0 641 l 214 641 l 214 106 l 320 106 l 320 -106 l 427 -106 l 427 -214 l 106 -214 l 106 -320 l 534 -320 z "},"Ť":{"ha":961,"x_min":-20,"x_max":875,"o":"m 193 1048 l 193 1154 l 86 1154 l 86 1302 l 340 1302 l 340 1195 l 513 1195 l 513 1302 l 768 1302 l 768 1154 l 661 1154 l 661 1048 l 193 1048 m 193 -20 l 193 127 l 300 127 l 300 834 l 234 834 l 234 727 l 127 727 l 127 621 l -20 621 l -20 981 l 875 981 l 875 621 l 727 621 l 727 727 l 621 727 l 621 834 l 554 834 l 554 127 l 661 127 l 661 -20 l 193 -20 m 641 0 l 641 106 l 534 106 l 534 854 l 641 854 l 641 747 l 747 747 l 747 641 l 854 641 l 854 961 l 0 961 l 0 641 l 106 641 l 106 747 l 214 747 l 214 854 l 320 854 l 320 106 l 214 106 l 214 0 l 641 0 m 641 1068 l 641 1175 l 747 1175 l 747 1282 l 534 1282 l 534 1175 l 320 1175 l 320 1282 l 106 1282 l 106 1175 l 214 1175 l 214 1068 l 641 1068 z "},"ť":{"ha":961,"x_min":-20,"x_max":768,"o":"m 300 -20 l 300 86 l 193 86 l 193 621 l -20 621 l -20 768 l 193 768 l 193 981 l 300 981 l 300 1088 l 448 1088 l 448 981 l 513 981 l 513 1195 l 768 1195 l 768 941 l 661 941 l 661 834 l 448 834 l 448 127 l 513 127 l 513 234 l 768 234 l 768 86 l 661 86 l 661 -20 l 300 -20 m 641 0 l 641 106 l 747 106 l 747 214 l 534 214 l 534 106 l 427 106 l 427 854 l 641 854 l 641 961 l 747 961 l 747 1175 l 534 1175 l 534 961 l 427 961 l 427 1068 l 320 1068 l 320 961 l 214 961 l 214 747 l 0 747 l 0 641 l 214 641 l 214 106 l 320 106 l 320 0 l 641 0 z "},"Ŧ":{"ha":961,"x_min":-20,"x_max":875,"o":"m 193 -20 l 193 127 l 300 127 l 300 407 l 86 407 l 86 554 l 300 554 l 300 941 l 234 941 l 234 834 l 127 834 l 127 727 l -20 727 l -20 1088 l 875 1088 l 875 727 l 727 727 l 727 834 l 621 834 l 621 941 l 554 941 l 554 554 l 768 554 l 768 407 l 554 407 l 554 127 l 661 127 l 661 -20 l 193 -20 m 641 0 l 641 106 l 534 106 l 534 427 l 747 427 l 747 534 l 534 534 l 534 961 l 641 961 l 641 854 l 747 854 l 747 747 l 854 747 l 854 1068 l 0 1068 l 0 747 l 106 747 l 106 854 l 214 854 l 214 961 l 320 961 l 320 534 l 106 534 l 106 427 l 320 427 l 320 106 l 214 106 l 214 0 l 641 0 z "},"ŧ":{"ha":961,"x_min":-20,"x_max":768,"o":"m 300 -20 l 300 86 l 193 86 l 193 407 l -20 407 l -20 554 l 193 554 l 193 621 l -20 621 l -20 768 l 193 768 l 193 981 l 300 981 l 300 1088 l 448 1088 l 448 768 l 661 768 l 661 621 l 448 621 l 448 554 l 661 554 l 661 407 l 448 407 l 448 127 l 513 127 l 513 234 l 768 234 l 768 86 l 661 86 l 661 -20 l 300 -20 m 641 0 l 641 106 l 747 106 l 747 214 l 534 214 l 534 106 l 427 106 l 427 427 l 641 427 l 641 534 l 427 534 l 427 641 l 641 641 l 641 747 l 427 747 l 427 1068 l 320 1068 l 320 961 l 214 961 l 214 747 l 0 747 l 0 641 l 214 641 l 214 534 l 0 534 l 0 427 l 214 427 l 214 106 l 320 106 l 320 0 l 641 0 z "},"Ũ":{"ha":961,"x_min":-20,"x_max":768,"o":"m -20 1048 l -20 1195 l 86 1195 l 86 1302 l 448 1302 l 448 1195 l 513 1195 l 513 1302 l 768 1302 l 768 1154 l 661 1154 l 661 1048 l 300 1048 l 300 1154 l 234 1154 l 234 1048 l -20 1048 m 86 -20 l 86 86 l -20 86 l -20 981 l 234 981 l 234 127 l 513 127 l 513 981 l 768 981 l 768 86 l 661 86 l 661 -20 l 86 -20 m 641 0 l 641 106 l 747 106 l 747 961 l 534 961 l 534 106 l 214 106 l 214 961 l 0 961 l 0 106 l 106 106 l 106 0 l 641 0 m 214 1068 l 214 1175 l 320 1175 l 320 1068 l 641 1068 l 641 1175 l 747 1175 l 747 1282 l 534 1282 l 534 1175 l 427 1175 l 427 1282 l 106 1282 l 106 1175 l 0 1175 l 0 1068 l 214 1068 z "},"ũ":{"ha":961,"x_min":-20,"x_max":768,"o":"m -20 834 l -20 981 l 86 981 l 86 1088 l 448 1088 l 448 981 l 513 981 l 513 1088 l 768 1088 l 768 941 l 661 941 l 661 834 l 300 834 l 300 941 l 234 941 l 234 834 l -20 834 m 513 -20 l 513 86 l 448 86 l 448 -20 l 86 -20 l 86 86 l -20 86 l -20 768 l 234 768 l 234 127 l 407 127 l 407 768 l 661 768 l 661 127 l 768 127 l 768 -20 l 513 -20 m 747 0 l 747 106 l 641 106 l 641 747 l 427 747 l 427 106 l 214 106 l 214 747 l 0 747 l 0 106 l 106 106 l 106 0 l 427 0 l 427 106 l 534 106 l 534 0 l 747 0 m 214 854 l 214 961 l 320 961 l 320 854 l 641 854 l 641 961 l 747 961 l 747 1068 l 534 1068 l 534 961 l 427 961 l 427 1068 l 106 1068 l 106 961 l 0 961 l 0 854 l 214 854 z "},"Ū":{"ha":961,"x_min":-20,"x_max":768,"o":"m -20 1154 l -20 1302 l 768 1302 l 768 1154 l -20 1154 m 86 -20 l 86 86 l -20 86 l -20 1088 l 234 1088 l 234 127 l 513 127 l 513 1088 l 768 1088 l 768 86 l 661 86 l 661 -20 l 86 -20 m 641 0 l 641 106 l 747 106 l 747 1068 l 534 1068 l 534 106 l 214 106 l 214 1068 l 0 1068 l 0 106 l 106 106 l 106 0 l 641 0 m 747 1175 l 747 1282 l 0 1282 l 0 1175 l 747 1175 z "},"ū":{"ha":961,"x_min":-20,"x_max":768,"o":"m -20 941 l -20 1088 l 661 1088 l 661 941 l -20 941 m 513 -20 l 513 86 l 448 86 l 448 -20 l 86 -20 l 86 86 l -20 86 l -20 768 l 234 768 l 234 127 l 407 127 l 407 768 l 661 768 l 661 127 l 768 127 l 768 -20 l 513 -20 m 747 0 l 747 106 l 641 106 l 641 747 l 427 747 l 427 106 l 214 106 l 214 747 l 0 747 l 0 106 l 106 106 l 106 0 l 427 0 l 427 106 l 534 106 l 534 0 l 747 0 m 641 961 l 641 1068 l 0 1068 l 0 961 l 641 961 z "},"Ŭ":{"ha":961,"x_min":-20,"x_max":768,"o":"m 86 1048 l 86 1154 l -20 1154 l -20 1302 l 234 1302 l 234 1195 l 513 1195 l 513 1302 l 768 1302 l 768 1154 l 661 1154 l 661 1048 l 86 1048 m 86 -20 l 86 86 l -20 86 l -20 981 l 234 981 l 234 127 l 513 127 l 513 981 l 768 981 l 768 86 l 661 86 l 661 -20 l 86 -20 m 641 0 l 641 106 l 747 106 l 747 961 l 534 961 l 534 106 l 214 106 l 214 961 l 0 961 l 0 106 l 106 106 l 106 0 l 641 0 m 641 1068 l 641 1175 l 747 1175 l 747 1282 l 534 1282 l 534 1175 l 214 1175 l 214 1282 l 0 1282 l 0 1175 l 106 1175 l 106 1068 l 641 1068 z "},"ŭ":{"ha":961,"x_min":-20,"x_max":768,"o":"m 86 834 l 86 941 l -20 941 l -20 1088 l 234 1088 l 234 981 l 513 981 l 513 1088 l 768 1088 l 768 941 l 661 941 l 661 834 l 86 834 m 513 -20 l 513 86 l 448 86 l 448 -20 l 86 -20 l 86 86 l -20 86 l -20 768 l 234 768 l 234 127 l 407 127 l 407 768 l 661 768 l 661 127 l 768 127 l 768 -20 l 513 -20 m 747 0 l 747 106 l 641 106 l 641 747 l 427 747 l 427 106 l 214 106 l 214 747 l 0 747 l 0 106 l 106 106 l 106 0 l 427 0 l 427 106 l 534 106 l 534 0 l 747 0 m 641 854 l 641 961 l 747 961 l 747 1068 l 534 1068 l 534 961 l 214 961 l 214 1068 l 0 1068 l 0 961 l 106 961 l 106 854 l 641 854 z "},"Ů":{"ha":961,"x_min":-20,"x_max":768,"o":"m 193 941 l 193 1048 l 86 1048 l 86 1195 l 193 1195 l 193 1302 l 554 1302 l 554 1195 l 661 1195 l 661 1048 l 554 1048 l 554 941 l 193 941 m 407 1088 l 407 1154 l 340 1154 l 340 1088 l 407 1088 m 86 -20 l 86 86 l -20 86 l -20 875 l 234 875 l 234 127 l 513 127 l 513 875 l 768 875 l 768 86 l 661 86 l 661 -20 l 86 -20 m 641 0 l 641 106 l 747 106 l 747 854 l 534 854 l 534 106 l 214 106 l 214 854 l 0 854 l 0 106 l 106 106 l 106 0 l 641 0 m 320 1068 l 320 1175 l 427 1175 l 427 1068 l 320 1068 m 534 961 l 534 1068 l 641 1068 l 641 1175 l 534 1175 l 534 1282 l 214 1282 l 214 1175 l 106 1175 l 106 1068 l 214 1068 l 214 961 l 534 961 z "},"ů":{"ha":961,"x_min":-20,"x_max":768,"o":"m 86 834 l 86 941 l -20 941 l -20 1088 l 86 1088 l 86 1195 l 554 1195 l 554 1088 l 661 1088 l 661 941 l 554 941 l 554 834 l 86 834 m 407 981 l 407 1048 l 234 1048 l 234 981 l 407 981 m 513 -20 l 513 86 l 448 86 l 448 -20 l 86 -20 l 86 86 l -20 86 l -20 768 l 234 768 l 234 127 l 407 127 l 407 768 l 661 768 l 661 127 l 768 127 l 768 -20 l 513 -20 m 214 961 l 214 1068 l 427 1068 l 427 961 l 214 961 m 747 0 l 747 106 l 641 106 l 641 747 l 427 747 l 427 106 l 214 106 l 214 747 l 0 747 l 0 106 l 106 106 l 106 0 l 427 0 l 427 106 l 534 106 l 534 0 l 747 0 m 534 854 l 534 961 l 641 961 l 641 1068 l 534 1068 l 534 1175 l 106 1175 l 106 1068 l 0 1068 l 0 961 l 106 961 l 106 854 l 534 854 z "},"Ű":{"ha":961,"x_min":-20,"x_max":768,"o":"m 407 1048 l 407 1154 l 340 1154 l 340 1048 l 86 1048 l 86 1195 l 193 1195 l 193 1302 l 448 1302 l 448 1195 l 513 1195 l 513 1302 l 768 1302 l 768 1154 l 661 1154 l 661 1048 l 407 1048 m 86 -20 l 86 86 l -20 86 l -20 981 l 234 981 l 234 127 l 513 127 l 513 981 l 768 981 l 768 86 l 661 86 l 661 -20 l 86 -20 m 641 0 l 641 106 l 747 106 l 747 961 l 534 961 l 534 106 l 214 106 l 214 961 l 0 961 l 0 106 l 106 106 l 106 0 l 641 0 m 641 1068 l 641 1175 l 747 1175 l 747 1282 l 534 1282 l 534 1175 l 427 1175 l 427 1282 l 214 1282 l 214 1175 l 106 1175 l 106 1068 l 320 1068 l 320 1175 l 427 1175 l 427 1068 l 641 1068 z "},"ű":{"ha":961,"x_min":-20,"x_max":768,"o":"m 407 834 l 407 941 l 340 941 l 340 834 l 86 834 l 86 981 l 193 981 l 193 1088 l 448 1088 l 448 981 l 513 981 l 513 1088 l 768 1088 l 768 941 l 661 941 l 661 834 l 407 834 m 513 -20 l 513 86 l 448 86 l 448 -20 l 86 -20 l 86 86 l -20 86 l -20 768 l 234 768 l 234 127 l 407 127 l 407 768 l 661 768 l 661 127 l 768 127 l 768 -20 l 513 -20 m 747 0 l 747 106 l 641 106 l 641 747 l 427 747 l 427 106 l 214 106 l 214 747 l 0 747 l 0 106 l 106 106 l 106 0 l 427 0 l 427 106 l 534 106 l 534 0 l 747 0 m 641 854 l 641 961 l 747 961 l 747 1068 l 534 1068 l 534 961 l 427 961 l 427 1068 l 214 1068 l 214 961 l 106 961 l 106 854 l 320 854 l 320 961 l 427 961 l 427 854 l 641 854 z "},"Ų":{"ha":961,"x_min":-20,"x_max":768,"o":"m 300 -340 l 300 -234 l 193 -234 l 193 -86 l 300 -86 l 300 -20 l 86 -20 l 86 86 l -20 86 l -20 1088 l 234 1088 l 234 127 l 513 127 l 513 1088 l 768 1088 l 768 86 l 661 86 l 661 -20 l 554 -20 l 554 -127 l 448 -127 l 448 -193 l 768 -193 l 768 -340 l 300 -340 m 747 -320 l 747 -214 l 427 -214 l 427 -106 l 534 -106 l 534 0 l 641 0 l 641 106 l 747 106 l 747 1068 l 534 1068 l 534 106 l 214 106 l 214 1068 l 0 1068 l 0 106 l 106 106 l 106 0 l 320 0 l 320 -106 l 214 -106 l 214 -214 l 320 -214 l 320 -320 l 747 -320 z "},"ų":{"ha":961,"x_min":-20,"x_max":768,"o":"m 407 127 l 407 768 l 661 768 l 661 127 l 768 127 l 768 -20 l 554 -20 l 554 -127 l 448 -127 l 448 -193 l 768 -193 l 768 -340 l 300 -340 l 300 -234 l 193 -234 l 193 -86 l 300 -86 l 300 -20 l 86 -20 l 86 86 l -20 86 l -20 768 l 234 768 l 234 127 l 407 127 m 513 20 l 513 86 l 448 86 l 448 20 l 513 20 m 427 0 l 427 106 l 534 106 l 534 0 l 427 0 m 214 106 l 214 747 l 0 747 l 0 106 l 106 106 l 106 0 l 320 0 l 320 -106 l 214 -106 l 214 -214 l 320 -214 l 320 -320 l 747 -320 l 747 -214 l 427 -214 l 427 -106 l 534 -106 l 534 0 l 747 0 l 747 106 l 641 106 l 641 747 l 427 747 l 427 106 l 214 106 z "},"Ŵ":{"ha":961,"x_min":-20,"x_max":875,"o":"m 86 1048 l 86 1195 l 193 1195 l 193 1302 l 661 1302 l 661 1195 l 768 1195 l 768 1048 l 513 1048 l 513 1154 l 340 1154 l 340 1048 l 86 1048 m 86 -20 l 86 193 l -20 193 l -20 981 l 234 981 l 234 340 l 300 340 l 300 554 l 554 554 l 554 340 l 621 340 l 621 981 l 875 981 l 875 193 l 768 193 l 768 -20 l 513 -20 l 513 193 l 340 193 l 340 -20 l 86 -20 m 320 0 l 320 214 l 534 214 l 534 0 l 747 0 l 747 214 l 854 214 l 854 961 l 641 961 l 641 320 l 534 320 l 534 534 l 320 534 l 320 320 l 214 320 l 214 961 l 0 961 l 0 214 l 106 214 l 106 0 l 320 0 m 320 1068 l 320 1175 l 534 1175 l 534 1068 l 747 1068 l 747 1175 l 641 1175 l 641 1282 l 214 1282 l 214 1175 l 106 1175 l 106 1068 l 320 1068 z "},"ŵ":{"ha":961,"x_min":-20,"x_max":875,"o":"m 86 834 l 86 981 l 193 981 l 193 1088 l 300 1088 l 300 1195 l 554 1195 l 554 1088 l 661 1088 l 661 981 l 768 981 l 768 834 l 513 834 l 513 941 l 340 941 l 340 834 l 86 834 m 86 -20 l 86 86 l -20 86 l -20 768 l 234 768 l 234 234 l 300 234 l 300 448 l 554 448 l 554 234 l 621 234 l 621 768 l 875 768 l 875 86 l 768 86 l 768 -20 l 513 -20 l 513 86 l 340 86 l 340 -20 l 86 -20 m 320 0 l 320 106 l 534 106 l 534 0 l 747 0 l 747 106 l 854 106 l 854 747 l 641 747 l 641 214 l 534 214 l 534 427 l 320 427 l 320 214 l 214 214 l 214 747 l 0 747 l 0 106 l 106 106 l 106 0 l 320 0 m 320 854 l 320 961 l 534 961 l 534 854 l 747 854 l 747 961 l 641 961 l 641 1068 l 534 1068 l 534 1175 l 320 1175 l 320 1068 l 214 1068 l 214 961 l 106 961 l 106 854 l 320 854 z "},"Ŷ":{"ha":961,"x_min":-20,"x_max":875,"o":"m 86 1048 l 86 1195 l 193 1195 l 193 1302 l 661 1302 l 661 1195 l 768 1195 l 768 1048 l 513 1048 l 513 1154 l 340 1154 l 340 1048 l 86 1048 m 193 -20 l 193 127 l 300 127 l 300 407 l 193 407 l 193 513 l 86 513 l 86 621 l -20 621 l -20 981 l 234 981 l 234 661 l 340 661 l 340 554 l 513 554 l 513 661 l 621 661 l 621 981 l 875 981 l 875 621 l 768 621 l 768 513 l 661 513 l 661 407 l 554 407 l 554 127 l 661 127 l 661 -20 l 193 -20 m 641 0 l 641 106 l 534 106 l 534 427 l 641 427 l 641 534 l 747 534 l 747 641 l 854 641 l 854 961 l 641 961 l 641 641 l 534 641 l 534 534 l 320 534 l 320 641 l 214 641 l 214 961 l 0 961 l 0 641 l 106 641 l 106 534 l 214 534 l 214 427 l 320 427 l 320 106 l 214 106 l 214 0 l 641 0 m 320 1068 l 320 1175 l 534 1175 l 534 1068 l 747 1068 l 747 1175 l 641 1175 l 641 1282 l 214 1282 l 214 1175 l 106 1175 l 106 1068 l 320 1068 z "},"ŷ":{"ha":961,"x_min":-20,"x_max":768,"o":"m 86 834 l 86 981 l 193 981 l 193 1088 l 300 1088 l 300 1195 l 448 1195 l 448 1088 l 554 1088 l 554 981 l 661 981 l 661 834 l 407 834 l 407 941 l 340 941 l 340 834 l 86 834 m -20 -340 l -20 -193 l 407 -193 l 407 -86 l 513 -86 l 513 -20 l 86 -20 l 86 86 l -20 86 l -20 768 l 234 768 l 234 127 l 513 127 l 513 768 l 768 768 l 768 -127 l 661 -127 l 661 -234 l 554 -234 l 554 -340 l -20 -340 m 534 -320 l 534 -214 l 641 -214 l 641 -106 l 747 -106 l 747 747 l 534 747 l 534 106 l 214 106 l 214 747 l 0 747 l 0 106 l 106 106 l 106 0 l 534 0 l 534 -106 l 427 -106 l 427 -214 l 0 -214 l 0 -320 l 534 -320 m 320 854 l 320 961 l 427 961 l 427 854 l 641 854 l 641 961 l 534 961 l 534 1068 l 427 1068 l 427 1175 l 320 1175 l 320 1068 l 214 1068 l 214 961 l 106 961 l 106 854 l 320 854 z "},"Ÿ":{"ha":961,"x_min":-20,"x_max":875,"o":"m 621 1048 l 621 1195 l 875 1195 l 875 1048 l 621 1048 m -20 1048 l -20 1195 l 234 1195 l 234 1048 l -20 1048 m 193 -20 l 193 127 l 300 127 l 300 407 l 193 407 l 193 513 l 86 513 l 86 621 l -20 621 l -20 981 l 234 981 l 234 661 l 340 661 l 340 554 l 513 554 l 513 661 l 621 661 l 621 981 l 875 981 l 875 621 l 768 621 l 768 513 l 661 513 l 661 407 l 554 407 l 554 127 l 661 127 l 661 -20 l 193 -20 m 641 0 l 641 106 l 534 106 l 534 427 l 641 427 l 641 534 l 747 534 l 747 641 l 854 641 l 854 961 l 641 961 l 641 641 l 534 641 l 534 534 l 320 534 l 320 641 l 214 641 l 214 961 l 0 961 l 0 641 l 106 641 l 106 534 l 214 534 l 214 427 l 320 427 l 320 106 l 214 106 l 214 0 l 641 0 m 214 1068 l 214 1175 l 0 1175 l 0 1068 l 214 1068 m 854 1068 l 854 1175 l 641 1175 l 641 1068 l 854 1068 z "},"Ź":{"ha":961,"x_min":-20,"x_max":875,"o":"m 300 1048 l 300 1195 l 407 1195 l 407 1302 l 661 1302 l 661 1154 l 554 1154 l 554 1048 l 300 1048 m -20 -20 l -20 234 l 86 234 l 86 340 l 193 340 l 193 448 l 300 448 l 300 554 l 407 554 l 407 661 l 513 661 l 513 768 l 621 768 l 621 834 l 234 834 l 234 727 l 127 727 l 127 621 l -20 621 l -20 981 l 875 981 l 875 727 l 768 727 l 768 621 l 661 621 l 661 513 l 554 513 l 554 407 l 448 407 l 448 300 l 340 300 l 340 193 l 234 193 l 234 127 l 621 127 l 621 234 l 727 234 l 727 340 l 875 340 l 875 -20 l -20 -20 m 854 0 l 854 320 l 747 320 l 747 214 l 641 214 l 641 106 l 214 106 l 214 214 l 320 214 l 320 320 l 427 320 l 427 427 l 534 427 l 534 534 l 641 534 l 641 641 l 747 641 l 747 747 l 854 747 l 854 961 l 0 961 l 0 641 l 106 641 l 106 747 l 214 747 l 214 854 l 641 854 l 641 747 l 534 747 l 534 641 l 427 641 l 427 534 l 320 534 l 320 427 l 214 427 l 214 320 l 106 320 l 106 214 l 0 214 l 0 0 l 854 0 m 534 1068 l 534 1175 l 641 1175 l 641 1282 l 427 1282 l 427 1175 l 320 1175 l 320 1068 l 534 1068 z "},"ź":{"ha":961,"x_min":-20,"x_max":768,"o":"m 193 834 l 193 981 l 300 981 l 300 1088 l 407 1088 l 407 1195 l 661 1195 l 661 1048 l 554 1048 l 554 941 l 448 941 l 448 834 l 193 834 m -20 -20 l -20 234 l 86 234 l 86 340 l 193 340 l 193 448 l 300 448 l 300 554 l 407 554 l 407 621 l 234 621 l 234 513 l -20 513 l -20 768 l 768 768 l 768 621 l 661 621 l 661 513 l 554 513 l 554 407 l 448 407 l 448 300 l 340 300 l 340 193 l 234 193 l 234 127 l 513 127 l 513 234 l 768 234 l 768 -20 l -20 -20 m 747 0 l 747 214 l 534 214 l 534 106 l 214 106 l 214 214 l 320 214 l 320 320 l 427 320 l 427 427 l 534 427 l 534 534 l 641 534 l 641 641 l 747 641 l 747 747 l 0 747 l 0 534 l 214 534 l 214 641 l 427 641 l 427 534 l 320 534 l 320 427 l 214 427 l 214 320 l 106 320 l 106 214 l 0 214 l 0 0 l 747 0 m 427 854 l 427 961 l 534 961 l 534 1068 l 641 1068 l 641 1175 l 427 1175 l 427 1068 l 320 1068 l 320 961 l 214 961 l 214 854 l 427 854 z "},"Ż":{"ha":961,"x_min":-20,"x_max":875,"o":"m 300 1048 l 300 1302 l 554 1302 l 554 1048 l 300 1048 m -20 -20 l -20 234 l 86 234 l 86 340 l 193 340 l 193 448 l 300 448 l 300 554 l 407 554 l 407 661 l 513 661 l 513 768 l 621 768 l 621 834 l 234 834 l 234 727 l 127 727 l 127 621 l -20 621 l -20 981 l 875 981 l 875 727 l 768 727 l 768 621 l 661 621 l 661 513 l 554 513 l 554 407 l 448 407 l 448 300 l 340 300 l 340 193 l 234 193 l 234 127 l 621 127 l 621 234 l 727 234 l 727 340 l 875 340 l 875 -20 l -20 -20 m 854 0 l 854 320 l 747 320 l 747 214 l 641 214 l 641 106 l 214 106 l 214 214 l 320 214 l 320 320 l 427 320 l 427 427 l 534 427 l 534 534 l 641 534 l 641 641 l 747 641 l 747 747 l 854 747 l 854 961 l 0 961 l 0 641 l 106 641 l 106 747 l 214 747 l 214 854 l 641 854 l 641 747 l 534 747 l 534 641 l 427 641 l 427 534 l 320 534 l 320 427 l 214 427 l 214 320 l 106 320 l 106 214 l 0 214 l 0 0 l 854 0 m 534 1068 l 534 1282 l 320 1282 l 320 1068 l 534 1068 z "},"ż":{"ha":961,"x_min":-20,"x_max":768,"o":"m 300 834 l 300 1088 l 554 1088 l 554 834 l 300 834 m -20 -20 l -20 234 l 86 234 l 86 340 l 193 340 l 193 448 l 300 448 l 300 554 l 407 554 l 407 621 l 234 621 l 234 513 l -20 513 l -20 768 l 768 768 l 768 621 l 661 621 l 661 513 l 554 513 l 554 407 l 448 407 l 448 300 l 340 300 l 340 193 l 234 193 l 234 127 l 513 127 l 513 234 l 768 234 l 768 -20 l -20 -20 m 747 0 l 747 214 l 534 214 l 534 106 l 214 106 l 214 214 l 320 214 l 320 320 l 427 320 l 427 427 l 534 427 l 534 534 l 641 534 l 641 641 l 747 641 l 747 747 l 0 747 l 0 534 l 214 534 l 214 641 l 427 641 l 427 534 l 320 534 l 320 427 l 214 427 l 214 320 l 106 320 l 106 214 l 0 214 l 0 0 l 747 0 m 534 854 l 534 1068 l 320 1068 l 320 854 l 534 854 z "}}}
